<svg width="63" height="63" viewBox="0 0 63 63" fill="none" xmlns="http://www.w3.org/2000/svg">
<path d="M59.7 3H49.7C49.5 3 49.3999 3.1 49.2999 3.2C49.1999 3.3 49.2 3.5 49.2 3.6L51.2 11.6C51.3 11.8 51.5 12 51.7 12H57.7C57.9 12 58.1 11.8 58.2 11.6L60.2 3.6C60.2 3.5 60.1999 3.3 60.0999 3.2C59.9999 3.1 59.9 3 59.7 3ZM57.2999 11H52.0999L50.2999 4H59L57.2999 11Z" fill="#2A76BC"/>
<path d="M51.7 23H28.7L24.5 18.8V11.8C24.5 11.6 24.5 11.5 24.4 11.3C24.1 11.6 23.8 11.8 23.5 12V19C23.5 19.1 23.6 19.3 23.6 19.4L28.1 23.9C28.2 24 28.3 24 28.5 24H51.7C52.5 24 53.2 24.7 53.2 25.5C53.2 26.3 52.5 27 51.7 27H35.7C35.4 27 35.2 27.2 35.2 27.5V37H28.2V28.3C28.2 28.2 28.1 28 28.1 27.9L21 20.9C20.7 20.6 20.6 20.2 20.6 19.8V12C20.2 11.8 19.9 11.6 19.7 11.3C19.7 11.5 19.6 11.6 19.6 11.8V19.8C19.6 20.5 19.9 21.1 20.3 21.6L27.2 28.5V37.5V47H23.7C22.3 47 21.2 48.1 21.2 49.5C21.2 50.9 22.3 52 23.7 52L20.9 54.8C20.4 55.3 20.2 55.9 20.2 56.6C20.2 57.3 20.5 57.9 20.9 58.4C21.4 58.9 22 59.1 22.7 59.1C23.4 59.1 24 58.9 24.5 58.4L30.8 52.1H33.8C35.2 52.1 36.3 51 36.3 49.6V37.6V28H51.8C53.2 28 54.3 26.9 54.3 25.5C54.3 24.1 53.1 23 51.7 23ZM23.7 51C22.9 51 22.2 50.3 22.2 49.5C22.2 48.7 22.9 48 23.7 48H27.2V48.5L24.7 51H23.7ZM33.7 51H31.7C32 50.6 32.2 50.1 32.2 49.5V48V47V41.5C32.2 41.2 32 41 31.7 41C31.4 41 31.2 41.2 31.2 41.5V47V48V49.5C31.2 49.9 31 50.3 30.8 50.6L30.3 51L29.3 52L23.7 57.6C23.1 58.2 22.2 58.2 21.6 57.6C21.3 57.3 21.2 56.9 21.2 56.5C21.2 56.1 21.4 55.7 21.6 55.4L25.1 51.9L26.1 50.9L28.1 48.9C28.2 48.8 28.2 48.7 28.2 48.5V48V47V38H35.2V47.5V49.5C35.2 50.4 34.5 51 33.7 51Z" fill="black"/>
<path d="M31.7 22C33.6 22 35.2 20.4 35.2 18.5C35.2 16.6 33.7 15 31.7 15C29.7 15 28.2 16.6 28.2 18.5C28.2 20.4 29.8 22 31.7 22ZM31.7 16C33.1 16 34.2 17.1 34.2 18.5C34.2 19.9 33.1 21 31.7 21C30.3 21 29.2 19.9 29.2 18.5C29.2 17.1 30.3 16 31.7 16Z" fill="black"/>
<path d="M22.1 12.4C22.6 12.4 23.1 12.3 23.6 12C24 11.8 24.3 11.6 24.5 11.3C25.1 10.7 25.6 9.79999 25.6 8.79999C25.6 6.89999 24 5.29999 22.1 5.29999C20.2 5.29999 18.6 6.89999 18.6 8.79999C18.6 9.79999 19 10.7 19.7 11.3C20 11.6 20.3 11.8 20.6 12C21 12.2 21.5 12.4 22.1 12.4ZM22.1 6.39999C23.5 6.39999 24.6 7.49999 24.6 8.89999C24.6 9.49999 24.4 9.99999 24.1 10.4C23.9 10.7 23.6 10.9 23.4 11.1C23 11.3 22.6 11.4 22.2 11.4C21.8 11.4 21.3 11.3 21 11.1C20.7 10.9 20.5 10.7 20.3 10.4C20 9.99999 19.8 9.49999 19.8 8.89999C19.6 7.49999 20.7 6.39999 22.1 6.39999Z" fill="#EE2B2F"/>
<path d="M45.4999 55.4C46.3999 55.1 46.8999 54.4 46.8999 53.6C46.8999 52.3 45.7999 51.5 44.2999 51.5C42.5999 51.5 41.4999 52.5 41.4999 53.9H42.6999C42.6999 53 43.2999 52.4 44.2999 52.4C45.1999 52.4 45.6999 52.9 45.6999 53.6C45.6999 54.5 44.9999 54.9 44.1999 54.9H43.6999V55.9H44.1999C45.0999 55.9 45.8999 56.4 45.8999 57.3C45.8999 58.2 45.1999 58.7 44.1999 58.7C43.1999 58.7 42.4999 58.1 42.4999 57.1H41.2999C41.2999 58.7 42.3999 59.7 44.0999 59.7C45.7999 59.7 46.9999 58.7 46.9999 57.4C47.0999 56.4 46.4999 55.7 45.4999 55.4Z" fill="black"/>
<path d="M53.3 54.2L52.6 53.5L50.7 55.4L48.8 53.5L48.1 54.2L50 56.1L48.1 58L48.8 58.7L50.7 56.8L52.6 58.7L53.3 58L51.4 56.1L53.3 54.2Z" fill="black"/>
<path d="M58.3 55.4C59.2 55.1 59.7 54.4 59.7 53.6C59.7 52.3 58.6 51.5 57.1 51.5C55.4 51.5 54.3 52.5 54.3 53.9H55.5C55.5 53 56.1 52.4 57.1 52.4C58 52.4 58.5 52.9 58.5 53.6C58.5 54.5 57.8 54.9 57 54.9H56.5V55.9H57C57.9 55.9 58.7 56.4 58.7 57.3C58.7 58.2 58 58.7 57 58.7C56 58.7 55.3 58.1 55.3 57.1H54.1C54.1 58.7 55.2 59.7 56.9 59.7C58.6 59.7 59.8 58.7 59.8 57.4C59.9 56.4 59.3 55.7 58.3 55.4Z" fill="black"/>
</svg>
