<svg width="63" height="63" viewBox="0 0 63 63" fill="none" xmlns="http://www.w3.org/2000/svg">
<g clip-path="url(#clip0_323_21417)">
<path d="M30.8 54H29.5C29.3 54 29.1 54.1 29 54.3L25.4 63H26.5L29.8 55H30.5L33.8 63H34.9L31.3 54.3C31.2 54.2 31 54 30.8 54Z" fill="black"/>
<path d="M53.3 21.8H44.6V14.5C44.6 14.4 44.6 14.3 44.6 14.2V14.1C44.6 14.1 44.6 14.1 44.6 14C44.6 14 44.6 14 44.6 13.9C44.6 13.8 44.6 13.8 44.6 13.7C44.6 13.6 44.5 13.4 44.5 13.3C44.5 13.3 44.5 13.3 44.5 13.2C44.5 13.2 44.5 13.2 44.5 13.1V13C44.4 12.8 44.3 12.6 44.2 12.5C44.1 12.3 44 12.2 43.8 12C43.8 12 43.8 11.9 43.7 11.9C43.5 11.7 43.3 11.6 43.2 11.5C41.8 10.6 40 10.8 38.8 11.9L31 19.7C30.3 20.4 30 21.2 30 22.2V24.2C30 25.6 31.1 26.7 32.5 26.7H39.8V30.4V36H10.1C8.69998 36 7.59998 37.1 7.59998 38.5C7.59998 39.9 8.69998 41 10.1 41H25.6V50.5V52L21 63H22.1L26.5 52.3C26.5 52.2 26.5 52.2 26.5 52.1V51H33.5V52.1C33.5 52.2 33.5 52.2 33.5 52.3L38.1 63H39.2L34.6 52V50.5V41H42.1C43.5 41 44.6 39.9 44.6 38.5V30.5V26.8H53.3C54.7 26.8 55.8 25.7 55.8 24.3C55.8 22.9 54.7 21.8 53.3 21.8ZM33.4 25.8H32.4C31.8 25.8 31.2 25.4 31 24.9C30.9 24.7 30.9 24.5 30.9 24.3V24V22.8H33.1H34.5H36.3H37H37.7H39.5V25.8H33.4ZM38.8 21.8L39.6 21V21.8H38.8ZM43.6 38.5C43.6 39.3 42.9 40 42.1 40H34.1C33.8 40 33.6 40.2 33.6 40.5V50H26.6V40.5C26.6 40.2 26.4 40 26.1 40H10.1C9.29998 40 8.59998 39.3 8.59998 38.5C8.59998 37.7 9.29998 37 10.1 37H40.1C40.4 37 40.6 36.8 40.6 36.5V32.5C41 32.8 41.5 33 42.1 33C42.7 33 43.2 32.8 43.6 32.5V38.5ZM43.6 30.6C43.6 31.4 42.9 32.1 42.1 32.1C41.3 32.1 40.6 31.4 40.6 30.6C40.6 29.8 41.3 29.1 42.1 29.1C42.9 29 43.6 29.7 43.6 30.6ZM43.6 16.2V17V21.8V22.3V22.8V25.8V26.3V26.8V28.5C43.2 28.2 42.7 28 42.1 28C41.5 28 41 28.2 40.6 28.5V26.8V26.3V25.8V22.8V22.3V21.8V20V19.3V18.6V17.6C40.6 17.4 40.5 17.3 40.4 17.2C40.3 17.2 40.2 17.1 40.1 17.1C39.8 17.1 39.6 17.3 39.6 17.6V19.6L37.4 21.8H33.6H32.2H31C31.1 21.5 31.2 21.2 31.4 20.9C31.5 20.8 31.6 20.6 31.7 20.5L39.5 12.7C39.7 12.5 39.9 12.4 40.1 12.3C40.1 12.3 40.2 12.3 40.2 12.2C40.5 12 40.9 11.9 41.3 11.9C41.4 11.9 41.4 11.9 41.5 11.9H41.6C41.8 11.9 42 12 42.2 12.1C42.5 12.2 42.8 12.4 43 12.6L43.1 12.7C43.2 12.8 43.3 12.9 43.3 13C43.3 13 43.3 13.1 43.4 13.1C43.5 13.2 43.5 13.3 43.5 13.4V13.5C43.5 13.6 43.6 13.7 43.6 13.9C43.6 14 43.6 14 43.6 14.1C43.6 14.2 43.6 14.3 43.6 14.4V16.2ZM53.3 25.8H44.6V22.8H53.3C54.1 22.8 54.8 23.5 54.8 24.3C54.8 25.1 54.2 25.8 53.3 25.8Z" fill="black"/>
<path d="M46.8 12.4C47.7 12.4 48.6 12 49.3 11.4C50 10.8 50.3 9.90001 50.3 8.90001C50.3 8.00001 49.9 7.10001 49.3 6.40001C47.9 5.00001 45.7 5.00001 44.4 6.40001C43.7 7.10001 43.4 7.90001 43.4 8.90001C43.4 9.80001 43.8 10.7 44.4 11.4C45 12.1 45.8 12.4 46.8 12.4ZM45 7.10001C45.5 6.60001 46.1 6.40001 46.8 6.40001C47.5 6.40001 48.1 6.60001 48.6 7.10001C49.1 7.60001 49.3 8.20001 49.3 8.90001C49.3 9.60001 49 10.2 48.6 10.7C47.7 11.6 46 11.6 45.1 10.7C44.6 10.2 44.4 9.60001 44.4 8.90001C44.3 8.20001 44.5 7.60001 45 7.10001Z" fill="black"/>
<path d="M30.1 35C32 35 33.6 33.4 33.6 31.5C33.6 29.6 32 28 30.1 28C28.2 28 26.6 29.6 26.6 31.5C26.6 33.4 28.2 35 30.1 35ZM30.1 29C31.5 29 32.6 30.1 32.6 31.5C32.6 32.9 31.5 34 30.1 34C28.7 34 27.6 32.9 27.6 31.5C27.6 30.2 28.7 29 30.1 29Z" fill="black"/>
</g>
<defs>
<clipPath id="clip0_323_21417">
<rect width="63" height="63" fill="white"/>
</clipPath>
</defs>
</svg>
