<svg width="63" height="63" viewBox="0 0 63 63" fill="none" xmlns="http://www.w3.org/2000/svg">
<path d="M27.7 18.1C29.6 18.1 31.2 16.5 31.2 14.6C31.2 12.7 29.6 11.1 27.7 11.1C25.8 11.1 24.2 12.7 24.2 14.6C24.2 16.5 25.8 18.1 27.7 18.1ZM27.7 12.1C29.1 12.1 30.2 13.2 30.2 14.6C30.2 16 29.1 17.1 27.7 17.1C26.3 17.1 25.2 16 25.2 14.6C25.2 13.2 26.3 12.1 27.7 12.1Z" fill="black"/>
<path d="M47.0999 24C46.4999 28.6 44.4999 32.8 41.1999 36.1C40.9999 36.3 40.9999 36.6 41.1999 36.8C41.2999 36.9 41.3999 36.9 41.5999 36.9C41.7999 36.9 41.8999 36.9 41.9999 36.8C45.4999 33.3 47.5999 28.9 48.0999 24.1C47.9999 24.1 47.8999 24.1 47.7999 24.1C47.4999 24.1 47.2999 24 47.0999 24Z" fill="#EE2B2F"/>
<path d="M47.6999 19.1C47.7999 19.1 47.8999 19.1 47.9999 19.1C47.4999 14.3 45.2999 9.8 41.8999 6.4C41.6999 6.2 41.3999 6.2 41.1999 6.4C40.9999 6.6 40.9999 6.9 41.1999 7.1C44.4999 10.4 46.4999 14.6 46.9999 19.1V19.2C47.2999 19.1 47.4999 19.1 47.6999 19.1Z" fill="#EE2B2F"/>
<path d="M48.0999 19.1C48 19.1 47.8999 19.1 47.7999 19.1C47.5999 19.1 47.3999 19.1 47.0999 19.2V19.1H15.7C14.3 19.1 13.2 20.2 13.2 21.6C13.2 23 14.3 24.1 15.7 24.1H23.2V35.1L15.7 53.1C15.2 54.4 15.8 55.8 17.1 56.4C17.4 56.5 17.7 56.6 18.1 56.6C19.1 56.6 20 56 20.4 55.1L27.4 38.2H28.1L35.0999 55.1C35.5999 56.4 37.1 57 38.4 56.5C39.7 56 40.2999 54.5 39.7999 53.2L32.2999 35.2V24.2H47.0999V24.1C47.2999 24.2 47.5 24.2 47.7999 24.2C47.8999 24.2 48 24.2 48.0999 24.2C49.2999 24 50.2999 23 50.2999 21.7C50.2999 20.4 49.2999 19.3 48.0999 19.1ZM48.2 23C48.1 23 47.8999 23.1 47.7999 23.1C47.5999 23.1 47.4 23.1 47.2 23C46.7 22.8 46.2999 22.2 46.2999 21.6C46.2999 21 46.7 20.4 47.2 20.2C47.4 20.1 47.5999 20.1 47.7999 20.1C48 20.1 48.1 20.1 48.2 20.2C48.7999 20.4 49.2999 21 49.2999 21.6C49.2999 22.2 48.7999 22.8 48.2 23ZM36 54.6L28.9 37.4C28.8 37.2 28.6 37.1 28.4 37.1H27.1C26.9 37.1 26.7 37.2 26.6 37.4L19.5 54.6C19.2 55.4 18.3 55.7 17.5 55.4C16.7 55.1 16.4 54.2 16.7 53.4L24.2 35.3C24.2 35.2 24.2 35.2 24.2 35.1V34H31.2V35.1C31.2 35.2 31.2 35.2 31.2 35.3L38.7 53.4C39 54.2 38.7 55 37.9 55.4C37.2 55.8 36.2999 55.4 36 54.6ZM14.2 21.6C14.2 20.8 14.9 20.1 15.7 20.1H23.7C24.5 20.1 25.2 20.8 25.2 21.6C25.2 22.4 24.5 23.1 23.7 23.1H15.7C14.9 23.1 14.2 22.4 14.2 21.6ZM31.7 23.1C31.4 23.1 31.2 23.3 31.2 23.6V33.1H24.2V24C25.3 23.8 26.2 22.8 26.2 21.6C26.2 21 26 20.5 25.7 20.1H45.7C45.4 20.5 45.2 21 45.2 21.6C45.2 22.2 45.4 22.7 45.7 23.1H31.7Z" fill="black"/>
</svg>
