<svg width="63" height="63" viewBox="0 0 63 63" fill="none" xmlns="http://www.w3.org/2000/svg">
<path d="M21.7 44.2C22.6 44.2 23.5 43.8 24.2 43.2C24.9 42.6 25.2 41.7 25.2 40.7C25.2 39.8 24.8 38.9 24.2 38.2C22.8 36.8 20.6 36.8 19.3 38.2C17.9 39.6 17.9 41.8 19.3 43.1C19.9 43.8 20.8 44.2 21.7 44.2ZM20 38.9C20.5 38.4 21.1 38.2 21.8 38.2C22.5 38.2 23.1 38.4 23.6 38.9C24.1 39.4 24.3 40 24.3 40.7C24.3 41.4 24 42 23.6 42.5C22.7 43.4 21 43.4 20.1 42.5C19 41.5 19 39.9 20 38.9Z" fill="black"/>
<path d="M38.3 30.4L53.9001 14.8C54.9001 13.8 54.9001 12.2 53.9001 11.3C52.9001 10.3 51.3001 10.3 50.4001 11.3L38 23.7L37.7001 23.4V4.39999C37.7001 2.99999 36.6 1.89999 35.2001 1.89999C33.8001 1.89999 32.7001 2.99999 32.7001 4.39999V23.4L32 24L25.3 30.7L14.3 19.7C13.3 18.7 11.7 18.7 10.8 19.7C9.80005 20.7 9.80005 22.3 10.8 23.2L27 39.6V54H28V39.4C28 39.3 27.9 39.1 27.9 39L11.5 22.6C10.9 22 10.9 21.1 11.5 20.5C12.1 19.9 13 19.9 13.6 20.5L24.9 31.8C25.1 32 25.4 32 25.6 31.8L32.3 25.1L37.2001 30L31.1 36.1C31 36.2 31 36.3 31 36.5V54H32V36.7L38.3 30.4ZM33 24.4L33.5 23.9C33.6 23.8 33.6 23.7 33.6 23.5V4.39999C33.6 3.59999 34.3 2.89999 35.1 2.89999C35.9 2.89999 36.6 3.59999 36.6 4.39999V23.6C36.6 23.7 36.7001 23.9 36.7001 24L37.5 24.8C37.6 24.9 37.7001 24.9 37.9001 24.9C38.1001 24.9 38.2 24.8 38.3 24.8L51.1 12C51.7 11.4 52.6001 11.4 53.2001 12C53.8 12.6 53.8 13.5 53.2001 14.1L38 29.3L33 24.4Z" fill="black"/>
<path d="M32 54H31H28H27H11.5C9 54 7 56.1 7 58.5V63H8V58.5C8 56.6 9.6 55 11.5 55H27.5H31.5H63V54H32Z" fill="#FCB019"/>
</svg>
