<svg width="63" height="63" viewBox="0 0 63 63" fill="none" xmlns="http://www.w3.org/2000/svg">
<g clip-path="url(#clip0_323_21420)">
<path d="M32.7 24.2C33.7 23.2 33.7 21.6 32.7 20.7L25.6 13.6C24.7 12.7 23.3 12.6 22.3 13.4V9.5C22.3 8.1 21.2 7 19.8 7C18.4 7 17.3 8.1 17.3 9.5V30.4C17.6 30.6 18 30.7 18.3 30.8V9.5C18.4 8.7 19 8 19.9 8C20.8 8 21.4 8.7 21.4 9.5V27.5C21.4 27.8 21.6 28 21.9 28H23C23.1 28 23.3 27.9 23.4 27.9L28.5 22.8C28.6 22.7 28.6 22.6 28.6 22.4C28.6 22.2 28.5 22.1 28.5 22L22.8 16.3C22.5 16 22.4 15.6 22.4 15.2C22.4 14.8 22.6 14.4 22.8 14.1C23.4 13.5 24.4 13.5 24.9 14.1L32 21.2C32.6 21.8 32.6 22.7 32 23.3L25.5 30C25.4 30.1 25.4 30.2 25.4 30.4V30.5C25.7 30.7 26.1 30.8 26.4 30.9V30.6L32.7 24.2ZM27.4 22.5L22.8 27H22.3V17.4L27.4 22.5Z" fill="black"/>
<path d="M21.9 47C20 47 18.4 48.6 18.4 50.5C18.4 52.4 20 54 21.9 54C23.8 54 25.4 52.4 25.4 50.5C25.4 48.6 23.8 47 21.9 47ZM21.9 53C20.5 53 19.4 51.9 19.4 50.5C19.4 49.1 20.5 48 21.9 48C23.3 48 24.4 49.1 24.4 50.5C24.4 51.9 23.2 53 21.9 53Z" fill="#7F7C7C"/>
<path d="M14 36.1C13 35.1 11.4 35.1 10.5 36.1L4.89997 41.7C3.99997 42.6 3.79997 44 4.49997 45C4.89997 45.6 5.59997 46 6.29997 46C6.99997 46.1 7.79997 45.8 8.29997 45.3L12.2 41.4L16.1 45.3C16.6 45.8 17.2 46 17.9 46H25.9C26 46 26.1 46 26.1 46H26.2C26.7 45.9 27.2 45.7 27.6 45.3L31.5 41.4L35.4 45.3C35.9 45.8 36.5 46 37.2 46H45.2C45.9 46 46.5 45.7 47 45.3L50.9 41.4L54.7 45.2C55.6 46.1 57 46.2 58 45.5C58.6 45.1 59 44.4 59 43.7C59.1 43 58.8 42.2 58.3 41.7L52.6 36C51.7 35.1 50 35.1 49.1 36L45.7 39.4V31.5C45.5 31.6 45.4 31.6 45.2 31.7C44.7 31.9 44.1 32 43.6 32H44.7V40.7C44.7 40.9 44.8 41.1 45 41.2C45.2 41.3 45.4 41.2 45.5 41.1L49.7 36.9C50.3 36.3 51.3 36.3 51.8 36.9L57.5 42.6C57.8 42.9 58 43.3 57.9 43.8C57.9 44.2 57.6 44.6 57.3 44.9C56.7 45.3 55.9 45.2 55.3 44.7L51.1 40.5C50.9 40.3 50.6 40.3 50.4 40.5L46.2 44.7C45.9 45 45.5 45.1 45.1 45.1H39.1H37.1C36.7 45.1 36.3 44.9 36 44.7L31.8 40.5C31.7 40.4 31.6 40.4 31.5 40.4C31.4 40.4 31.2 40.5 31.1 40.5L26.9 44.7C26.7 44.8 26.4 45 26 45C25.9 45 25.8 45 25.7 45C25.3 45 24.9 44.7 24.6 44.4C24.2 43.8 24.3 43 24.8 42.4L26.1 41.1L30.4 36.8C30.8 36.4 31.5 36.3 32 36.5C32.2 36.6 32.3 36.7 32.5 36.8L36.7 41H36.8C36.9 41.1 37.1 41.1 37.3 41.1C37.5 41 37.6 40.8 37.6 40.6V40.4V32H43.5C42.7 32 42 31.8 41.3 31.5C41 31.4 40.7 31.2 40.5 31H38.6C38.3 31.2 38 31.4 37.7 31.5C37.5 31.6 37.3 31.7 37.1 31.7C37 31.7 36.9 31.8 36.7 31.8H36.6V39.4L33.2 36C33 35.8 32.7 35.6 32.4 35.5C31.5 35.1 30.4 35.3 29.7 36L26.3 39.4V31.8H26.2C25.6 31.6 25 31.4 24.4 31H22.5C21 32.1 19 32.3 17.3 31.5V39.4L14 36.1ZM17.5 41.1C17.6 41.2 17.9 41.3 18 41.2C18.2 41.1 18.3 40.9 18.3 40.7V32H25.3V40.4L24.1 41.6C23.2 42.5 23.1 43.9 23.8 44.9C23.8 44.9 23.8 44.9 23.8 45H17.8C17.4 45 17 44.8 16.7 44.6L12.5 40.4C12.4 40.3 12.3 40.3 12.1 40.3C11.9 40.3 11.8 40.3 11.7 40.4L7.49997 44.6C7.19997 44.9 6.79997 45.1 6.29997 45C5.89997 45 5.49997 44.7 5.19997 44.4C4.79997 43.8 4.89997 43 5.39997 42.4L11 36.8C11.6 36.2 12.5 36.2 13.1 36.8L17.5 41.1Z" fill="#7F7C7C"/>
<path d="M52 20.7L44.9 13.6C44 12.7 42.6 12.6 41.6 13.4V9.5C41.6 8.1 40.5 7 39.1 7C37.7 7 36.6 8.1 36.6 9.5V30.8C36.9 30.7 37.3 30.6 37.6 30.4V9.5C37.6 8.7 38.3 8 39.1 8C39.9 8 40.6 8.7 40.6 9.5V15.3V27.4C40.6 27.7 40.8 27.9 41.1 27.9H42.3C42.4 27.9 42.6 27.8 42.7 27.8L47.8 22.7C47.9 22.6 47.9 22.5 47.9 22.3C47.9 22.1 47.8 22 47.8 21.9L42.1 16.2C41.8 15.9 41.7 15.6 41.7 15.2C41.7 14.8 41.9 14.4 42.1 14.2C42.7 13.6 43.7 13.6 44.2 14.2L51.3 21.3C51.9 21.9 51.9 22.8 51.3 23.4L44.8 30C44.7 30.1 44.7 30.2 44.7 30.4V30.9C45.2 30.8 45.7 30.5 46.1 30.2L52 24.3C53 23.3 53 21.7 52 20.7ZM46.7 22.5L42.1 27H41.6V17.4L46.7 22.5Z" fill="black"/>
<path d="M41.1 47C39.2 47 37.6 48.6 37.6 50.5C37.6 52.4 39.2 54 41.1 54C43 54 44.6 52.4 44.6 50.5C44.6 48.6 43.1 47 41.1 47ZM41.1 53C39.7 53 38.6 51.9 38.6 50.5C38.6 49.1 39.7 48 41.1 48C42.5 48 43.6 49.1 43.6 50.5C43.6 51.9 42.5 53 41.1 53Z" fill="#7F7C7C"/>
<path d="M62.3 29.9C60.8 31.3 58.1 31.3 56.6 29.9L55.8 29.1C55.6 28.9 55.3 28.9 55.1 29.1L54.3 29.9C52.7 31.4 50.2 31.4 48.6 29.9L47.8 29.1C47.6 28.9 47.3 28.9 47.1 29.1L46.3 29.9C46.2 30 46.1 30 46 30.1C45.6 30.4 45.1 30.7 44.6 30.8C43.2 31.2 41.7 30.9 40.6 29.9L39.8 29.1C39.6 28.9 39.3 28.9 39.1 29.1L38.3 29.9C38.1 30.1 37.8 30.3 37.6 30.4C37.3 30.6 36.9 30.7 36.6 30.8C35.2 31.2 33.7 30.9 32.6 29.9L31.8 29.1C31.6 28.9 31.3 28.9 31.1 29.1L30.3 29.9C29.2 30.9 27.7 31.2 26.3 30.8C26 30.7 25.6 30.6 25.3 30.4C25.1 30.3 24.8 30.1 24.6 29.9L23.8 29.1C23.6 28.9 23.3 28.9 23.1 29.1L22.3 29.9C21.5 30.6 20.5 31 19.5 31C19.1 31 18.7 30.9 18.4 30.8C18.1 30.7 17.7 30.6 17.4 30.4C17.2 30.3 16.9 30.1 16.7 29.9L15.9 29.1C15.7 28.9 15.4 28.9 15.2 29.1L14.4 29.9C12.8 31.4 10.3 31.4 8.7 29.9L7.9 29.1C7.7 28.9 7.4 28.9 7.2 29.1L6.4 29.9C4.8 31.4 2.3 31.4 0.7 29.9L0 29.3V30.7C1.9 32.5 5.1 32.5 7 30.7L7.5 30.3L8 30.7C9.9 32.5 13.1 32.5 15 30.7L15.5 30.3L16 30.7C16.4 31.1 16.9 31.4 17.4 31.6C19.1 32.3 21.1 32.2 22.6 31.1C22.8 31 22.9 30.9 23.1 30.7L23.6 30.3L24.1 30.7C24.3 30.8 24.4 30.9 24.6 31.1C25.1 31.5 25.7 31.8 26.4 31.9H26.5C28.1 32.3 29.9 31.9 31.2 30.7L31.7 30.3L32.2 30.7C33.5 31.9 35.2 32.3 36.9 31.9H37C37.1 31.9 37.3 31.8 37.4 31.8C37.6 31.7 37.8 31.7 38 31.6C38.3 31.5 38.6 31.3 38.9 31.1C39.1 31 39.2 30.9 39.4 30.7L39.9 30.3L40.4 30.7C40.5 30.8 40.7 30.9 40.9 31.1C41.2 31.3 41.4 31.5 41.7 31.6C42.4 31.9 43.1 32.1 43.9 32.1C44.5 32.1 45 32 45.5 31.8C45.7 31.7 45.8 31.7 46 31.6C46.5 31.4 47 31.1 47.4 30.7L47.9 30.3L48.4 30.7C50.3 32.5 53.5 32.5 55.4 30.7L55.9 30.3L56.4 30.7C57.3 31.6 58.6 32.1 59.9 32.1C61.2 32.1 62.5 31.6 63.4 30.7V29.3L62.3 29.9Z" fill="#2A76BC"/>
</g>
<defs>
<clipPath id="clip0_323_21420">
<rect width="63" height="63" fill="white"/>
</clipPath>
</defs>
</svg>
