<svg width="63" height="63" viewBox="0 0 63 63" fill="none" xmlns="http://www.w3.org/2000/svg">
<g clip-path="url(#clip0_323_21398)">
<path d="M29.5 56.1C29.7761 56.1 30 55.8761 30 55.6C30 55.3238 29.7761 55.1 29.5 55.1C29.2239 55.1 29 55.3238 29 55.6C29 55.8761 29.2239 56.1 29.5 56.1Z" fill="#FCB019"/>
<path d="M31 56.1C31.2761 56.1 31.5 55.8761 31.5 55.6C31.5 55.3238 31.2761 55.1 31 55.1C30.7239 55.1 30.5 55.3238 30.5 55.6C30.5 55.8761 30.7239 56.1 31 56.1Z" fill="#FCB019"/>
<path d="M28 56.1C28.2761 56.1 28.5 55.8761 28.5 55.6C28.5 55.3238 28.2761 55.1 28 55.1C27.7239 55.1 27.5 55.3238 27.5 55.6C27.5 55.8761 27.7239 56.1 28 56.1Z" fill="#FCB019"/>
<path d="M23.5 56.1C23.7761 56.1 24 55.8761 24 55.6C24 55.3238 23.7761 55.1 23.5 55.1C23.2239 55.1 23 55.3238 23 55.6C23 55.8761 23.2239 56.1 23.5 56.1Z" fill="#FCB019"/>
<path d="M26.5 56.1C26.7761 56.1 27 55.8761 27 55.6C27 55.3238 26.7761 55.1 26.5 55.1C26.2239 55.1 26 55.3238 26 55.6C26 55.8761 26.2239 56.1 26.5 56.1Z" fill="#FCB019"/>
<path d="M25 55.1C24.7 55.1 24.5 55.3 24.5 55.6C24.5 55.9 24.7 56.1 25 56.1C25.3 56.1 25.5 55.9 25.5 55.6C25.5 55.3 25.3 55.1 25 55.1Z" fill="#FCB019"/>
<path d="M34 55.1C33.7 55.1 33.5 55.3 33.5 55.6C33.5 55.9 33.7 56.1 34 56.1C34.3 56.1 34.5 55.9 34.5 55.6C34.5 55.3 34.2 55.1 34 55.1Z" fill="#FCB019"/>
<path d="M39.8999 56.1C40.176 56.1 40.3999 55.8761 40.3999 55.6C40.3999 55.3238 40.176 55.1 39.8999 55.1C39.6238 55.1 39.3999 55.3238 39.3999 55.6C39.3999 55.8761 39.6238 56.1 39.8999 56.1Z" fill="#FCB019"/>
<path d="M38.3999 56.1C38.676 56.1 38.8999 55.8761 38.8999 55.6C38.8999 55.3238 38.676 55.1 38.3999 55.1C38.1238 55.1 37.8999 55.3238 37.8999 55.6C37.8999 55.8761 38.1238 56.1 38.3999 56.1Z" fill="#FCB019"/>
<path d="M41.3999 56.1C41.676 56.1 41.8999 55.8761 41.8999 55.6C41.8999 55.3238 41.676 55.1 41.3999 55.1C41.1238 55.1 40.8999 55.3238 40.8999 55.6C40.8999 55.8761 41.1238 56.1 41.3999 56.1Z" fill="#FCB019"/>
<path d="M36.8999 56.1C37.176 56.1 37.3999 55.8761 37.3999 55.6C37.3999 55.3238 37.176 55.1 36.8999 55.1C36.6238 55.1 36.3999 55.3238 36.3999 55.6C36.3999 55.8761 36.6238 56.1 36.8999 56.1Z" fill="#FCB019"/>
<path d="M22.1 56.1C22.3761 56.1 22.6 55.8761 22.6 55.6C22.6 55.3238 22.3761 55.1 22.1 55.1C21.8238 55.1 21.6 55.3238 21.6 55.6C21.6 55.8761 21.8238 56.1 22.1 56.1Z" fill="#FCB019"/>
<path d="M32.5 56.1C32.7761 56.1 33 55.8761 33 55.6C33 55.3238 32.7761 55.1 32.5 55.1C32.2239 55.1 32 55.3238 32 55.6C32 55.8761 32.2239 56.1 32.5 56.1Z" fill="#FCB019"/>
<path d="M13.1 56.1C13.3761 56.1 13.6 55.8761 13.6 55.6C13.6 55.3238 13.3761 55.1 13.1 55.1C12.8238 55.1 12.6 55.3238 12.6 55.6C12.6 55.8761 12.8238 56.1 13.1 56.1Z" fill="#FCB019"/>
<path d="M11.6 56.1C11.8761 56.1 12.1 55.8761 12.1 55.6C12.1 55.3238 11.8761 55.1 11.6 55.1C11.3238 55.1 11.1 55.3238 11.1 55.6C11.1 55.8761 11.3238 56.1 11.6 56.1Z" fill="#FCB019"/>
<path d="M10.1 56.1C10.3761 56.1 10.6 55.8761 10.6 55.6C10.6 55.3238 10.3761 55.1 10.1 55.1C9.82383 55.1 9.59998 55.3238 9.59998 55.6C9.59998 55.8761 9.82383 56.1 10.1 56.1Z" fill="#FCB019"/>
<path d="M7.19995 56.1C7.47609 56.1 7.69995 55.8761 7.69995 55.6C7.69995 55.3238 7.47609 55.1 7.19995 55.1C6.92381 55.1 6.69995 55.3238 6.69995 55.6C6.69995 55.8761 6.92381 56.1 7.19995 56.1Z" fill="#FCB019"/>
<path d="M8.69995 56.1C8.97609 56.1 9.19995 55.8761 9.19995 55.6C9.19995 55.3238 8.97609 55.1 8.69995 55.1C8.42381 55.1 8.19995 55.3238 8.19995 55.6C8.19995 55.8761 8.42381 56.1 8.69995 56.1Z" fill="#FCB019"/>
<path d="M2.69995 56.1C2.97609 56.1 3.19995 55.8761 3.19995 55.6C3.19995 55.3238 2.97609 55.1 2.69995 55.1C2.42381 55.1 2.19995 55.3238 2.19995 55.6C2.19995 55.8761 2.42381 56.1 2.69995 56.1Z" fill="#FCB019"/>
<path d="M5.69995 56.1C5.97609 56.1 6.19995 55.8761 6.19995 55.6C6.19995 55.3238 5.97609 55.1 5.69995 55.1C5.42381 55.1 5.19995 55.3238 5.19995 55.6C5.19995 55.8761 5.42381 56.1 5.69995 56.1Z" fill="#FCB019"/>
<path d="M4.19995 56.1C4.47609 56.1 4.69995 55.8761 4.69995 55.6C4.69995 55.3238 4.47609 55.1 4.19995 55.1C3.92381 55.1 3.69995 55.3238 3.69995 55.6C3.69995 55.8761 3.92381 56.1 4.19995 56.1Z" fill="#FCB019"/>
<path d="M16.1 55.1C15.8 55.1 15.6 55.3 15.6 55.6C15.6 55.9 15.8 56.1 16.1 56.1C16.4 56.1 16.6 55.9 16.6 55.6C16.6 55.3 16.4 55.1 16.1 55.1Z" fill="#FCB019"/>
<path d="M17.6 56.1C17.8761 56.1 18.1 55.8761 18.1 55.6C18.1 55.3238 17.8761 55.1 17.6 55.1C17.3238 55.1 17.1 55.3238 17.1 55.6C17.1 55.8761 17.3238 56.1 17.6 56.1Z" fill="#FCB019"/>
<path d="M20.6 56.1C20.8761 56.1 21.1 55.8761 21.1 55.6C21.1 55.3238 20.8761 55.1 20.6 55.1C20.3238 55.1 20.1 55.3238 20.1 55.6C20.1 55.8761 20.3238 56.1 20.6 56.1Z" fill="#FCB019"/>
<path d="M19.1 56.1C19.3761 56.1 19.6 55.8761 19.6 55.6C19.6 55.3238 19.3761 55.1 19.1 55.1C18.8238 55.1 18.6 55.3238 18.6 55.6C18.6 55.8761 18.8238 56.1 19.1 56.1Z" fill="#FCB019"/>
<path d="M14.6 56.1C14.8761 56.1 15.1 55.8761 15.1 55.6C15.1 55.3238 14.8761 55.1 14.6 55.1C14.3238 55.1 14.1 55.3238 14.1 55.6C14.1 55.8761 14.3238 56.1 14.6 56.1Z" fill="#FCB019"/>
<path d="M42.8999 56.1C43.176 56.1 43.3999 55.8761 43.3999 55.6C43.3999 55.3238 43.176 55.1 42.8999 55.1C42.6238 55.1 42.3999 55.3238 42.3999 55.6C42.3999 55.8761 42.6238 56.1 42.8999 56.1Z" fill="#FCB019"/>
<path d="M1.19995 56.1C1.47609 56.1 1.69995 55.8761 1.69995 55.6C1.69995 55.3238 1.47609 55.1 1.19995 55.1C0.923809 55.1 0.699951 55.3238 0.699951 55.6C0.699951 55.8761 0.923809 56.1 1.19995 56.1Z" fill="#FCB019"/>
<path d="M35.3999 56.1C35.676 56.1 35.8999 55.8761 35.8999 55.6C35.8999 55.3238 35.676 55.1 35.3999 55.1C35.1238 55.1 34.8999 55.3238 34.8999 55.6C34.8999 55.8761 35.1238 56.1 35.3999 56.1Z" fill="#FCB019"/>
<path d="M62.2 56.1C62.4761 56.1 62.7 55.8761 62.7 55.6C62.7 55.3238 62.4761 55.1 62.2 55.1C61.9238 55.1 61.7 55.3238 61.7 55.6C61.7 55.8761 61.9238 56.1 62.2 56.1Z" fill="#FCB019"/>
<path d="M54.7999 56.1C55.0761 56.1 55.2999 55.8761 55.2999 55.6C55.2999 55.3238 55.0761 55.1 54.7999 55.1C54.5238 55.1 54.2999 55.3238 54.2999 55.6C54.2999 55.8761 54.5238 56.1 54.7999 56.1Z" fill="#FCB019"/>
<path d="M57.7999 56.1C58.0761 56.1 58.2999 55.8761 58.2999 55.6C58.2999 55.3238 58.0761 55.1 57.7999 55.1C57.5238 55.1 57.2999 55.3238 57.2999 55.6C57.2999 55.8761 57.5238 56.1 57.7999 56.1Z" fill="#FCB019"/>
<path d="M56.2999 56.1C56.5761 56.1 56.7999 55.8761 56.7999 55.6C56.7999 55.3238 56.5761 55.1 56.2999 55.1C56.0238 55.1 55.7999 55.3238 55.7999 55.6C55.7999 55.8761 56.0238 56.1 56.2999 56.1Z" fill="#FCB019"/>
<path d="M59.2999 56.1C59.5761 56.1 59.7999 55.8761 59.7999 55.6C59.7999 55.3238 59.5761 55.1 59.2999 55.1C59.0238 55.1 58.7999 55.3238 58.7999 55.6C58.7999 55.8761 59.0238 56.1 59.2999 56.1Z" fill="#FCB019"/>
<path d="M60.7999 56.1C61.0761 56.1 61.2999 55.8761 61.2999 55.6C61.2999 55.3238 61.0761 55.1 60.7999 55.1C60.5238 55.1 60.2999 55.3238 60.2999 55.6C60.2999 55.8761 60.5238 56.1 60.7999 56.1Z" fill="#FCB019"/>
<path d="M44.3999 56.1C44.676 56.1 44.8999 55.8761 44.8999 55.6C44.8999 55.3238 44.676 55.1 44.3999 55.1C44.1238 55.1 43.8999 55.3238 43.8999 55.6C43.8999 55.8761 44.1238 56.1 44.3999 56.1Z" fill="#FCB019"/>
<path d="M53.2999 56.1C53.5761 56.1 53.7999 55.8761 53.7999 55.6C53.7999 55.3238 53.5761 55.1 53.2999 55.1C53.0238 55.1 52.7999 55.3238 52.7999 55.6C52.7999 55.8761 53.0238 56.1 53.2999 56.1Z" fill="#FCB019"/>
<path d="M45.8999 56.1C46.176 56.1 46.3999 55.8761 46.3999 55.6C46.3999 55.3238 46.176 55.1 45.8999 55.1C45.6238 55.1 45.3999 55.3238 45.3999 55.6C45.3999 55.8761 45.6238 56.1 45.8999 56.1Z" fill="#FCB019"/>
<path d="M48.7999 56.1C49.0761 56.1 49.2999 55.8761 49.2999 55.6C49.2999 55.3238 49.0761 55.1 48.7999 55.1C48.5238 55.1 48.2999 55.3238 48.2999 55.6C48.2999 55.8761 48.5238 56.1 48.7999 56.1Z" fill="#FCB019"/>
<path d="M47.3999 56.1C47.676 56.1 47.8999 55.8761 47.8999 55.6C47.8999 55.3238 47.676 55.1 47.3999 55.1C47.1238 55.1 46.8999 55.3238 46.8999 55.6C46.8999 55.8761 47.1238 56.1 47.3999 56.1Z" fill="#FCB019"/>
<path d="M50.2999 56.1C50.5761 56.1 50.7999 55.8761 50.7999 55.6C50.7999 55.3238 50.5761 55.1 50.2999 55.1C50.0238 55.1 49.7999 55.3238 49.7999 55.6C49.7999 55.8761 50.0238 56.1 50.2999 56.1Z" fill="#FCB019"/>
<path d="M51.7999 56.1C52.0761 56.1 52.2999 55.8761 52.2999 55.6C52.2999 55.3238 52.0761 55.1 51.7999 55.1C51.5238 55.1 51.2999 55.3238 51.2999 55.6C51.2999 55.8761 51.5238 56.1 51.7999 56.1Z" fill="#FCB019"/>
<path d="M31.7 16C33.6 16 35.2 14.4 35.2 12.5C35.2 10.6 33.7 9 31.7 9C29.7 9 28.2 10.6 28.2 12.5C28.2 14.4 29.8 16 31.7 16ZM31.7 10C33.1 10 34.2 11.1 34.2 12.5C34.2 13.9 33.1 15 31.7 15C30.3 15 29.2 13.9 29.2 12.5C29.2 11.1 30.3 10 31.7 10Z" fill="black"/>
<path d="M51.7 17H22.2V11.5C22.2 11.3 22.2 11.2 22.1 11C21.8 11.3 21.5 11.5 21.2 11.7V17.6C21.2 17.7 21.3 17.9 21.3 18C21.3 18.1 21.5 18.1 21.7 18.1H51.7C52.5 18.1 53.2 18.8 53.2 19.6C53.2 20.4 52.6 21 51.7 21H35.7C35.4 21 35.2 21.2 35.2 21.5V31H28.2V21.5C28.2 21.2 28 21 27.7 21H19.7C18.9 21 18.2 20.3 18.2 19.5V11.6C17.8 11.4 17.5 11.2 17.3 10.9C17.3 11.1 17.2 11.2 17.2 11.4V19.4C17.2 20.8 18.3 21.9 19.7 21.9H27.2V31.4V32.4L13.8 45.9C13.3 46.4 13.1 47 13.1 47.7C13.1 48.4 13.4 49 13.8 49.5C14.3 50 14.9 50.2 15.6 50.2C16.3 50.2 16.9 49.9 17.4 49.5L30.8 36H32.1L34.3 41.4L27.4 44.3C26.8 44.6 26.3 45 26 45.7C25.7 46.3 25.7 47 26 47.6C26.5 48.9 28 49.5 29.3 49L38.5 45.2C39.8 44.7 40.4 43.2 39.9 41.9L36.2 33V31.5V22H51.7C53.1 22 54.2 20.9 54.2 19.5C54.2 18.1 53.1 17 51.7 17ZM38.9 42.2C39.1 42.6 39.1 43 38.9 43.3C38.7 43.7 38.5 44 38.1 44.1L28.9 48C28.1 48.3 27.3 48 26.9 47.2C26.7 46.8 26.7 46.4 26.9 46.1C27.1 45.7 27.3 45.4 27.7 45.3L35.1 42.2C35.2 42.1 35.3 42.1 35.4 41.9C35.5 41.7 35.5 41.6 35.4 41.5L32.8 35.3C32.7 35.1 32.5 35 32.3 35H30.5C30.4 35 30.2 35.1 30.1 35.1L16.6 48.7C16 49.3 15 49.3 14.5 48.7C14.2 48.4 14.1 48 14.1 47.6C14.1 47.2 14.3 46.8 14.5 46.5L28.1 32.9C28.2 32.8 28.2 32.7 28.2 32.5V32H35.2V33.1C35.2 33.2 35.2 33.2 35.2 33.3L38.9 42.2Z" fill="black"/>
<path d="M19.7 12C20.2 12 20.7 11.9 21.2 11.6C21.6 11.4 21.9 11.2 22.1 10.9C22.7 10.3 23.2 9.39999 23.2 8.39999C23.2 6.49999 21.6 4.89999 19.7 4.89999C17.8 4.89999 16.2 6.49999 16.2 8.39999C16.2 9.39999 16.5999 10.3 17.2999 10.9C17.5999 11.2 17.9 11.4 18.2 11.6C18.7 11.9 19.2 12 19.7 12ZM17.7 9.99999C17.4 9.59999 17.2 9.09999 17.2 8.49999C17.2 7.09999 18.3 5.99999 19.7 5.99999C21.1 5.99999 22.2 7.09999 22.2 8.49999C22.2 9.09999 22 9.59999 21.7 9.99999C21.5 10.3 21.2 10.5 21 10.7C20.6 10.9 20.1999 11 19.7999 11C19.3999 11 18.9 10.9 18.6 10.7C18.2 10.5 17.9 10.3 17.7 9.99999Z" fill="#EE2B2F"/>
</g>
<defs>
<clipPath id="clip0_323_21398">
<rect width="63" height="63" fill="white"/>
</clipPath>
</defs>
</svg>
