<svg width="63" height="63" viewBox="0 0 63 63" fill="none" xmlns="http://www.w3.org/2000/svg">
<path d="M1.49995 52.7C1.39995 52.7 1.39995 52.8 1.29995 52.8C1.19995 52.8 1.19995 52.9 1.19995 53C1.19995 53.1 1.19995 53.1 1.19995 53.2C1.19995 53.3 1.29995 53.5 1.39995 53.5C1.39995 53.6 1.49995 53.6 1.59995 53.6C1.69995 53.6 1.69995 53.6 1.79995 53.6C1.89995 53.6 2.09995 53.5 2.19995 53.4C2.29995 53.3 2.29995 53.2 2.29995 53.1C2.29995 53 2.29995 52.8 2.19995 52.7C1.89995 52.7 1.69995 52.6 1.49995 52.7Z" fill="#FCB019"/>
<path d="M3.89995 52.7C3.69995 52.6 3.49995 52.7 3.39995 52.8C3.29995 52.9 3.19995 53 3.19995 53.2C3.19995 53.3 3.19995 53.3 3.19995 53.4C3.19995 53.5 3.29995 53.5 3.29995 53.6C3.39995 53.7 3.49995 53.7 3.59995 53.7C3.69995 53.7 3.69995 53.7 3.79995 53.7C3.89995 53.7 3.89995 53.6 3.99995 53.6C3.99995 53.5 4.09995 53.5 4.09995 53.4C4.09995 53.3 4.09995 53.3 4.09995 53.2C4.09995 53.1 4.09995 52.9 3.99995 52.8C3.99995 52.7 3.99995 52.7 3.89995 52.7Z" fill="#FCB019"/>
<path d="M5.49995 52.7C5.39995 52.7 5.39995 52.8 5.29995 52.8C5.19995 52.8 5.19995 52.9 5.19995 53C5.19995 53.1 5.19995 53.1 5.19995 53.2C5.19995 53.3 5.29995 53.5 5.39995 53.5C5.39995 53.6 5.49995 53.6 5.59995 53.6C5.69995 53.6 5.69995 53.6 5.79995 53.6C5.89995 53.6 6.09995 53.5 6.19995 53.4C6.29995 53.3 6.29995 53.2 6.29995 53.1C6.29995 53 6.29995 52.8 6.19995 52.7C5.89995 52.7 5.69995 52.6 5.49995 52.7Z" fill="#FCB019"/>
<path d="M8.09993 52.8C7.89993 52.6 7.59993 52.6 7.39993 52.8C7.29993 52.8 7.29993 52.9 7.29993 53C7.29993 53.1 7.29993 53.1 7.29993 53.2C7.29993 53.3 7.39993 53.5 7.49993 53.5C7.59993 53.6 7.69993 53.7 7.79993 53.7C7.89993 53.7 8.09993 53.6 8.19993 53.5C8.29993 53.4 8.29993 53.3 8.29993 53.2C8.29993 53.1 8.29993 53.1 8.29993 53C8.19993 52.9 8.09993 52.8 8.09993 52.8Z" fill="#FCB019"/>
<path d="M9.89995 52.7C9.69995 52.6 9.49995 52.7 9.39995 52.8C9.29995 52.9 9.19995 53 9.19995 53.2C9.19995 53.3 9.29995 53.5 9.39995 53.5C9.49995 53.6 9.59995 53.7 9.69995 53.7C9.79995 53.7 9.79995 53.7 9.89995 53.7C9.99995 53.7 9.99995 53.6 10.1 53.6C10.2 53.5 10.2 53.4 10.2 53.3C10.2 53.2 10.2 53 10.1 52.9C9.99995 52.7 9.99995 52.7 9.89995 52.7Z" fill="#FCB019"/>
<path d="M11.5 52.7C11.4 52.7 11.4 52.8 11.3 52.8C11.2 52.9 11.1 53 11.1 53.2C11.1 53.3 11.2 53.5 11.3 53.5C11.4 53.6 11.5 53.7 11.6 53.7C11.7 53.7 11.9 53.6 12 53.5C12.1 53.4 12.1 53.3 12.1 53.2C12.1 53.1 12.1 52.9 12 52.8C11.9 52.7 11.7 52.6 11.5 52.7Z" fill="#FCB019"/>
<path d="M13.4 52.8C13.3 52.9 13.2 53 13.2 53.2C13.2 53.3 13.2 53.3 13.2 53.4C13.2 53.5 13.3 53.5 13.3 53.6C13.4 53.7 13.5 53.8 13.6 53.8C13.7 53.8 13.9 53.7 14 53.6C14.1 53.5 14.1 53.4 14.1 53.3C14.1 53.2 14.1 53 14 52.9C13.9 52.6 13.6 52.6 13.4 52.8Z" fill="#FCB019"/>
<path d="M16.1 52.8C15.9 52.6 15.6 52.6 15.4 52.8C15.3 52.9 15.2 53 15.2 53.2C15.2 53.3 15.3 53.5 15.4 53.6C15.5 53.7 15.6 53.7 15.7 53.7C15.8 53.7 16 53.6 16.1 53.6C16.2 53.5 16.2 53.4 16.2 53.2C16.2 53.1 16.2 53.1 16.2 53C16.2 52.9 16.1 52.8 16.1 52.8Z" fill="#FCB019"/>
<path d="M17.4 52.8C17.3 52.9 17.2 53 17.2 53.2C17.2 53.3 17.3 53.5 17.4 53.5C17.5 53.6 17.6 53.7 17.7 53.7C17.8 53.7 18 53.6 18.1 53.5C18.2 53.4 18.2 53.3 18.2 53.2C18.2 53.1 18.2 52.9 18.1 52.8C17.9 52.6 17.6 52.6 17.4 52.8Z" fill="#FCB019"/>
<path d="M20.0999 52.8C19.9999 52.7 19.6999 52.6 19.5999 52.7C19.4999 52.7 19.4999 52.8 19.3999 52.8C19.2999 52.8 19.2999 52.9 19.2999 53C19.2999 53.1 19.2999 53.1 19.2999 53.2C19.2999 53.3 19.3999 53.5 19.4999 53.5C19.4999 53.6 19.5999 53.6 19.6999 53.6C19.7999 53.6 19.7999 53.6 19.8999 53.6C19.9999 53.6 20.1999 53.5 20.2999 53.4C20.3999 53.3 20.3999 53.2 20.3999 53.1C20.3999 53 20.3999 53 20.3999 52.9C20.1999 52.9 20.0999 52.8 20.0999 52.8Z" fill="#FCB019"/>
<path d="M22.0999 52.8C21.8999 52.6 21.5999 52.6 21.3999 52.8C21.2999 52.8 21.2999 52.9 21.2999 53C21.2999 53.1 21.2999 53.1 21.2999 53.2C21.2999 53.3 21.3999 53.5 21.4999 53.5C21.5999 53.6 21.6999 53.7 21.7999 53.7C21.8999 53.7 22.0999 53.6 22.1999 53.5C22.2999 53.4 22.2999 53.3 22.2999 53.2C22.2999 53.1 22.2999 53.1 22.2999 53C22.1999 52.9 22.0999 52.8 22.0999 52.8Z" fill="#FCB019"/>
<path d="M23.5 52.7C23.4 52.7 23.4 52.8 23.3 52.8C23.2 52.9 23.1 53 23.1 53.2C23.1 53.3 23.2 53.5 23.3 53.5C23.3 53.6 23.4 53.6 23.5 53.6C23.6 53.6 23.6 53.6 23.7 53.6C23.8 53.6 24 53.5 24.1 53.4C24.2 53.3 24.2 53.2 24.2 53.1C24.2 53 24.2 52.8 24.1 52.7C23.9 52.7 23.7 52.6 23.5 52.7Z" fill="#FCB019"/>
<path d="M25.5 52.7C25.4 52.7 25.4 52.8 25.3 52.8C25.2 52.9 25.1 53 25.1 53.2C25.1 53.3 25.2 53.5 25.3 53.5C25.3 53.6 25.4 53.6 25.5 53.6C25.6 53.6 25.6 53.6 25.7 53.6C25.8 53.6 26 53.5 26.1 53.4C26.2 53.3 26.2 53.2 26.2 53.1C26.2 53 26.2 52.8 26.1 52.7C25.9 52.7 25.7 52.6 25.5 52.7Z" fill="#FCB019"/>
<path d="M28.1 52.8C28 52.7 27.7 52.6 27.5 52.7C27.4 52.7 27.3999 52.8 27.2999 52.8C27.1999 52.8 27.2 52.9 27.2 53C27.2 53.1 27.2 53.1 27.2 53.2C27.2 53.3 27.3 53.5 27.4 53.6C27.4 53.6 27.5 53.7 27.6 53.7C27.7 53.7 27.6999 53.7 27.7999 53.7C27.8999 53.7 28.1 53.6 28.2 53.6C28.3 53.5 28.2999 53.4 28.2999 53.2C28.2999 53.1 28.2999 53.1 28.2999 53C28.1999 52.9 28.1 52.8 28.1 52.8Z" fill="#FCB019"/>
<path d="M30.0999 52.8C29.9999 52.7 29.9999 52.7 29.8999 52.7C29.6999 52.6 29.4999 52.7 29.3999 52.8C29.2999 52.8 29.2999 52.9 29.2999 53C29.2999 53.1 29.2999 53.1 29.2999 53.2C29.2999 53.3 29.3999 53.5 29.4999 53.5C29.4999 53.6 29.5999 53.6 29.6999 53.6C29.7999 53.6 29.7999 53.6 29.8999 53.6C29.9999 53.6 30.1999 53.5 30.2999 53.4C30.3999 53.3 30.3999 53.2 30.3999 53.1C30.3999 53 30.3999 53 30.3999 52.9C30.1999 52.9 30.0999 52.8 30.0999 52.8Z" fill="#FCB019"/>
<path d="M31.4 52.8C31.3 52.9 31.2 53 31.2 53.2C31.2 53.3 31.3 53.5 31.4 53.6C31.5 53.7 31.6 53.7 31.7 53.7C31.8 53.7 31.9999 53.6 32.0999 53.6C32.1999 53.5 32.2 53.4 32.2 53.2C32.2 53.1 32.1999 52.9 32.0999 52.8C31.8999 52.6 31.6 52.6 31.4 52.8Z" fill="#FCB019"/>
<path d="M33.4 52.8C33.3 52.9 33.2 53 33.2 53.2C33.2 53.3 33.3 53.5 33.4 53.6C33.5 53.7 33.6 53.7 33.7 53.7C33.8 53.7 33.9999 53.6 34.0999 53.6C34.1999 53.5 34.2 53.4 34.2 53.2C34.2 53.1 34.1999 52.9 34.0999 52.8C33.8999 52.6 33.6 52.6 33.4 52.8Z" fill="#FCB019"/>
<path d="M35.4 52.8C35.3 52.9 35.2 53 35.2 53.2C35.2 53.3 35.3 53.5 35.4 53.6C35.5 53.7 35.6 53.7 35.7 53.7C35.8 53.7 35.9999 53.6 36.0999 53.6C36.1999 53.5 36.2 53.4 36.2 53.2C36.2 53.1 36.1999 52.9 36.0999 52.8C35.8999 52.6 35.6 52.6 35.4 52.8Z" fill="#FCB019"/>
<path d="M37.4 52.8C37.3 52.9 37.2 53 37.2 53.2C37.2 53.3 37.3 53.5 37.4 53.6C37.5 53.7 37.6 53.7 37.7 53.7C37.8 53.7 37.9999 53.6 38.0999 53.6C38.1999 53.5 38.2 53.4 38.2 53.2C38.2 53.1 38.1999 52.9 38.0999 52.8C37.8999 52.6 37.6 52.6 37.4 52.8Z" fill="#FCB019"/>
<path d="M39.4 52.8C39.3 52.9 39.2 53 39.2 53.2C39.2 53.3 39.3 53.5 39.4 53.5C39.5 53.6 39.6 53.7 39.7 53.7C39.8 53.7 39.9999 53.6 40.0999 53.5C40.1999 53.4 40.2 53.3 40.2 53.2C40.2 53.1 40.1999 52.9 40.0999 52.8C39.8999 52.6 39.6 52.6 39.4 52.8Z" fill="#FCB019"/>
<path d="M41.4 52.8C41.3 52.9 41.2 53 41.2 53.2C41.2 53.3 41.3 53.5 41.4 53.6C41.5 53.7 41.6 53.7 41.7 53.7C41.8 53.7 41.9999 53.6 42.0999 53.6C42.1999 53.5 42.2 53.4 42.2 53.2C42.2 53.1 42.1999 52.9 42.0999 52.8C41.8999 52.6 41.6 52.6 41.4 52.8Z" fill="#FCB019"/>
<path d="M43.4 52.8C43.3 52.9 43.2 53 43.2 53.2C43.2 53.3 43.3 53.5 43.4 53.6C43.5 53.7 43.6 53.7 43.7 53.7C43.8 53.7 43.9999 53.6 44.0999 53.6C44.1999 53.5 44.2 53.4 44.2 53.2C44.2 53.1 44.1999 52.9 44.0999 52.8C43.8999 52.6 43.6 52.6 43.4 52.8Z" fill="#FCB019"/>
<path d="M45.4 52.8C45.3 52.9 45.2 53 45.2 53.2C45.2 53.3 45.3 53.5 45.4 53.5C45.5 53.6 45.6 53.7 45.7 53.7C45.8 53.7 45.9999 53.6 46.0999 53.5C46.1999 53.4 46.2 53.3 46.2 53.2C46.2 53.1 46.1999 52.9 46.0999 52.8C45.8999 52.6 45.6 52.6 45.4 52.8Z" fill="#FCB019"/>
<path d="M47.9 52.7C47.7 52.6 47.5 52.7 47.4 52.8C47.3 52.9 47.2 53 47.2 53.2C47.2 53.3 47.3 53.5 47.4 53.5C47.5 53.6 47.6 53.7 47.7 53.7C47.8 53.7 47.8 53.7 47.9 53.7C48 53.7 47.9999 53.6 48.0999 53.6C48.1999 53.5 48.2 53.4 48.2 53.3C48.2 53.2 48.1999 53 48.0999 52.9C47.9999 52.7 48 52.7 47.9 52.7Z" fill="#FCB019"/>
<path d="M49.5 52.7C49.4 52.7 49.4 52.8 49.3 52.8C49.2 52.9 49.1 53 49.1 53.2C49.1 53.3 49.2 53.5 49.3 53.5C49.3 53.6 49.4 53.6 49.5 53.6C49.6 53.6 49.6 53.6 49.7 53.6C49.8 53.6 50 53.5 50.1 53.4C50.2 53.3 50.2 53.2 50.2 53.1C50.2 53 50.2 52.8 50.1 52.7C49.9 52.7 49.7 52.6 49.5 52.7Z" fill="#FCB019"/>
<path d="M51.9 52.7C51.7 52.6 51.5 52.7 51.4 52.8C51.3 52.9 51.2 53 51.2 53.2C51.2 53.3 51.3 53.5 51.4 53.6C51.5 53.7 51.6 53.7 51.7 53.7C51.8 53.7 51.9999 53.6 52.0999 53.6C52.1999 53.5 52.2 53.4 52.2 53.2C52.2 53.1 52.1999 52.9 52.0999 52.8C51.9999 52.7 52 52.7 51.9 52.7Z" fill="#FCB019"/>
<path d="M54.0999 52.8C53.8999 52.6 53.5999 52.6 53.3999 52.8C53.2999 52.8 53.2999 52.9 53.2999 53C53.2999 53.1 53.2999 53.1 53.2999 53.2C53.2999 53.3 53.3999 53.5 53.4999 53.5C53.5999 53.6 53.6999 53.7 53.7999 53.7C53.8999 53.7 54.0999 53.6 54.1999 53.5C54.2999 53.4 54.2999 53.3 54.2999 53.2C54.2999 53.1 54.2999 53.1 54.2999 53C54.1999 52.9 54.0999 52.8 54.0999 52.8Z" fill="#FCB019"/>
<path d="M55.4 52.8C55.3 52.9 55.2 53 55.2 53.2C55.2 53.3 55.3 53.5 55.4 53.5C55.5 53.6 55.6 53.7 55.7 53.7C55.8 53.7 55.9999 53.6 56.0999 53.5C56.1999 53.4 56.2 53.3 56.2 53.2C56.2 53.1 56.1999 52.9 56.0999 52.8C55.8999 52.6 55.6 52.6 55.4 52.8Z" fill="#FCB019"/>
<path d="M57.4 52.8C57.3 52.9 57.2 53 57.2 53.2C57.2 53.3 57.3 53.5 57.4 53.6C57.5 53.7 57.6 53.7 57.7 53.7C57.8 53.7 57.8 53.7 57.9 53.7C58 53.7 57.9999 53.6 58.0999 53.6C58.1999 53.5 58.2 53.4 58.2 53.2C58.2 53.1 58.1999 52.9 58.0999 52.8C57.8999 52.6 57.6 52.6 57.4 52.8Z" fill="#FCB019"/>
<path d="M59.9 52.7C59.7 52.6 59.5 52.7 59.4 52.8C59.3 52.9 59.2 53 59.2 53.2C59.2 53.3 59.2 53.3 59.2 53.4C59.2 53.5 59.2999 53.5 59.2999 53.6C59.3999 53.7 59.4999 53.7 59.5999 53.7C59.6999 53.7 59.6999 53.7 59.7999 53.7C59.8999 53.7 59.9 53.6 60 53.6C60.1 53.5 60.0999 53.5 60.0999 53.4C60.0999 53.3 60.0999 53.3 60.0999 53.2C60.0999 53.1 60.1 52.9 60 52.8C60 52.7 60 52.7 59.9 52.7Z" fill="#FCB019"/>
<path d="M61.9 52.7C61.7 52.6 61.5 52.7 61.4 52.8C61.3 52.9 61.2 53 61.2 53.2C61.2 53.3 61.2 53.3 61.2 53.4C61.2 53.5 61.2999 53.5 61.2999 53.6C61.3999 53.7 61.4999 53.7 61.5999 53.7C61.6999 53.7 61.6999 53.7 61.7999 53.7C61.8999 53.7 61.9 53.6 62 53.6C62.1 53.5 62.0999 53.5 62.0999 53.4C62.0999 53.3 62.0999 53.3 62.0999 53.2C62.0999 53.1 62.1 52.9 62 52.8C62 52.7 62 52.7 61.9 52.7Z" fill="#FCB019"/>
<path d="M42.2999 36.7C44.1999 36.7 45.7999 35.1 45.7999 33.2C45.7999 31.3 44.1999 29.7 42.2999 29.7C40.3999 29.7 38.7999 31.3 38.7999 33.2C38.7999 35.1 40.2999 36.7 42.2999 36.7ZM42.2999 30.7C43.6999 30.7 44.7999 31.8 44.7999 33.2C44.7999 34.6 43.6999 35.7 42.2999 35.7C40.8999 35.7 39.7999 34.6 39.7999 33.2C39.7999 31.8 40.8999 30.7 42.2999 30.7Z" fill="black"/>
<path d="M55.0999 37.4C53.6999 36 51.4999 36 50.1999 37.4C48.7999 38.8 48.7999 41 50.1999 42.3C50.8999 43 51.6999 43.3 52.6999 43.3C53.5999 43.3 54.4999 42.9 55.1999 42.3C55.8999 41.7 56.1999 40.8 56.1999 39.8C56.0999 39 55.7999 38.1 55.0999 37.4ZM54.3999 41.7C53.4999 42.6 51.7999 42.6 50.8999 41.7C49.8999 40.7 49.8999 39.1 50.8999 38.2C51.3999 37.7 51.9999 37.5 52.6999 37.5C53.3999 37.5 53.9999 37.7 54.4999 38.2C54.9999 38.7 55.1999 39.3 55.1999 40C55.0999 40.6 54.8999 41.2 54.3999 41.7Z" fill="#00A64F"/>
<path d="M47.1999 43.2L40.7999 40.5C40.4999 39.7 39.0999 36.6 38.1999 34.1C37.7999 33.2 37.1999 32.6 36.2999 32.2L26.0999 28L24.2999 27.3L21.7999 21.3L25.1999 13C25.4999 12.4 25.4999 11.7 25.1999 11.1C24.8999 10.5 24.4999 10 23.7999 9.80001C23.1999 9.50001 22.4999 9.50001 21.8999 9.80001C21.2999 10.1 20.7999 10.5 20.4999 11.2L16.6999 20.4C16.3999 21 16.3999 21.7 16.6999 22.3L18.1999 26L15.4999 24.9L12.0999 16.6C11.5999 15.3 10.0999 14.7 8.79993 15.2C8.19993 15.5 7.69993 15.9 7.39993 16.6C7.09993 17.2 7.09993 17.9 7.39993 18.5L11.1999 27.7C11.4999 28.3 11.8999 28.8 12.5999 29.1L20.9999 32.6C21.4999 33.5 22.2999 34.2 23.2999 34.7L33.4999 38.9C33.8999 39.1 34.2999 39.1 34.6999 39.2L36.5999 43.7C36.8999 44.3 37.2999 44.8 37.9999 45.1L45.3999 48.2C45.6999 48.3 45.9999 48.4 46.3999 48.4C47.3999 48.4 48.2999 47.8 48.6999 46.9C48.9999 46.3 48.9999 45.6 48.6999 45C48.2999 44 47.7999 43.5 47.1999 43.2ZM45.6999 46.9L38.2999 43.8C37.8999 43.6 37.5999 43.4 37.4999 43L35.7999 38.8L35.5999 38.3L35.3999 37.8L34.7999 36.5C34.6999 36.4 34.5999 36.3 34.4999 36.2C34.3999 36.1 34.1999 36.1 34.0999 36.2C33.7999 36.3 33.6999 36.6 33.7999 36.9L34.1999 37.8C34.0999 37.8 33.9999 37.7 33.8999 37.7L24.1999 33.7L25.0999 31.4V31.3L25.9999 29L35.6999 33C36.2999 33.3 36.7999 33.7 36.9999 34.3C37.1999 34.8 37.3999 35.4 37.5999 35.9C37.6999 36.1 37.7999 36.4 37.8999 36.6C38.7999 38.8 39.6999 40.9 39.6999 40.9C39.7999 41 39.7999 41.1 39.9999 41.2L46.5999 43.9C46.9999 44.1 47.2999 44.3 47.3999 44.7C47.4999 45.1 47.5999 45.5 47.3999 45.8C47.2999 46.9 46.3999 47.2 45.6999 46.9ZM13.0999 28C12.6999 27.8 12.3999 27.6 12.2999 27.2L8.39993 18C8.19993 17.6 8.19993 17.2 8.39993 16.9C8.59993 16.5 8.79993 16.2 9.19993 16.1C9.39993 16 9.59993 16 9.79993 16C9.99993 16 10.1999 16 10.3999 16.1C10.7999 16.3 11.0999 16.5 11.1999 16.9L14.6999 25.4C14.7999 25.5 14.7999 25.6 14.9999 25.7L18.7999 27.3L20.3999 31.2L13.0999 28ZM22.1999 32.3C21.9999 32.1 21.8999 31.8 21.6999 31.6C21.6999 31.5 21.5999 31.5 21.5999 31.4L20.0999 27.7L19.7999 27L19.4999 26.3L17.5999 21.7C17.3999 21.3 17.3999 20.9 17.5999 20.6L21.3999 11.4C21.5999 11 21.7999 10.7 22.1999 10.6C22.5999 10.4 22.9999 10.5 23.2999 10.6C23.6999 10.8 23.9999 11 24.0999 11.4C24.2999 11.8 24.2999 12.2 24.0999 12.5L20.7999 21C20.7999 21.1 20.7999 21.1 20.7999 21.2C20.7999 21.3 20.7999 21.3 20.7999 21.4L23.3999 27.8C23.4999 27.9 23.4999 28 23.6999 28.1L23.8999 28.2L25.2999 28.8L24.9999 29.2L24.6999 29.8L24.2999 31L24.1999 31.1L23.6999 32.3L23.3999 32.9L23.1999 33.3C22.9999 33.2 22.7999 33.1 22.6999 32.9C22.5999 32.8 22.3999 32.6 22.1999 32.3Z" fill="black"/>
</svg>
