<svg width="63" height="63" viewBox="0 0 63 63" fill="none" xmlns="http://www.w3.org/2000/svg">
<g clip-path="url(#clip0_323_21372)">
<path d="M38.8 39.2C38.1 39.9 37.8 40.7 37.8 41.7C37.8 42.6 38.2 43.5 38.8 44.2C39.5 44.9 40.4 45.2 41.3 45.2C42.2 45.2 43.1 44.9 43.8 44.2C45.2 42.8 45.2 40.6 43.8 39.3C42.4 37.8 40.2 37.8 38.8 39.2ZM43 43.4C42 44.4 40.4 44.4 39.5 43.4C39 42.9 38.8 42.3 38.8 41.6C38.8 40.9 39.1 40.3 39.5 39.8C40 39.3 40.6 39.1 41.3 39.1C41.9 39.1 42.6 39.3 43.1 39.8C44 40.9 44 42.5 43 43.4Z" fill="black"/>
<path d="M52.2 24.3C52.7 23.8 52.9 23.2 52.9 22.5C52.9 21.8 52.6 21.2 52.2 20.7C51.3 19.8 49.6 19.8 48.7 20.7L37.7 31.7L31 25L30.3 24.3V5.3C30.3 3.9 29.2 2.8 27.8 2.8C26.4 2.8 25.3 4 25.3 5.4V24.4L25 24.7L12.6 12.3C11.6 11.3 10 11.3 9.10003 12.3C8.60003 12.8 8.40002 13.4 8.40002 14.1C8.40002 14.8 8.70003 15.4 9.10003 15.9L24.7 31.5L31 37.8V55H32V37.5C32 37.4 31.9 37.2 31.9 37.1L25.8 31L28.3 28.5L30.8 26L37.5 32.7C37.7 32.9 38 32.9 38.2 32.7L49.5 21.4C50.1 20.8 51.1 20.8 51.6 21.4C52.2 22 52.2 22.9 51.6 23.5L35.1 40C35 40.1 35 40.2 35 40.4V55H36V40.6L52.2 24.3ZM9.40002 14.1C9.40002 13.7 9.60002 13.3 9.80002 13C10.4 12.4 11.3 12.4 11.9 13L24.6 25.7C24.8 25.9 25.1 25.9 25.3 25.7L26.1 24.9C26.2 24.8 26.2 24.7 26.2 24.5V5.4C26.2 4.6 26.9 3.9 27.7 3.9C28.5 3.9 29.2 4.6 29.2 5.4V24.6C29.2 24.7 29.3 24.9 29.3 25L29.8 25.5L27.3 28L25 30.3L9.80002 15.1C9.50003 14.9 9.40002 14.5 9.40002 14.1Z" fill="black"/>
<path d="M36 55H35H32H31H0V56H31.5H35.5H63V55H36Z" fill="#EE2B2F"/>
</g>
<defs>
<clipPath id="clip0_323_21372">
<rect width="63" height="63" fill="white"/>
</clipPath>
</defs>
</svg>
