<svg width="63" height="63" viewBox="0 0 63 63" fill="none" xmlns="http://www.w3.org/2000/svg">
<g clip-path="url(#clip0_323_21406)">
<path d="M19.7 42.3C20.1 42.6 20.6 42.8 21.2 42.8H22.8L21 47H22L23.8 42.8H30.5L32.3 47H32.8H33.3L31.3 42.1C31.2 41.9 31 41.8 30.8 41.8H24.2H23.1H22.1H22H21.1C20.7 41.8 20.3 41.6 20 41.4C19.9 41.3 19.7 41.1 19.7 40.9C19.6 40.7 19.6 40.5 19.6 40.4V40.1V40V39H20.1H24.1H24.6H25.1H25.6H32C32.6 39 33.2 39.4 33.4 39.9L36.4 47.2H36.9H37.4L34.2 39.5C33.8 38.6 32.9 38 31.9 38H25.9L28.8 31.1L40.3 35.9C40.5 36 40.6 36 40.8 36C41 36 41.1 36 41.3 36C41.5 36 41.6 36 41.8 35.9C42.6 35.7 43.3 35.2 43.6 34.4C44.1 33.1 43.5 31.7 42.2 31.1L42 30.8L41 30.4L32.9 27L41 23.6V23.5C41.2 23.5 41.5 23.4 41.7 23.3C41.8 23.3 41.9 23.2 42 23.1C42.5 22.8 42.8 22.4 43 21.9C43.3 21.3 43.3 20.6 43 20C42.8 19.5 42.5 19.2 42.1 18.9C42 18.8 41.8 18.7 41.7 18.7C41.5 18.6 41.4 18.6 41.2 18.6C41.1 18.6 41 18.6 40.9 18.6C40.8 18.6 40.8 18.6 40.7 18.6C40.4 18.6 40.1 18.7 39.7 18.8L25 24.9C24.1 25.3 23.5 25.9 23.1 26.8L18.9 37V37.1C18.7 37.5 18.7 37.9 18.7 38.3V40.3C18.7 40.7 18.8 41.1 19 41.5L16.6 47H17.7L19.7 42.3ZM40.1 19.7C40.3 19.6 40.5 19.6 40.7 19.6C40.9 19.6 41.1 19.6 41.3 19.7C41.5 19.8 41.6 19.9 41.7 20C41.8 20.1 41.9 20.3 42 20.5C42.2 20.9 42.2 21.3 42 21.6C42 21.7 41.9 21.7 41.9 21.8C41.7 22.1 41.5 22.3 41.2 22.5C41.1 22.5 41 22.6 40.9 22.6C40.2 22.7 39.5 22.4 39.2 21.7C39 20.9 39.4 20 40.1 19.7ZM38.3 20.5C38.2 21 38.2 21.6 38.4 22.1C38.6 22.6 39 23 39.5 23.3L31.6 26.6L27.7 25L38.3 20.5ZM19.8 37.3L23.6 28.1L23.9 27.3L24 27.2C24.3 26.6 24.7 26.1 25.4 25.8C26 25.5 26.7 25.5 27.3 25.8C27.3 25.8 27.4 25.8 27.4 25.9L28.8 26.5L29.5 26.8L30.2 27.1L30.9 27.4L31.6 27.7L41.1 31.6L42.1 32H42.2C43 32.3 43.3 33.2 43 34C42.8 34.4 42.5 34.7 42.1 34.8C41.8 34.9 41.4 34.9 41.1 34.8H41L29.5 30L29 29.8L28.5 29.6L27.7 29.3L27.1 29H27C26.8 29 26.7 29 26.6 29.2L26.5 29.3C26.4 29.4 26.5 29.6 26.5 29.7C26.6 29.8 26.6 29.9 26.8 29.9L28.2 30.5L25.2 37.8H19.9C19.7 37.7 19.7 37.5 19.8 37.3Z" fill="black"/>
<path d="M39.1 47H37.7H37.2H36.7H33.5H33H32.5H22H21H17.8H16.7H0V48H21.3H37.3H39V47.5C39 47.4 39 47.2 39.1 47Z" fill="#FCB019"/>
<path d="M44 48H63V47H43.9C43.9 47.2 43.9 47.3 43.9 47.5L44 48Z" fill="#FCB019"/>
<path d="M39.5 53C39.6 53 39.7 53 39.8 53.1L40 53.2V47.9V47.4C40 47.2 40 47.1 40.1 46.9C40.3 46.3 40.9 45.9 41.5 45.9C41.9 45.9 42.3 46.1 42.6 46.3C42.8 46.5 42.9 46.7 42.9 46.9C43 47.1 43 47.2 43 47.4V47.9V54.8C43.2 54.8 43.3 54.8 43.5 54.8C43.7 54.8 43.8 54.8 44 54.8V47.9V47.4C44 47.2 44 47.1 44 46.9C43.9 46.4 43.7 46 43.3 45.6C42.9 45.2 42.5 45 42 44.9V35.6C41.8 35.6 41.7 35.7 41.5 35.7C41.3 35.7 41.2 35.7 41 35.7V45C40 45.2 39.2 46 39.1 46.9C39.1 47.1 39.1 47.2 39.1 47.4V47.9V53.2L39.3 53.1C39.3 53.1 39.4 53 39.5 53Z" fill="#00A64F"/>
<path d="M41.7 23.4C41.5 23.5 41.2 23.5 41 23.6V23.7V30.4L42 30.8V23.2C41.9 23.3 41.8 23.4 41.7 23.4Z" fill="#00A64F"/>
<path d="M24.7 22.8C25.1 23 25.6 23.1 26 23.1C26.5 23.1 26.9 23 27.3 22.8C28.2 22.4 28.8 21.8 29.2 20.9C29.6 20 29.6 19.1 29.2 18.2C28.8 17.3 28.2 16.7 27.3 16.3C26.4 15.9 25.5 15.9 24.6 16.3C23.7 16.7 23.1 17.3 22.7 18.2C22.3 19.1 22.3 20 22.7 20.9C23.2 21.8 23.8 22.5 24.7 22.8ZM23.7 18.6C24 18 24.4 17.5 25.1 17.2C25.4 17.1 25.7 17 26.1 17C26.4 17 26.7 17.1 27.1 17.2C27.7 17.5 28.2 17.9 28.5 18.6C28.8 19.2 28.8 19.9 28.5 20.5C28.2 21.1 27.8 21.6 27.1 21.9C26.5 22.2 25.8 22.2 25.2 21.9C24.6 21.6 24.1 21.2 23.8 20.5C23.5 19.9 23.5 19.3 23.7 18.6Z" fill="black"/>
<path d="M63 53.3L62.3 53.9C60.8 55.3 58.1 55.3 56.6 53.9L55.8 53.1C55.6 52.9 55.3 52.9 55.1 53.1L54.3 53.9C52.7 55.4 50.2 55.4 48.6 53.9L47.8 53.1C47.6 52.9 47.3 52.9 47.1 53.1L46.3 53.9C45.7 54.5 44.8 54.8 44 54.9C43.8 54.9 43.7 54.9 43.5 54.9C43.3 54.9 43.2 54.9 43 54.9C42.1 54.8 41.3 54.5 40.7 53.9L40 53.3L39.8 53.2C39.7 53.1 39.6 53.1 39.5 53.1C39.4 53.1 39.3 53.1 39.2 53.2L39 53.3L38.3 53.9C36.7 55.4 34.2 55.4 32.6 53.9L31.8 53.1C31.6 52.9 31.3 52.9 31.1 53.1L30.3 53.9C28.7 55.4 26.2 55.4 24.6 53.9L23.8 53.1C23.6 52.9 23.3 52.9 23.1 53.1L22.3 53.9C20.7 55.4 18.2 55.4 16.6 53.9L15.8 53.1C15.6 52.9 15.3 52.9 15.1 53.1L14.3 53.9C12.7 55.4 10.2 55.4 8.6 53.9L7.8 53.1C7.6 52.9 7.3 52.9 7.1 53.1L6.3 53.9C4.7 55.4 2.2 55.4 0.6 53.9L0 53.3V54.7C1.9 56.5 5.1 56.5 7 54.7L7.5 54.3L8 54.7C9.9 56.5 13.1 56.5 15 54.7L15.5 54.3L16 54.7C17.9 56.5 21.1 56.5 23 54.7L23.5 54.3L24 54.7C25.9 56.5 29.1 56.5 31 54.7L31.5 54.3L32 54.7C33.9 56.5 37.1 56.5 39 54.7L39.5 54.3L40 54.7C40.9 55.6 42.2 56.1 43.5 56.1C44.8 56.1 46.1 55.6 47 54.7L47.5 54.3L48 54.7C49.9 56.5 53.1 56.5 55 54.7L55.5 54.3L56 54.7C56.9 55.6 58.2 56.1 59.5 56.1C60.8 56.1 62.1 55.6 63 54.7" fill="black"/>
</g>
<defs>
<clipPath id="clip0_323_21406">
<rect width="63" height="63" fill="white"/>
</clipPath>
</defs>
</svg>
