<svg width="63" height="63" viewBox="0 0 63 63" fill="none" xmlns="http://www.w3.org/2000/svg">
<g clip-path="url(#clip0_323_21407)">
<path d="M37.1 32.3C38 32.3 38.9 32 39.6 31.3C40.3 30.6 40.6 29.8 40.6 28.8C40.6 27.9 40.2 27 39.6 26.3C38.3 25 36 25 34.7 26.3C33.3 27.7 33.3 29.9 34.7 31.2C35.3 31.9 36.2 32.3 37.1 32.3ZM35.3 27C35.8 26.5 36.4 26.3 37.1 26.3C37.8 26.3 38.4 26.6 38.9 27C39.4 27.4 39.6 28.1 39.6 28.8C39.6 29.5 39.3 30.1 38.9 30.6C37.9 31.6 36.3 31.6 35.4 30.6C34.4 29.6 34.4 28 35.3 27Z" fill="black"/>
<path d="M40.5 48.7C40.4 49 40.3 49.3 40.1 49.6L63 59V58L40.5 48.7Z" fill="#FCB019"/>
<path d="M27.6 43.3L27.1 43.1L21.1 40.6L20.7 40.4L0 31.9V33L33.1 46.7L31.3 44.8L27.6 43.3Z" fill="#FCB019"/>
<path d="M47.6 37.6C47.7 37.7 47.8001 37.9 47.9001 38L51 34.9C51.4 35.2 51.9001 35.3 52.4001 35.3C53.1001 35.3 53.7001 35 54.2001 34.6L58.4001 30.4C58.6001 30.2 58.6001 29.9 58.4001 29.7L55.6 26.9C55.4 26.7 55.1001 26.7 54.9001 26.9L50.7001 31.1C50.2001 31.6 50 32.2 50 32.9C50 33.4 50.1001 33.9 50.4001 34.3L47.3 37.4C47.3 37.4 47.4 37.5 47.6 37.6ZM51.3 31.8L55.2001 27.9L57.3 30L53.4001 33.9C52.8001 34.5 51.8 34.5 51.3 33.9C51 33.6 50.9001 33.2 50.9001 32.8C50.9001 32.4 51 32.1 51.3 31.8Z" fill="#00A64F"/>
<path d="M31.1 53.4C31.2 53.4 31.3 53.5 31.4 53.6C31.6 53.7 31.9 53.8 32.1 53.8L36.1 49.8L35.5 49L31.1 53.4Z" fill="#00A64F"/>
<path d="M44.3 41.4C44.2 41.3 44.1 41.3 44 41.2C43.9 41.1 43.9 41 43.8 40.9L43.7 40.8L43.6 40.9L43.1 41.4L42.6 41.9L39 45.5L39.7 46.2L44 41.9L44.4 41.5C44.4 41.4 44.4 41.4 44.3 41.4Z" fill="#00A64F"/>
<path d="M40.6 48.1C40.6 47.4 40.3 46.8 39.9 46.3L39.7 46.1L39 45.5L34.9 41.4V40L36 41.1C36.5 41.6 37.1 41.8 37.8 41.8H42.6L43.1 41.3L43.6 40.8H37.8C37.4 40.8 37 40.6 36.7 40.4L34.9 38.6V34.4L38.3 37.8C38.4 37.9 38.5 37.9 38.7 37.9H43.9C43.3 38.7 43.2 39.9 43.8 40.8L43.9 40.9C44 41 44 41.1 44.1 41.2C44.2 41.3 44.3 41.4 44.4 41.4L44.5 41.5L44 41.9H45.8C46 41.9 46.1 41.9 46.2 41.9C46.3 41.9 46.4 41.8 46.5 41.8H46.6C46.7 41.8 46.8 41.7 46.9 41.6C46.9 41.6 47 41.6 47 41.5C47.1 41.4 47.3 41.3 47.4 41.2C47.5 41.1 47.6 41 47.7 40.8L47.8 40.7C47.9 40.6 47.9 40.5 48 40.4V40.3C48 40.2 48.1 40.1 48.1 40C48.1 39.9 48.1 39.7 48.1 39.6C48.1 39.5 48.1 39.3 48.1 39.2C48.1 39.1 48 39 48 38.9V38.8C48 38.7 47.9 38.6 47.9 38.5C47.9 38.5 47.9 38.4 47.8 38.4C47.7 38.3 47.6 38.1 47.5 38C47.4 37.9 47.3 37.8 47.1 37.7L47 37.6C46.9 37.5 46.8 37.5 46.7 37.5H46.6C46.5 37.5 46.4 37.4 46.3 37.4C46.2 37.4 46 37.4 45.9 37.4H38.9L33.9 32C33.8 31.9 33.6 31.8 33.5 31.7C32.1 30.7 30.2 30.8 28.9 32L21.1 39.8C20.9 40 20.7 40.2 20.6 40.5L21.1 40.7L27 43.2L27.5 43.4L29.9 41V42.6C29.9 43.3 30.2 43.9 30.6 44.4L31.2 45L33 46.8L35.3 49.1L36 49.8L36.2 50C36.7 50.5 37.3 50.7 38 50.7C38.7 50.7 39.3 50.5 39.8 50C39.9 49.9 40 49.8 40 49.7C40.2 49.4 40.3 49.1 40.4 48.8C40.6 48.5 40.6 48.3 40.6 48.1ZM44.7 38.3C45 38 45.4 37.9 45.8 37.9C46 37.9 46.2 37.9 46.4 38C46.4 38 46.4 38 46.5 38H46.6C46.8 38.1 47 38.3 47.2 38.6V38.7C47.2 38.7 47.2 38.7 47.2 38.8C47.3 39.2 47.3 39.6 47.2 39.9C47 40.3 46.7 40.6 46.4 40.7C46 40.9 45.6 40.8 45.2 40.7C45 40.6 44.9 40.5 44.8 40.4C44.7 40.3 44.6 40.1 44.5 40C44.2 39.5 44.3 38.8 44.7 38.3ZM39.6 48.3C39.6 48.6 39.4 49 39.2 49.2C38.6 49.8 37.7 49.8 37.1 49.2L36.9 49L36.2 48.3L35.6 47.7L33.8 45.9L31.5 43.6C31.2 43.3 31.1 42.9 31.1 42.5V40V39.3V38.6V36.6C31.1 36.4 31 36.3 30.9 36.2C30.8 36.1 30.7 36.1 30.6 36.1C30.3 36.1 30.1 36.3 30.1 36.6V39.6L26.7 43L21.7 40.9C21.8 40.8 21.9 40.6 22 40.5L29.8 32.7C29.9 32.6 30.1 32.5 30.2 32.4C30.6 32.2 31 32 31.4 32C32.1 31.9 32.8 32.2 33.3 32.7C33.3 32.7 33.3 32.7 33.3 32.8C33.7 33.3 34 33.9 34 34.5V36.2V37V37.8V38.5V39.2V41.8C34 41.9 34.1 42.1 34.1 42.2L38.3 46.4L39 47.1L39.2 47.3C39.5 47.6 39.6 48 39.6 48.4C39.6 48.2 39.6 48.2 39.6 48.3Z" fill="black"/>
<path d="M31.1 53.4C30.2 53 29.6 52.3 29.2 51.4L28.7 50.4C28.6 50.2 28.3 50 28.1 50.1L27.1 50.5C25.1 51.3 22.7 50.3 21.9 48.3L21.4 47.3C21.3 47.1 21 46.9 20.8 47L19.8 47.4C17.8 48.2 15.4 47.2 14.6 45.2L14.1 44.2C14 44 13.7 43.8 13.5 43.9L12.5 44.3C10.5 45.1 8.1 44.1 7.3 42.1L6.8 41.1C6.4 41 6.2 40.9 5.9 41L4.9 41.4C3.2 42.1 1.1 41.4 0 39.8V41.3C1.4 42.5 3.4 43 5.2 42.3L5.8 42.1L6.1 42.7C7.2 45.1 10.1 46.3 12.6 45.4L13.2 45.2L13.5 45.8C14.6 48.2 17.5 49.4 20 48.5L20.6 48.3L20.9 48.9C22 51.3 24.9 52.5 27.4 51.6L28 51.4L28.3 52C28.8 53.2 29.8 54.1 31 54.6C32.2 55.1 33.6 55.1 34.8 54.7L35.4 54.5L35.7 55.1C36.2 56.3 37.2 57.2 38.4 57.7C39.6 58.2 41 58.2 42.2 57.8L42.8 57.6L43.1 58.2C44.2 60.6 47.1 61.8 49.6 60.9L50.2 60.7L50.5 61.3C50.8 61.9 51.1 62.4 51.6 62.9C51.8 63.1 52 63.2 52.2 63.3H55.1C54.6 63.3 54.1 63.2 53.6 63C53.1 62.8 52.7 62.5 52.3 62.2C51.9 61.8 51.6 61.4 51.4 60.9L50.9 59.9C50.8 59.7 50.5 59.5 50.3 59.6L49.3 60C47.3 60.8 44.9 59.8 44.1 57.8L43.6 56.8C43.5 56.6 43.2 56.4 43 56.5L42 56.9C41 57.3 39.9 57.2 39 56.8C38 56.4 37.2 55.6 36.8 54.7L36.3 53.7C36.2 53.5 35.9 53.3 35.7 53.4L34.7 53.8C34 54.1 33.2 54.1 32.4 54C32.1 53.9 31.9 53.9 31.7 53.8C31.3 53.5 31.2 53.4 31.1 53.4Z" fill="black"/>
</g>
<defs>
<clipPath id="clip0_323_21407">
<rect width="63" height="63" fill="white"/>
</clipPath>
</defs>
</svg>
