<svg width="63" height="63" viewBox="0 0 63 63" fill="none" xmlns="http://www.w3.org/2000/svg">
<path d="M56.2 41H55.5999C55.3999 39.9 54.4 39 53.2 39H50.2C49.9 39 49.7 39.2 49.7 39.5C49.7 39.8 49.9 40 50.2 40H53.2C53.9 40 54.3999 40.4 54.5999 41H49.2C48.1 41 47.2 41.9 47.2 43V44C47.2 45.1 48.1 46 49.2 46H56.2C57.3 46 58.2 45.1 58.2 44V43C58.2 41.9 57.3 41 56.2 41ZM57.2 44C57.2 44.6 56.8 45 56.2 45H49.2C48.6 45 48.2 44.6 48.2 44V43C48.2 42.4 48.6 42 49.2 42H55.2H56.2C56.8 42 57.2 42.4 57.2 43V44Z" fill="#EE2B2F"/>
<path d="M38.9 24.4C39.8 24.4 40.7 24 41.4 23.4C42.1 22.8 42.4 21.9 42.4 20.9C42.4 20 42 19.1 41.4 18.4C40.1 17.1 37.8 17.1 36.5 18.4C35.8 19.1 35.5 19.9 35.5 20.9C35.5 21.9 35.9 22.7 36.5 23.4C37.1 24.1 38 24.4 38.9 24.4ZM37.2 19.1C37.7 18.6 38.3 18.4 39 18.4C39.7 18.4 40.3 18.7 40.8 19.1C41.3 19.5 41.5 20.2 41.5 20.9C41.5 21.6 41.2 22.2 40.8 22.7C39.9 23.6 38.2 23.6 37.3 22.7C36.8 22.2 36.6 21.6 36.6 20.9C36.6 20.2 36.7 19.6 37.2 19.1Z" fill="black"/>
<path d="M47.0999 35.4L35.7999 24.1C34.5 22.8 32.2 22.8 30.9 24.1L23 31.9L21.6 33.3C20.7 34.2 20.5999 35.5 21.2999 36.4L16.7 41H7.69995C6.29995 41 5.19995 42.1 5.19995 43.5C5.19995 44.9 6.29995 46 7.69995 46H17.7C18.4 46 19 45.7 19.5 45.3L26.5 38.3H29L26.2 41.1C25.7 41.6 25.5 42.2 25.5 42.9C25.5 43.6 25.8 44.2 26.2 44.7C26.7 45.2 27.2999 45.4 28 45.4C28.7 45.4 29.2999 45.1 29.7999 44.7L36.9 37.6C37.4 37.1 37.5999 36.5 37.5999 35.8C37.5999 34.4 36.4999 33.3 35.0999 33.3H31.5L34.7 30.1L43.5 38.9C44 39.4 44.5999 39.6 45.2999 39.6C45.8999 39.6 46.5999 39.4 47.0999 38.9C47.5999 38.4 47.7999 37.8 47.7999 37.1C47.7999 36.4 47.5 35.9 47.0999 35.4ZM44.2 38.2L35.4 29.4L35 29L34.5999 28.6L33.5 27.5C33.5 27.5 33.4 27.5 33.4 27.4C33.2 27.3 33 27.3 32.7999 27.5C32.5999 27.7 32.5999 28 32.7999 28.2L33.9 29.3L30 33.2L29 34.2L27.5 35.7L26 34.2L25.9 34L25.2 33.3L24.2 32.3L31.6 24.9C32.5 24 34.1999 24 35.0999 24.9L35.2 25L36.2999 26.1L36.9 26.7L46.5 36.3C46.7999 36.6 46.9 37 46.9 37.4C46.9 37.8 46.7 38.2 46.5 38.5C45.7999 38.8 44.7999 38.8 44.2 38.2ZM6.19995 43.5C6.19995 42.7 6.89995 42 7.69995 42H16.9C17 42 17.2 41.9 17.3 41.9L22.4 36.8C22.6 36.6 22.6 36.3 22.4 36.1C21.8 35.5 21.8 34.6 22.4 34L23.5 32.9L24.1 33.5L24.9 34.3L25.2999 34.7L27.1 36.5L26.2999 37.3L25.2999 38.3L19 44.6C18.7 44.9 18.3 45 17.9 45H7.89995C6.89995 45 6.19995 44.4 6.19995 43.5ZM35.0999 34.3C35.8999 34.3 36.5999 35 36.5999 35.8C36.5999 36.2 36.4 36.6 36.2 36.9L29.1 44C28.5 44.6 27.5 44.6 27 44C26.7 43.7 26.6 43.3 26.6 42.9C26.6 42.5 26.7999 42.1 27 41.8L30.7 38.1C30.8 38 30.9 37.7 30.7999 37.6C30.6999 37.4 30.5 37.3 30.2999 37.3H27.6L28 36.9L30.6 34.3H35.0999Z" fill="black"/>
</svg>
