<svg width="63" height="63" viewBox="0 0 63 63" fill="none" xmlns="http://www.w3.org/2000/svg">
<path d="M52.8 22L52.4 21.6C52 21.9 51.6 22 51.1 22C49.7 22 48.6 20.9 48.6 19.5C48.6 19 48.8 18.5 49 18.1L48.3 17.4C47.9 18 47.6 18.7 47.6 19.5C47.6 21.4 49.2 23 51.1 23C52.1 23 52.9 22.6 53.6 22C53.5 22.1 53.4 22.1 53.3 22.1C53.1 22.2 52.9 22.1 52.8 22Z" fill="black"/>
<path d="M54.5 19.8C54.5 19.7 54.5 19.6 54.5 19.5C54.5 19.4 54.5 19.3 54.5 19.2C54.5 19.3 54.5 19.4 54.5 19.5C54.6 19.6 54.5 19.7 54.5 19.8Z" fill="black"/>
<path d="M48.2 28.1L49.4 29.3C53.5 30.3 56.6 34.1 56.6 38.5C56.6 43.7 52.3 48 47.1 48C41.9 48 37.6 43.7 37.6 38.5C37.6 34.7 39.8 31.5 43 29.9L42.3 29.2C42.3 29.2 42.3 29.2 42.2 29.1C38.8 30.9 36.5 34.4 36.5 38.4C36.5 44.2 41.2 48.9 47 48.9C52.8 48.9 57.5 44.2 57.5 38.4C57.6 33.1 53.4 28.6 48.2 28.1Z" fill="#2A76BC"/>
<path d="M15.9 28C10.1 28 5.40002 32.7 5.40002 38.5C5.40002 44.3 10.2 49 15.9 49C21.6 49 26.4 44.3 26.4 38.5C26.4 32.7 21.7 28 15.9 28ZM15.9 48C10.7 48 6.40002 43.7 6.40002 38.5C6.40002 33.3 10.7 29 15.9 29C21.1 29 25.4 33.3 25.4 38.5C25.4 43.7 21.2 48 15.9 48Z" fill="#2A76BC"/>
<path d="M15.9 32C12.3 32 9.40002 34.9 9.40002 38.5C9.40002 42.1 12.3 45 15.9 45C19.5 45 22.4 42.1 22.4 38.5C22.4 34.9 19.5 32 15.9 32ZM15.9 44C12.9 44 10.4 41.5 10.4 38.5C10.4 35.5 12.9 33 15.9 33C18.9 33 21.4 35.5 21.4 38.5C21.4 41.5 19 44 15.9 44Z" fill="#2A76BC"/>
<path d="M15.9 36C14.5 36 13.4 37.1 13.4 38.5C13.4 39.9 14.5 41 15.9 41C17.3 41 18.4 39.9 18.4 38.5C18.4 37.1 17.3 36 15.9 36ZM15.9 40C15.1 40 14.4 39.3 14.4 38.5C14.4 37.7 15.1 37 15.9 37C16.7 37 17.4 37.7 17.4 38.5C17.4 39.3 16.8 40 15.9 40Z" fill="#2A76BC"/>
<path d="M48.3 17.5L49 18.2L52.5 21.7L52.9 22.1C53 22.2 53.1 22.2 53.3 22.2C53.4 22.2 53.5 22.2 53.6 22.1C53.9 21.8 54.1 21.5 54.3 21.1C54.3 21.1 54.3 21 54.4 21C54.5 20.9 54.5 20.7 54.5 20.5C54.5 20.4 54.5 20.4 54.6 20.3C54.6 20.2 54.6 20 54.6 19.9C54.6 19.8 54.6 19.7 54.6 19.6C54.6 19.5 54.6 19.4 54.6 19.3C54.6 19.2 54.6 19 54.6 18.9C54.6 18.8 54.6 18.8 54.5 18.7C54.5 18.6 54.4 18.4 54.4 18.3C54.4 18.3 54.4 18.2 54.3 18.2C54.1 17.8 53.9 17.5 53.6 17.2C53.4 17 53.2 16.9 53 16.7C52.9 16.7 52.9 16.6 52.8 16.6C52.6 16.5 52.4 16.4 52.2 16.3C52.2 16.3 52.1 16.3 52.1 16.2L47.1 14.9C46.9 14.8 46.7 14.9 46.5 15.1C46.4 15.3 46.4 15.5 46.6 15.7L48.3 17.5ZM49.4 16.5L51.7 17.1H51.8C52 17.2 52.1 17.2 52.3 17.3H52.4C52.6 17.4 52.7 17.5 52.9 17.6C53 17.7 53.1 17.8 53.2 17.9C53.3 18 53.3 18.1 53.4 18.2C53.4 18.2 53.4 18.3 53.5 18.3C53.5 18.4 53.6 18.5 53.6 18.6C53.6 18.7 53.6 18.7 53.7 18.8C53.7 18.9 53.7 18.9 53.7 19C53.7 19.1 53.7 19.2 53.7 19.3C53.7 19.5 53.7 19.7 53.6 19.9C53.6 20 53.6 20 53.6 20.1C53.5 20.3 53.5 20.5 53.4 20.6C53.4 20.6 53.4 20.6 53.4 20.7L49.9 17.2L49 16.7L48.5 16.2L49.4 16.5Z" fill="#2A76BC"/>
<path d="M43 30L47.9 34.9C48.4 35.4 49.1 35.7 49.8 35.7C50.4 35.7 50.9 35.5 51.4 35.1C52 34.6 52.3 33.9 52.3 33.2C52.3 32.5 52 31.9 51.6 31.4L49.5 29.3L48.3 28.1L46.7 26.5V19.5C46.7 17.6 45.1 16 43.2 16H32.2C31.2 16 30.4 16.4 29.7 17L28.3 18.4C28.3 18.4 28.3 18.5 28.2 18.5C28.1 18.6 28 18.7 28 18.8C28 18.9 27.9 18.9 27.9 19C27.8 19.2 27.7 19.4 27.7 19.6C27.7 19.8 27.6 19.9 27.6 20.1V40.1C27.6 41.5 28.7 42.6 30.1 42.6C31.5 42.6 32.6 41.5 32.6 40.1V36.7L39.6 29.7C40.1 29.2 40.3 28.6 40.3 27.9C40.3 27.2 40 26.6 39.6 26.1L36.3 23H41.6V27.5C41.6 28.1 41.8 28.7 42.3 29.2C42.3 29.2 42.3 29.2 42.4 29.3L43 30ZM28.4 22.3L31.4 25.3V30.8L28.8 33.4C28.6 33.6 28.5 33.8 28.4 34V22.3ZM31.4 40.2C31.4 41 30.7 41.7 29.9 41.7C29.1 41.7 28.4 41 28.4 40.2V36.2C28.5 36.4 28.7 36.6 28.8 36.8C29.3 37.3 29.9 37.5 30.6 37.5C30.9 37.5 31.1 37.4 31.4 37.4V40.2ZM38.8 27C39.1 27.3 39.2 27.7 39.2 28.1C39.2 28.5 39 28.9 38.8 29.2L32.5 35.5L31.8 36.2C31.7 36.3 31.6 36.3 31.5 36.4C30.9 36.8 30.2 36.7 29.6 36.2C29.3 35.9 29.2 35.5 29.2 35.1C29.2 34.7 29.4 34.3 29.6 34L31.5 32.2L32.5 31.2L35.3 28.4C35.4 28.3 35.4 28.2 35.4 28C35.4 27.9 35.3 27.7 35.3 27.6L32.5 24.8L31.5 23.8L29.6 22L28.9 21.3C28.6 21 28.5 20.6 28.5 20.2C28.5 20.1 28.5 20 28.5 19.9C28.5 19.8 28.6 19.7 28.6 19.6C28.7 19.5 28.8 19.3 28.9 19.2C28.9 19.2 28.9 19.2 28.9 19.1L29.1 18.9L29.9 18.1L30.9 19.1L31 19.2L32.4 20.6L33.8 22L34.3 22.5L34.8 23L38.8 27ZM32.4 29.8V26.3L34.1 28L32.4 29.8ZM42.1 20C41.8 20 41.6 20.2 41.6 20.5V22H35.3L31.8 18.5C31.8 18.5 31.8 18.5 31.7 18.4L30.7 17.4C31.1 17.1 31.6 17 32.1 17H43.1C44.5 17 45.6 18.1 45.6 19.5V19.6V21.1V22V26.7C45.6 26.8 45.7 27 45.7 27.1L46.7 28.1L47.7 29.1L50.8 32.2C51.1 32.5 51.2 32.9 51.2 33.3C51.2 33.7 51 34.2 50.7 34.4C50.1 34.9 49.2 34.8 48.6 34.2L44 29.6L43.2 28.8L43 28.6C42.7 28.3 42.6 27.9 42.6 27.5V23V22.5V22V20.5V20.4C42.5 20.2 42.3 20 42.1 20Z" fill="black"/>
</svg>
