<svg width="63" height="63" viewBox="0 0 63 63" fill="none" xmlns="http://www.w3.org/2000/svg">
<path d="M63 39C52.6 39.1 42.2 41.6 33 46.2L20.4 52.5C17.1 54.2 13.5 55 9.8 55H0V56H9.8C13.6 56 17.4 55.1 20.8 53.4L33.4 47.1C42.5 42.5 52.8 40.1 63 40" fill="black"/>
<path d="M17.6 43.8C18 44.1 18.5 44.2 18.9 44.2C19.2 44.2 19.4 44.2 19.7 44.1C20.4 43.9 21 43.4 21.3 42.7L24.6 34.7C24.5 34.6 24.3 34.5 24.2 34.4C24.1 34.3 23.9 34.2 23.8 34.1L20.4 42.4C20.2 42.8 19.9 43.1 19.5 43.3C19.1 43.4 18.6 43.4 18.2 43.1C17.6 42.7 17.4 41.9 17.7 41.2L21.1 33C20.9 33 20.8 32.9 20.6 32.9C20.4 32.9 20.3 32.9 20.1 32.9L16.8 40.8C16.1 41.8 16.5 43.2 17.6 43.8Z" fill="black"/>
<path d="M20.8 31.8L18.3 25.7L22.2001 27.3L24.1 31.9C24.3 32.3 24.3 32.7 24.1 33C24.2001 33.1 24.4 33.2 24.5 33.3C24.6 33.4 24.8 33.5 24.9 33.6L25 33.4C25.3 32.8 25.3 32.1 25 31.5L23.5 27.8L26.2001 28.9L29.6 37.1C30 38.1 31 38.7 32 38.7C32.2001 38.7 32.4 38.7 32.5 38.6C33.2001 38.4 33.8001 38 34.2001 37.3C34.5 36.6 34.6 35.9 34.3 35.2L30.5 26C30.2 25.4 29.8 24.9 29.1 24.6L23.5 22.3L28.8 17L32 20.2C32.5 20.7 33.1 20.9 33.8 20.9C34.1 20.9 34.4 20.8 34.8 20.7L42.2001 17.6C42.8001 17.3 43.3 16.9 43.6 16.2C43.8 15.6 43.8 14.9 43.6 14.3C43.1 13 41.6 12.4 40.3 12.9L34.5 15.3L30 10.8C29.3 10.1 28.5 9.79999 27.5 9.79999C26.6 9.79999 25.7 10.2 25 10.8L17.2001 18.6C16.9001 18.9 16.6 19.3 16.4 19.7L15.6001 21.6C15.1001 22.9 15.7 24.3 16.9 24.8L19.6001 31.4C19.8001 31.4 20.0001 31.4 20.2001 31.4C20.4001 31.7 20.6 31.7 20.8 31.8ZM17.9 19.6L25.7001 11.8C26.2001 11.3 26.8 11.1 27.5 11.1C28.2 11.1 28.8 11.4 29.3 11.8C29.3 11.8 29.3 11.9 29.4 11.9L30.5 13L31.1 13.6L34.1 16.6C34.2 16.7 34.5 16.8 34.6 16.7L40.8 14.2C41.6 13.9 42.4 14.2 42.8 15C43 15.4 43 15.8 42.8 16.1C42.6 16.5 42.3 16.8 42 16.9L34.6 20C34 20.2 33.4 20.1 33 19.7L29.8 16.5L29.2001 16L28.8 15.6L27.7001 14.5C27.7001 14.5 27.6 14.5 27.6 14.4C27.4001 14.3 27.2 14.3 27 14.5C26.8 14.7 26.8 15 27 15.2L28.1 16.3L22.5001 22L17.5001 19.9C17.7001 19.8 17.8 19.7 17.9 19.6ZM17.7001 24.3L17.4 24.2C17.3 24.1 17.2001 24.1 17.1001 24C16.7001 23.7 16.5 23.3 16.5 22.8C16.5 22.7 16.5001 22.5 16.6001 22.4V22.3L16.7001 22L17.1001 20.9L17.5001 21.1L18.1001 21.4L20.5001 22.4L21.2001 22.7L21.6001 22.9L22.1001 23.1L22.6001 23.3L28.5 25.8C28.9 26 29.2 26.2 29.3 26.6L33.1 35.8C33.3 36.2 33.3 36.7 33.1 37.1C32.9 37.5 32.5 37.8 32.1 37.9C31.4 38.1 30.6 37.6 30.3 36.9L26.8 28.5C26.7 28.4 26.7 28.3 26.5 28.2L23.0001 26.5L22.3 26.2L21.7001 26L18.4 24.6H18.3L17.7001 24.3Z" fill="black"/>
<path d="M40.3 22.3C38.2 23.2 36.6 24.8 35.7 26.9C34.8 29 34.8 31.3 35.7 33.4C36.6 35.5 38.2 37.1 40.3 38C41.3 38.4 42.5 38.7 43.6 38.7C44.7 38.7 45.8 38.5 46.9 38C49 37.1 50.6 35.5 51.5 33.4C52.4 31.3 52.4 29 51.5 26.9C50.6 24.8 49 23.2 46.9 22.3C44.7 21.5 42.4 21.5 40.3 22.3ZM50.4 27.3C51.2 29.2 51.2 31.2 50.4 33C49.6 34.9 48.2 36.3 46.3 37.1C44.4 37.9 42.4 37.9 40.6 37.1C38.7 36.3 37.3 34.9 36.5 33C35.7 31.1 35.7 29.1 36.5 27.3C37.3 25.4 38.7 24 40.6 23.2C41.5 22.8 42.5 22.6 43.5 22.6C44.5 22.6 45.4 22.8 46.4 23.2C48.2 24 49.7 25.5 50.4 27.3Z" fill="#EE2B2F"/>
<path d="M16.2 48C17.2 48.4 18.4 48.7 19.5 48.7C20.6 48.7 21.7 48.5 22.8 48C27.1 46.2 29.2 41.2 27.4 36.9C26.9 35.6 26 34.5 25 33.6C24.9 33.5 24.7 33.4 24.6 33.3C24.5 33.2 24.3 33.1 24.2 33C23.2 32.4 22.1 31.9 20.9 31.7C20.7 31.7 20.5 31.6 20.3 31.6C20.1 31.6 19.9 31.6 19.7 31.6C18.6 31.6 17.4 31.8 16.3 32.2C14.2 33.1 12.6 34.7 11.7 36.8C10.8 38.9 10.8 41.2 11.7 43.3C12.6 45.4 14.1 47.1 16.2 48ZM12.6 37.3C13.4 35.4 14.8 34 16.7 33.2C17.6 32.8 18.6 32.6 19.6 32.6C19.7 32.6 19.9 32.6 20 32.6C20.2 32.6 20.4 32.6 20.5 32.6C20.7 32.6 20.8 32.7 21 32.7C22 32.9 22.9 33.3 23.8 33.9C23.9 34 24.1 34.1 24.2 34.2C24.3 34.3 24.5 34.4 24.6 34.5C25.4 35.2 26.1 36.1 26.5 37.2C28.1 41 26.3 45.4 22.4 47C20.5 47.8 18.5 47.8 16.7 47C14.8 46.2 13.4 44.8 12.6 42.9C11.8 41.2 11.8 39.1 12.6 37.3Z" fill="#EE2B2F"/>
<path d="M30.8 10.5L34.8 12.2C34.9 12.2 34.9 12.2 35 12.2C35.1 12.2 35.3001 12.1 35.4001 12.1L36.4001 11.1C36.6001 10.9 36.6001 10.6 36.4001 10.4L34.4001 8.39999H39.2001C39.4001 8.39999 39.6 8.19999 39.7001 7.99999C39.8001 7.79999 39.7 7.59999 39.5 7.39999L35 4.79999C34.4 4.49999 33.9 4.29999 33.3 4.29999C31.4 4.29999 29.8 5.89999 29.8 7.79999C29.8 8.69999 30.2 9.59999 30.8 10.3C30.7 10.4 30.7 10.5 30.8 10.5ZM33.1 5.39999C33.5 5.39999 34 5.49999 34.3 5.69999L37.2001 7.39999H33.1C32.9 7.39999 32.7 7.49999 32.6 7.69999C32.5 7.89999 32.6001 8.09999 32.7001 8.19999L35.2001 10.7L34.8 11.1L31.2001 9.59999C30.8001 9.09999 30.5 8.49999 30.5 7.89999C30.6 6.49999 31.7 5.39999 33.1 5.39999Z" fill="#EE2B2F"/>
</svg>
