<svg width="63" height="63" viewBox="0 0 63 63" fill="none" xmlns="http://www.w3.org/2000/svg">
<path d="M44.5 55C41.4 55 38.5 53.8 36.4 51.6L35.4 50.6C33 48.3 29.9 47 26.5 47H20.4C17.3 47 14.4 45.8 12.3 43.6L11.3 42.6C9 40.3 5.9 39 2.5 39H0V40H2.5C5.6 40 8.5 41.2 10.6 43.4L11.6 44.4C14 46.8 17.1 48.1 20.4 48.1H26.5C29.6 48.1 32.5 49.3 34.6 51.5L35.6 52.5C38 54.9 41.1 56.2 44.4 56.2H63V55.2H44.5V55Z" fill="black"/>
<path d="M46.8 30.8C41.4 28.6 35.3 31.1 33.1 36.5C32 39.1 32 41.9 33.1 44.5C34.2 47.1 36.2 49.1 38.8 50.2C40.1 50.7 41.5 51 42.8 51C46.9 51 50.8 48.6 52.5 44.5C54.7 39.2 52.1 33 46.8 30.8ZM51.5 44.1C49.5 48.9 43.9 51.2 39.1 49.2C36.8 48.2 34.9 46.4 34 44.1C33 41.8 33 39.2 34 36.8C36 32 41.6 29.7 46.4 31.7C51.2 33.7 53.5 39.3 51.5 44.1Z" fill="#FCB019"/>
<path d="M10.1 38.3C11.4 38.8 12.8 39.1 14.1 39.1C15.4 39.1 16.8 38.8 18.1 38.3C20.7 37.2 22.7 35.2 23.8 32.6C24.9 30 24.9 27.2 23.8 24.6C22.7 22 20.7 20 18.1 18.9C15.5 17.8 12.7 17.8 10.1 18.9C7.49997 20 5.49997 22 4.39997 24.6C2.19997 30 4.79997 36.1 10.1 38.3ZM5.29997 25C6.29997 22.7 8.09997 20.8 10.4 19.9C12.7 18.9 15.3 18.9 17.7 19.9C20 20.9 21.9 22.7 22.8 25C23.7 27.3 23.8 29.9 22.8 32.3C21.8 34.7 20 36.5 17.7 37.4C15.4 38.4 12.8 38.4 10.4 37.4C5.69997 35.4 3.29997 29.8 5.29997 25Z" fill="#FCB019"/>
<path d="M24.4 35.9C24.7 36.5 25.1 37 25.8 37.3C26.1 37.4 26.4 37.5 26.8 37.5C27.1 37.5 27.4 37.4 27.8 37.3C28.4 37 28.9 36.6 29.2 35.9L30.5 32.7L39.7001 28.9C41 28.4 41.6 26.9 41.1 25.6L38.8 20.1H46.3V24.6C46.3 25.3 46.6 25.9 47 26.4L52.7001 32.1C53.2001 32.6 53.8 32.8 54.5 32.8C55.1 32.8 55.8 32.6 56.3 32.1C56.8 31.6 57 31 57 30.3C57 29.6 56.7001 29 56.3 28.5L51.4001 23.6V16.6C51.4001 14.7 49.8001 13.1 47.9001 13.1H36.9001C36.4001 13.1 36 13.2 35.6 13.4L33.8 14.2C33.5 14.3 33.2 14.5 33 14.7C32.9 14.8 32.8 14.9 32.8 15C32.8 15 32.8001 15.1 32.7001 15.1C32.6 15.2 32.6 15.3 32.5 15.5C32.5 15.5 32.5 15.5 32.5 15.6L24.4 34C24.1 34.6 24.1 35.2 24.4 35.9ZM36.6 14.1H47.6C49 14.1 50.1 15.2 50.1 16.6V16.7V18.2V19V23.7C50.1 23.8 50.2001 24 50.2001 24.1L55.3 29.2C55.6 29.5 55.7001 29.9 55.7001 30.3C55.7001 30.7 55.5 31.1 55.3 31.4C54.7 32 53.8001 32 53.2001 31.4L47.5 25.7C47.2001 25.4 47.1 25 47.1 24.6V20.1V19.6V19.1V17.6V17.5C47 17.3 46.9 17.1 46.6 17.1C46.3 17.1 46.1 17.3 46.1 17.6V19.1H38.2001L36.7001 15.5L36.2001 14.2C36.2001 14.1 36.4 14.1 36.6 14.1ZM32.9001 15.9C33.0001 15.7 33.1 15.6 33.2001 15.5C33.2001 15.5 33.2 15.5 33.3 15.4C33.3 15.4 33.3001 15.4 33.4001 15.4C33.5001 15.3 33.6 15.3 33.7001 15.2C33.7001 15.2 33.8 15.2 33.8 15.1L34.1 15L35.2001 14.6L35.7001 15.9V16L36.5 17.8L37.1 19.1L37.3 19.6L37.5 20.1L40 26C40.3 26.8 40.0001 27.6 39.2001 28L30.9 31.4L29.9 31.8C29.8 31.8 29.7 31.9 29.6 31.9C29.3 31.9 29 31.9 28.8 31.8C28.4 31.6 28.1 31.4 28 31C27.8 30.6 27.8 30.2 28 29.9C28.2 29.5 28.4 29.2 28.8 29.1L31.2 28.1L32.5 27.6L36.2001 26.1C36.3001 26 36.4 26 36.5 25.8C36.6 25.6 36.6 25.5 36.5 25.4L35 21.7L34.5 20.4L33.5 18V17.9L32.9001 17C32.8001 16.6 32.8001 16.2 32.9001 15.9ZM33 26.2L34.3 23L35.2001 25.3L33 26.2ZM32.2001 17.7L33.8 21.6L31.7 26.7L28.4 28.1C28.2 28.2 27.9 28.3 27.8 28.5L32.2001 17.7ZM25.3 34.3L26.8 30.6C26.8 30.8 26.9 31.1 27 31.3C27.3 31.9 27.7 32.4 28.3 32.7C28.6 32.8 28.8 32.9 29.1 32.9L28 35.5C27.8 35.9 27.6 36.2 27.2 36.3C26.8 36.5 26.4 36.5 26.1 36.3C25.8 36.1 25.4 35.9 25.3 35.5C25.1 35.1 25.1 34.7 25.3 34.3Z" fill="black"/>
<path d="M55.6 20.1C57.5 20.1 59.1 18.5 59.1 16.6C59.1 14.7 57.5 13.1 55.6 13.1C53.7 13.1 52.1 14.7 52.1 16.6C52.1 18.5 53.6 20.1 55.6 20.1ZM55.6 14.1C57 14.1 58.1 15.2 58.1 16.6C58.1 18 57 19.1 55.6 19.1C54.2 19.1 53.1 18 53.1 16.6C53.1 15.2 54.2 14.1 55.6 14.1Z" fill="black"/>
</svg>
