<svg width="63" height="63" viewBox="0 0 63 63" fill="none" xmlns="http://www.w3.org/2000/svg">
<path d="M15.6 45.1V31.5C15.6 31.2 15.4 31 15.1 31H0V32H14.6V45.1C14.6 53.4 20 60.5 27.5 63H33.5C23.7 63 15.6 55 15.6 45.1Z" fill="black"/>
<path d="M46.6 17.3H40.3L37.9 11.5C37.4 10.2 35.9 9.6 34.6 10.1C34 10.4 33.5 10.8 33.2 11.5C33 12.1 33 12.8 33.2 13.4L36.3 20.8C36.7 21.7 37.6 22.3 38.6 22.3H43.1V29.8L37.5 27.5C36.9 27.2 36.2 27.2 35.6 27.5L26.4 31.3C25.7 31.6 25.2 32.1 25 32.8C24.8 33.5 24.9 34.3 25.3 34.9C25.9 35.9 27.3 36.3 28.5 35.9L36.7 32.5L39.4 33.6L35.7 35.1C35.1 35.4 34.6 35.8 34.3 36.5L34.2 36.7C34.4 36.7 34.5 36.7 34.7 36.8C34.9 36.8 35 36.9 35.2 36.9C35.4 36.5 35.6 36.2 36 36.1L40.6 34.2L44.5 35.8L38.4 38.3C38.6 38.4 38.7 38.5 38.9 38.7C39 38.8 39.2 38.9 39.3 39.1L45.9 36.4C46.2 36.5 46.5 36.6 46.8 36.6C47.8 36.6 48.7 36 49.1 35.1L49.9 33.2C50.1 32.8 50.2 32.3 50.2 31.9V20.9C50.1 18.8 48.6 17.3 46.6 17.3ZM48.3 34.3L48.2 34.6C48.2 34.6 48.2 34.7 48.1 34.7C48 34.8 48 34.9 47.9 35C47.6 35.3 47.1 35.5 46.6 35.4C46.5 35.4 46.3 35.4 46.2 35.3L45.9 35.2L45.3 35H45.2L42 33.6L41.3 33.3L40.6 33L36.8 31.4C36.7 31.4 36.7 31.4 36.6 31.4C36.5 31.4 36.5 31.4 36.4 31.4L28.1 35C27.4 35.3 26.5 35.1 26.2 34.4C26 34 25.9 33.6 26 33.1C26.1 32.7 26.4 32.3 26.9 32.2L36.1 28.4C36.5 28.2 36.9 28.2 37.2 28.4L43.1 30.9L43.6 31.1L44.1 31.3L44.5 31.5L45.2 31.8L47.6 32.8L48.2 33.1L48.6 33.3L48.3 34.3ZM49.1 31.8C49.1 32 49.1 32.1 49.1 32.3L44.1 30.2V22.3H45.6C45.9 22.3 46.1 22.1 46.1 21.8C46.1 21.6 45.9 21.4 45.7 21.3H45.6H44.1H43.6H43.1H38.6C38 21.3 37.5 20.9 37.2 20.4L34.2 13C34 12.6 34 12.2 34.2 11.9C34.4 11.5 34.7 11.2 35 11.1C35.8 10.8 36.6 11.1 37 11.9L39.5 18.1C39.6 18.3 39.8 18.4 40 18.4H44.2H45H46.5H46.6C48 18.4 49.1 19.5 49.1 20.9V31.8Z" fill="black"/>
<path d="M30.6 47.8C30.9 48.4 31.5 48.9 32.3 49.1C32.5 49.1 32.7 49.2 32.8 49.2C33.8 49.2 34.8 48.6 35.2 47.6L38.5 39.6C38.4 39.5 38.2 39.4 38.1 39.3C38 39.2 37.8 39.1 37.7 39L34.3 47.2C34 47.9 33.2 48.4 32.5 48.2C32.1 48.1 31.7 47.8 31.5 47.4C31.3 47 31.3 46.5 31.4 46.1L34.8 37.8C34.6 37.8 34.5 37.7 34.3 37.7C34.1 37.7 34 37.7 33.8 37.7L30.5 45.7C30.2 46.4 30.2 47.2 30.6 47.8Z" fill="black"/>
<path d="M20.2 29C21.2 29.4 22.4 29.7 23.5 29.7C24.6 29.7 25.7 29.5 26.8 29C28.9 28.1 30.5 26.5 31.4 24.4C32.3 22.3 32.3 20 31.4 17.9C29.6 13.6 24.6 11.5 20.3 13.3C18.2 14.2 16.6 15.8 15.7 17.9C14.8 20 14.8 22.3 15.7 24.4C16.6 26.5 18.2 28.1 20.2 29ZM16.6 18.3C17.4 16.4 18.8 15 20.7 14.2C21.6 13.8 22.6 13.6 23.6 13.6C26.5 13.6 29.3 15.3 30.5 18.2C31.3 20.1 31.3 22.1 30.5 23.9C29.7 25.7 28.3 27.2 26.4 28C24.5 28.8 22.5 28.8 20.7 28C18.8 27.2 17.4 25.8 16.6 23.9C15.8 22.2 15.8 20.1 16.6 18.3Z" fill="#EE2B2F"/>
<path d="M38.5 38.3C38 37.9 37.4 37.6 36.8 37.3C36.3 37.1 35.8 37 35.3 36.8C35.1 36.8 35 36.7 34.8 36.7C34.6 36.7 34.5 36.6 34.3 36.6C32.9 36.5 31.6 36.7 30.3 37.2C28.2 38.1 26.6 39.7 25.7 41.8C24.8 43.9 24.8 46.2 25.7 48.3C27.1 51.6 30.2 53.5 33.6 53.5C34.7 53.5 35.8 53.3 36.8 52.9C38.9 52 40.5 50.4 41.4 48.3C42.3 46.2 42.3 43.9 41.4 41.8C40.9 40.7 40.3 39.7 39.4 38.9C39.3 38.8 39.1 38.6 39 38.5C38.8 38.5 38.6 38.4 38.5 38.3ZM40.4 42.3C41.2 44.2 41.2 46.2 40.4 48C39.6 49.9 38.2 51.3 36.3 52.1C32.5 53.7 28.1 51.9 26.5 48C25.7 46.1 25.7 44.1 26.5 42.3C27.3 40.4 28.7 39 30.6 38.2C31.5 37.8 32.5 37.6 33.5 37.6C33.6 37.6 33.7 37.6 33.9 37.6C34.1 37.6 34.2 37.6 34.4 37.6C34.6 37.6 34.7 37.6 34.9 37.7C35.4 37.8 35.9 37.9 36.4 38.1C36.9 38.3 37.3 38.5 37.7 38.8C37.8 38.9 38 39 38.1 39.1C38.2 39.2 38.4 39.3 38.5 39.4C39.3 40.3 39.9 41.2 40.4 42.3Z" fill="#EE2B2F"/>
<path d="M45.4 12.3H42.6C42.3 12.3 42.1 12.5 42.1 12.8V14.2C42.1 14.4 42.2 14.6 42.4 14.7L46.4 16.4C46.5 16.4 46.5 16.4 46.6 16.4C47.5 16.4 48.4 16 49.1 15.4C49.8 14.7 50.1 13.9 50.1 12.9C50.1 12 49.7 11.1 49.1 10.4C48.7 10 48.1 9.7 47.5 9.5L42.5 8.2C42.3 8.1 42.1 8.2 41.9 8.4C41.7 8.6 41.9 8.7 42 8.9L45.4 12.3ZM47.3 10.4C47.7 10.5 48.1 10.7 48.4 11.1C48.9 11.6 49.1 12.2 49.1 12.9C49.1 13.6 48.8 14.2 48.4 14.7C48 15.1 47.4 15.4 46.7 15.4L43.1 13.9V13.4H46.6C46.8 13.4 47 13.3 47.1 13.1C47.2 12.9 47.1 12.7 47 12.6L44.1 9.7L47.3 10.4Z" fill="#EE2B2F"/>
</svg>
