<svg width="63" height="63" viewBox="0 0 63 63" fill="none" xmlns="http://www.w3.org/2000/svg">
<path d="M56.7 53.9L55.9 53.1C55.7 52.9 55.4 52.9 55.2 53.1L54.4 53.9C52.8 55.4 50.3 55.4 48.7 53.9L47.9 53.1C47.7 52.9 47.4 52.9 47.2 53.1L46.4 53.9C44.9 55.3 42.2 55.3 40.7 53.9L39.9 53.1C39.7 52.9 39.4 52.9 39.2 53.1L38.4 53.9C36.9 55.3 34.2 55.3 32.7 53.9L31.9 53.1C31.7 52.9 31.4 52.9 31.2 53.1L30.4 53.9C28.8 55.4 26.3 55.4 24.7 53.9L23.9 53.1C23.7 52.9 23.4 52.9 23.2 53.1L22.4 53.9C20.8 55.4 18.3 55.4 16.7 53.9L15.9 53.1C15.7 52.9 15.4 52.9 15.2 53.1L14.4 53.9C12.8 55.4 10.3 55.4 8.7 53.9L7.9 53.1C7.7 52.9 7.4 52.9 7.2 53.1L6.4 53.9C4.8 55.4 2.3 55.4 0.7 53.9L0 53.3V54.7C1.9 56.5 5.1 56.5 7 54.7L7.5 54.3L8 54.7C9.9 56.5 13.1 56.5 15 54.7L15.5 54.3L16 54.7C17.9 56.5 21.1 56.5 23 54.7L23.5 54.3L24 54.7C25.9 56.5 29.1 56.5 31 54.7L31.5 54.3L32 54.7C32.9 55.6 34.2 56.1 35.5 56.1C36.8 56.1 38.1 55.6 39 54.7L39.5 54.3L40 54.7C40.9 55.6 42.2 56.1 43.5 56.1C44.8 56.1 46.1 55.6 47 54.7L47.5 54.3L48 54.7C49.9 56.5 53.1 56.5 55 54.7L55.5 54.3L56 54.7C56.9 55.6 58.2 56.1 59.5 56.1C60.8 56.1 62.1 55.6 63 54.7V53.3L62.3 53.9C60.8 55.4 58.2 55.4 56.7 53.9Z" fill="#2A76BC"/>
<path d="M40 22.5C38.1 22.5 36.5 24.1 36.5 26C36.5 27.9 38.1 29.5 40 29.5C41.9 29.5 43.5 27.9 43.5 26C43.5 24.1 41.9 22.5 40 22.5ZM40 28.5C38.6 28.5 37.5 27.4 37.5 26C37.5 24.6 38.6 23.5 40 23.5C41.4 23.5 42.5 24.6 42.5 26C42.5 27.4 41.4 28.5 40 28.5Z" fill="black"/>
<path d="M41.7 20.8C43.1 19.4 43.1 17.2 41.7 15.8L34 8.1C33.3 7.4 32.5 7.1 31.5 7.1H29.5C28.1 7 27 8.2 27 9.5V20.4L24.6 22.8C23.6 23.8 23.6 25.4 24.6 26.3C25.1 26.8 25.7 27 26.4 27C26.6 27 26.9 27 27.1 26.9V30.4C27.1 31.8 28.2 32.9 29.6 32.9C31 32.9 32.1 31.8 32.1 30.4V22.4L33.1 21.4H40.1C40.6 21.5 41.3 21.3 41.7 20.8ZM28 10.6V9.6C28 9 28.4 8.4 29 8.2C29.1 8.1 29.3 8 29.5 8H31V8.1V13.6V15V16.7C30.7 16.8 30.4 17 30.2 17.2L28 19.5V10.6ZM29.5 32C28.7 32 28 31.3 28 30.5V26.5C28 26.5 28.1 26.5 28.1 26.4L31 23.5V30.5C31 31.4 30.3 32 29.5 32ZM36.5 20.5H32.8C32.7 20.5 32.5 20.6 32.4 20.6L32 21.1L31.5 21.6L31 22.1L28 25.1L27.5 25.6L27.4 25.7C27.3 25.8 27.2 25.9 27 26C26.4 26.3 25.7 26.2 25.3 25.7C24.7 25.1 24.7 24.2 25.3 23.6L27 21.9L27.5 21.4L28 20.9L30.9 18C30.9 18 31 18 31 17.9C31.1 17.8 31.3 17.7 31.5 17.6C31.7 17.5 31.8 17.5 32 17.5H33.5H34.9H36.9C37.1 17.5 37.2 17.4 37.3 17.3C37.4 17.2 37.4 17.1 37.4 17C37.4 16.7 37.2 16.5 36.9 16.5H33.9L32 14.6V8.1C32.5 8.2 32.9 8.4 33.3 8.8L41.1 16.6C42.1 17.6 42.1 19.1 41.1 20.1C41.1 20.1 41.1 20.1 41 20.1C40.7 20.4 40.4 20.5 40 20.5H37.7H36.5ZM32 16L32.5 16.5H32V16Z" fill="black"/>
</svg>
