<svg width="63" height="63" viewBox="0 0 63 63" fill="none" xmlns="http://www.w3.org/2000/svg">
<path d="M13.7 35C10.4 35 7.2 36.3 4.9 38.7L4.4 39.2C4.2 39.4 4.2 39.7 4.4 39.9C4.5 40 4.6 40 4.7 40C4.8 40 5 40 5.1 39.9L5.6 39.4C7.7 37.3 10.7 36 13.7 36H26.7L25.7 35H13.7Z" fill="#FCB019"/>
<path d="M34.9 31.7C33.9 32.7 32.9 33.4 31.7 34L32.5 34.8C33.7 34.2 34.7 33.4 35.7 32.5L41 27H39.6L34.9 31.7Z" fill="#FCB019"/>
<path d="M58.7 17H56.7H54.7C51.4 17 48.2 18.3 45.9 20.7L43.3 23.3C43.5 23.6 43.6 24 43.6 24.4L46.6 21.4C48.8 19.2 51.7 18 54.7 18H56.2V31.6C56.2 32.4 55.6 33 54.8 33C54.3 33 53.8 32.7 53.6 32.3L51.2 28.2C51 28 50.7 28 50.5 28.1C50.3 28.2 50.2 28.5 50.3 28.8L52.7 32.9C53.1 33.6 53.9 34.1 54.8 34.1C56.1 34.1 57.2 33 57.2 31.7V18H58.7C59 18 59.2 17.8 59.2 17.5C59.2 17.2 59 17 58.7 17Z" fill="#FCB019"/>
<path d="M26.7 15C28.6 15 30.2 13.4 30.2 11.5C30.2 9.6 28.7 8 26.7 8C24.7 8 23.2 9.6 23.2 11.5C23.2 13.4 24.8 15 26.7 15ZM26.7 9C28.1 9 29.2 10.1 29.2 11.5C29.2 12.9 28.1 14 26.7 14C25.3 14 24.2 12.9 24.2 11.5C24.2 10.1 25.3 9 26.7 9Z" fill="black"/>
<path d="M41.1 22H34.1L29.2 17.1C29.1 17 29 16.9 28.9 16.8C28.9 16.8 28.9 16.8 28.8 16.7C28.6 16.6 28.4 16.4 28.2 16.3C28.2 16.3 28.2 16.3 28.1 16.3C27.9 16.2 27.8 16.2 27.6 16.1H27.5C27.3 16.1 27 16 26.8 16C24.9 16 23.3 17.6 23.3 19.5V30.5V32.5C23.3 33.9 24.4 35 25.8 35L26.8 36L31.4 40.6V49.6C31.4 51 32.5 52.1 33.9 52.1C35.3 52.1 36.4 51 36.4 49.6V39.6C36.4 38.9 36.1 38.3 35.7 37.8L32.5 34.6L31.7 33.8L30.3 32.4V30.4V25L31.4 26.1C31.9 26.6 32.5 26.8 33.2 26.8H39.7H41H41.1C42.5 26.8 43.6 25.7 43.6 24.3V24.2C43.6 23.8 43.5 23.4 43.3 23.1C42.8 22.5 42 22 41.1 22ZM35.3 49.6C35.3 50.4 34.6 51.1 33.8 51.1C33 51.1 32.3 50.4 32.3 49.6V40.4C32.3 40.3 32.2 40.1 32.2 40L28 36L27.1 35L26.3 34.2C26.2 34.1 26 34 25.9 34H25.7C24.9 34 24.2 33.3 24.2 32.5V31H29.2V32.7C29.2 32.8 29.3 33 29.3 33.1L30.6 34.4L31.4 35.2L34.8 38.6C35.1 38.9 35.2 39.3 35.2 39.7V49.6H35.3ZM29.2 30H24.2V19.5C24.2 18.1 25.3 17 26.7 17H26.8C26.9 17 27.1 17 27.2 17H27.3C27.4 17 27.6 17.1 27.7 17.1C27.7 17.1 27.7 17.1 27.8 17.1C27.9 17.2 28 17.2 28.2 17.3C28.2 17.3 28.3 17.3 28.3 17.4C28.4 17.5 28.5 17.5 28.6 17.6L30.3 19.3L33.6 22.6C33.7 22.7 33.8 22.7 34 22.7H41.2C41.9 22.7 42.4 23.1 42.6 23.8C42.6 23.9 42.7 24.1 42.7 24.2C42.7 25 42 25.7 41.2 25.7H40.7H33.2C32.8 25.7 32.4 25.5 32.1 25.3L30.3 23.5L29.3 22.5L28.5 22C28.4 21.9 28.2 21.8 28 21.9C27.9 21.9 27.8 22 27.8 22C27.6 22.2 27.6 22.5 27.8 22.7L29.2 24.1V30Z" fill="black"/>
</svg>
