<svg width="63" height="63" viewBox="0 0 63 63" fill="none" xmlns="http://www.w3.org/2000/svg">
<path d="M28.7001 19C30.6001 19 32.2001 17.4 32.2001 15.5C32.2001 13.6 30.7001 12 28.7001 12C26.7001 12 25.2001 13.6 25.2001 15.5C25.2001 17.4 26.8001 19 28.7001 19ZM28.7001 13C30.1001 13 31.2001 14.1 31.2001 15.5C31.2001 16.9 30.1001 18 28.7001 18C27.3001 18 26.2001 16.9 26.2001 15.5C26.2001 14.1 27.3001 13 28.7001 13Z" fill="black"/>
<path d="M40.9001 27.1V26.6H33.4001C33.2001 26.6 33.0001 26.6 32.8001 26.5L27.3001 24.2C27.0001 24.1 26.8001 24.2 26.6001 24.5C26.5001 24.8 26.6001 25 26.9001 25.2L27.4001 25.4L24.0001 33.6L20.1001 32L19.4001 31.7L22.5001 24.2L23.4001 22.1C23.5001 21.8 23.7001 21.5 23.9001 21.3C24.1001 21.1 24.4001 20.9 24.7001 20.8C25.3001 20.5 26.0001 20.5 26.6001 20.8L33.6001 23.7C33.7001 23.7 33.7001 23.7 33.8001 23.7H40.9001V23.2C40.9001 22.9 41.1001 22.7 41.4001 22.7H33.9001L27.0001 19.7C26.6001 19.5 26.1001 19.4 25.7001 19.4H10.8001C9.40005 19.4 8.30005 20.5 8.30005 21.9C8.30005 23.3 9.40005 24.4 10.8001 24.4H21.3001L18.3001 31.7L17.5001 33.5C17.3001 33.9 17.3001 34.3 17.3001 34.6L4.50005 47C3.50005 48 3.50005 49.5 4.40005 50.5C4.90005 51 5.50005 51.3 6.20005 51.3C6.80005 51.3 7.40005 51.1 7.90005 50.6L21.2001 37.9L27.4001 40.5V48.8C27.4001 50.2 28.5001 51.3 29.9001 51.3C31.3001 51.3 32.4001 50.2 32.4001 48.8V38.8C32.4001 37.8 31.8001 36.9 30.9001 36.5L24.9001 34L28.3001 25.7L32.5001 27.4C32.8001 27.5 33.1001 27.6 33.5001 27.6H41.5001C41.2001 27.6 40.9001 27.3 40.9001 27.1ZM10.7001 23.4C9.90005 23.4 9.20005 22.7 9.20005 21.9C9.20005 21.1 9.90005 20.4 10.7001 20.4H23.2001C22.9001 20.7 22.6001 21.1 22.4001 21.5L21.6001 23.3L10.7001 23.4ZM7.30005 49.9C6.70005 50.5 5.80005 50.5 5.20005 49.9C4.60005 49.3 4.60005 48.4 5.20005 47.8L17.6001 35.9C17.9001 36.4 18.3001 36.7 18.8001 37L20.2001 37.6L7.30005 49.9ZM30.5001 37.4C31.1001 37.6 31.4001 38.2 31.4001 38.8V48.8C31.4001 49.6 30.7001 50.3 29.9001 50.3C29.1001 50.3 28.4001 49.6 28.4001 48.8V40.1C28.4001 39.9 28.3001 39.7 28.1001 39.6L21.3001 36.8L19.2001 35.9C18.4001 35.6 18.1001 34.7 18.4001 33.9L19.0001 32.5L30.5001 37.4Z" fill="black"/>
<path d="M59.8 24.6H43.9C43.7 23.5 42.7 22.6 41.5 22.6C41.2 22.6 41 22.8 41 23.1V23.6V26.6V27.1C41 27.4 41.2 27.6 41.5 27.6C42.7 27.6 43.7 26.7 43.9 25.6H59.8C60.1 25.6 60.3 25.4 60.3 25.1C60.3 24.8 60.1 24.6 59.8 24.6ZM42.9 25.5C42.8 25.7 42.8 25.8 42.7 25.9C42.6 26 42.5 26.1 42.4 26.2C42.4 26.2 42.4 26.2 42.3 26.3C42.2 26.4 42.1 26.4 42 26.5V23.7C42.1 23.7 42.2 23.8 42.3 23.9C42.3 23.9 42.3 23.9 42.4 24C42.5 24.1 42.6 24.2 42.7 24.3C42.8 24.4 42.8 24.5 42.9 24.7V24.8C42.9 24.9 43 25.1 43 25.2C42.9 25.2 42.9 25.4 42.9 25.5Z" fill="#EE2B2F"/>
</svg>
