<svg width="63" height="63" viewBox="0 0 63 63" fill="none" xmlns="http://www.w3.org/2000/svg">
<path d="M54.7001 25H38.7001H27.7001H25.7001L13.3 12.6C12.3 11.6 10.7 11.6 9.80005 12.6C8.80005 13.6 8.80005 15.2 9.80005 16.1L23.2 29.5V48.5C23.2 49.9 24.3001 51 25.7001 51C27.1 51 28.2001 49.9 28.2001 48.5V32H38.7001C39.1 32 39.5001 31.9 39.9001 31.8L43.3 35.2C43.8 35.7 44.4 35.9 45.1 35.9C45.7 35.9 46.4001 35.7 46.9001 35.2L52.1 30H54.8C56.2001 30 57.3 28.9 57.3 27.5C57.3 26.1 56.1001 25 54.7001 25ZM54.7001 29H52.9001C53.1001 28.6 53.2001 28.2 53.2001 27.8C53.2001 27.1 52.9001 26.5 52.5 26H54.8C55.6 26 56.3 26.7 56.3 27.5C56.3 28.3 55.6001 29 54.7001 29ZM50.7001 30L46.2001 34.5C45.6001 35.1 44.7 35.1 44.1 34.5L40.9001 31.3L40.5 31L40.1 30.6L39.5 30L39.1 29.6C39.1 29.6 39 29.6 39 29.5C38.9 29.4 38.7001 29.4 38.5 29.5C38.5 29.5 38.4001 29.5 38.4001 29.6C38.3001 29.7 38.2 29.9 38.3 30C38.3 30.1 38.4001 30.2 38.4001 30.3L39.1 31C39 31 38.9 31 38.8 31H28.2001V26H36.7001H37.4001H38.7001C39.4001 26 40 26.3 40.5 26.7C40.5 26.7 40.5 26.8 40.6 26.8C40.9 27.2 41.3 27.6 41.7001 28C41.9001 28.2 42.1001 28.4 42.2001 28.6C42.4001 28.8 42.5 28.9 42.7001 29.1C42.9001 29.3 43 29.4 43.2001 29.6C43.4001 29.8 43.6001 29.9 43.7001 30.1C44.3 30.7 44.7001 31.1 44.7001 31.1C44.9001 31.3 45.2001 31.3 45.4001 31.1L46.4001 30.1L46.9001 29.6L47.4001 29.1L49.7001 26.8C50 26.5 50.4 26.4 50.8 26.4C51.2001 26.4 51.6001 26.6 51.9001 26.8C52.2001 27.1 52.3 27.5 52.3 27.9C52.3 28.3 52.1001 28.7 51.9001 29H51.7001L51.2001 29.5L50.7001 30ZM24.2 48.5V30.5V29.8V29.1V27.5C24.2 26.8 24.7 26.2 25.4 26C25.5 26 25.6 26 25.7001 26H26H26.7001H27.2001V26.5V27.2V28.5V29.8V30.5V48.5C27.2001 49.3 26.5 50 25.7001 50C24.9001 50 24.2 49.4 24.2 48.5ZM11.6 12.9C12 12.9 12.4 13 12.7 13.3L24.7 25.3C23.9 25.7 23.3 26.6 23.3 27.5V28.1L10.5 15.5C9.90005 14.9 9.90005 14 10.5 13.4C10.8 13 11.2 12.9 11.6 12.9ZM49 26C49 26.1 49 26.1 49 26L46 29H44.1C43.2 28.2 42.1001 27.1 41.2001 26H49Z" fill="black"/>
<path d="M30.7001 52H22.7001C22.4001 52 22.2001 52.2 22.2001 52.5C22.2001 52.8 22.4001 53 22.7001 53H30.7001C31.0001 53 31.2001 52.8 31.2001 52.5C31.2001 52.2 31.0001 52 30.7001 52Z" fill="#2A76BC"/>
<path d="M11.2 9.10001C11 8.90001 10.7 8.90001 10.5 9.10001L4.80002 14.8C4.60002 15 4.60002 15.3 4.80002 15.5C4.90002 15.6 5.00002 15.6 5.20002 15.6C5.40002 15.6 5.50002 15.6 5.60002 15.5L11.3 9.80001C11.4 9.60001 11.4 9.30001 11.2 9.10001Z" fill="#2A76BC"/>
<path d="M38.7001 24C40.6001 24 42.2001 22.4 42.2001 20.5C42.2001 18.6 40.7001 17 38.7001 17C36.7001 17 35.2001 18.6 35.2001 20.5C35.2001 22.4 36.8001 24 38.7001 24ZM38.7001 18C40.1001 18 41.2001 19.1 41.2001 20.5C41.2001 21.9 40.1001 23 38.7001 23C37.3001 23 36.2001 21.9 36.2001 20.5C36.2001 19.1 37.3001 18 38.7001 18Z" fill="black"/>
</svg>
