<svg width="63" height="63" viewBox="0 0 63 63" fill="none" xmlns="http://www.w3.org/2000/svg">
<path d="M56.8999 46C55.7999 46 54.8999 46.9 54.8999 48C54.8999 49.1 55.7999 50 56.8999 50C57.9999 50 58.8999 49.1 58.8999 48C58.8999 46.9 57.9999 46 56.8999 46ZM56.8999 49C56.2999 49 55.8999 48.6 55.8999 48C55.8999 47.4 56.2999 47 56.8999 47C57.4999 47 57.8999 47.4 57.8999 48C57.8999 48.6 57.3999 49 56.8999 49Z" fill="#FCB019"/>
<path d="M50.9999 45.8C50.7999 46 50.7999 46.3 50.9999 46.5C51.2999 46.8 51.3999 47.2 51.3999 47.6C51.3999 48 51.1999 48.4 50.9999 48.7C50.3999 49.3 49.4999 49.3 48.8999 48.7L36.5999 36.3C36.3999 36.6 36.1999 36.8 35.9999 37H35.8999L48.1999 49.3C48.6999 49.8 49.2999 50 49.9999 50C50.5999 50 51.2999 49.8 51.7999 49.3C52.2999 48.8 52.4999 48.2 52.4999 47.5C52.4999 46.8 52.1999 46.2 51.7999 45.7C51.4999 45.6 51.1999 45.6 50.9999 45.8Z" fill="#00A64F"/>
<path d="M33.5 19.1C34.4 19.1 35.3 18.8 36 18.1C36.7 17.4 37 16.6 37 15.6C37 14.7 36.6 13.8 36 13.1C34.6 11.7 32.4 11.7 31 13.1C29.6 14.5 29.6 16.7 31 18C31.7 18.8 32.6 19.1 33.5 19.1ZM31.7 13.8C32.2 13.3 32.8 13.1 33.5 13.1C34.1 13.1 34.8 13.3 35.3 13.8C35.8 14.3 36 14.9 36 15.6C36 16.3 35.7 16.9 35.3 17.4C34.3 18.4 32.7 18.4 31.8 17.4C30.8 16.4 30.8 14.8 31.7 13.8Z" fill="black"/>
<path d="M36.5999 36.3C36.7999 36 37 35.6 37 35.1C37.1 34.4 36.7999 33.6 36.2999 33.1L31.4 28.2V21.2C31.4 20.3 31 19.4 30.4 18.7C29.1 17.4 26.7999 17.4 25.5 18.7L17.7 26.5L16.2 28C15.2 29 15.2 30.5 16.2 31.5V38H8.69995C7.29995 38 6.19995 39.1 6.19995 40.5C6.19995 41.9 7.29995 43 8.69995 43H18.7C20.1 43 21.2 41.9 21.2 40.5V36.5L23.2999 38.6V47.5C23.2999 48.8 24.2 49.9 25.4 50.1C25.5 50.1 25.6999 50.1 25.7999 50.1C26.4 50.1 27 49.9 27.4 49.5C28 49 28.2999 48.3 28.2999 47.6V37.6C28.2999 36.9 28 36.3 27.6 35.8L23 31.2L26.5 27.7V29.3C26.5 30 26.8 30.6 27.2 31.1L32.7999 36.7C33.2999 37.2 34 37.5 34.7 37.5C35.2 37.5 35.6 37.4 36 37.1H36.0999C36.1999 36.8 36.3999 36.5 36.5999 36.3ZM20.2 40.5C20.2 41.3 19.5 42 18.7 42H8.69995C7.89995 42 7.19995 41.3 7.19995 40.5C7.19995 39.7 7.79995 39 8.69995 39H16.7C17 39 17.2 38.8 17.2 38.5V32.5L20.2 35.5V40.5ZM26.7999 36.5C27.0999 36.8 27.2 37.2 27.2 37.6V47.6C27.2 48 27 48.5 26.7 48.7C26.4 49 25.9 49.1 25.5 49C24.7999 48.9 24.2999 48.2 24.2999 47.4V38.3C24.2999 38.2 24.2 38 24.2 37.9L21.3 35L20.8 34.5L20.3 34L17.3 31L17 30.7C16.9 30.6 16.8 30.5 16.8 30.3C16.5 29.7 16.6 29 17 28.5L18.1 27.4L18.5 27.8L19 28.3L20.9 30.2L21.4 30.7L26.7999 36.5ZM35.7999 35.6C35.6999 35.8 35.5 36 35.2999 36.2C35.1999 36.3 35.0999 36.3 35.0999 36.3C34.4999 36.6 33.7999 36.4 33.2999 36L27.7 30.4C27.4 30.1 27.2999 29.7 27.2999 29.3V26.7V25.3V24.3C27.2999 24.1 27.2 24 27.1 23.9C27 23.9 26.9 23.8 26.7999 23.8C26.5 23.8 26.2999 24 26.2999 24.3V26.3L22.1 30.5L18.6 27L26 19.6C26.9 18.7 28.6 18.7 29.5 19.6L29.6 19.7C30 20.2 30.2999 20.7 30.2999 21.4V23.8V28.5C30.2999 28.6 30.4 28.8 30.4 28.9L35.5 34C35.7999 34.3 36 34.7 35.9 35.2C36 35.2 35.9 35.4 35.7999 35.6Z" fill="black"/>
</svg>
