<svg width="63" height="63" viewBox="0 0 63 63" fill="none" xmlns="http://www.w3.org/2000/svg">
<path d="M53.2001 45H46.4001L41.5 40.1C41.5 40.1 41.5 40.1 41.5 40.2C41.3 40.5 41.1 40.7 40.8 40.8L45.9001 45.9L46.7001 46.7C47.5001 47.6 48.7001 48 49.9001 48H53.2001C54.0001 48 54.7001 47.3 54.7001 46.5C54.7001 45.7 54.0001 45 53.2001 45ZM53.2001 47H49.9001C49.0001 47 48.1 46.6 47.5 46H53.3C53.6 46 53.8 46.2 53.8 46.5C53.8 46.8 53.5001 47 53.2001 47Z" fill="#EE2B2F"/>
<path d="M29.9 28.6H28.5L31.2 31.3V29.9L29.9 28.6Z" fill="#EE2B2F"/>
<path d="M32.4 47H24.4C24.1 47 23.9 47.2 23.9 47.5C23.9 47.8 24.1 48 24.4 48H32.4C32.7 48 32.9 47.8 32.9 47.5C32.9 47.2 32.7 47 32.4 47Z" fill="#2A76BC"/>
<path d="M18.3 47H10.3C10 47 9.80005 47.2 9.80005 47.5C9.80005 47.8 10 48 10.3 48H18.3C18.6 48 18.8 47.8 18.8 47.5C18.8 47.2 18.5 47 18.3 47Z" fill="#2A76BC"/>
<path d="M38.4001 22.9C39.3001 22.9 40.2001 22.5 40.9001 21.9C41.6001 21.2 41.9001 20.4 41.9001 19.4C41.9001 18.5 41.5001 17.6 40.9001 16.9C39.6001 15.6 37.3001 15.6 36.0001 16.9C34.6001 18.3 34.6001 20.5 36.0001 21.8C36.6001 22.5 37.4001 22.9 38.4001 22.9ZM36.6001 17.6C37.1001 17.1 37.7001 16.9 38.4001 16.9C39.1001 16.9 39.7001 17.2 40.2001 17.6C40.7001 18.1 40.9001 18.7 40.9001 19.4C40.9001 20.1 40.6001 20.7 40.2001 21.2C39.3001 22.1 37.6001 22.1 36.7001 21.2C35.6001 20.2 35.6001 18.6 36.6001 17.6Z" fill="black"/>
<path d="M41.4001 40.2C41.4001 40.1 41.4001 40.1 41.4001 40.2C42.1001 39.2 41.9001 37.8 41.0001 36.9L36.2001 32V25C36.2001 24.1 35.8001 23.2 35.2001 22.5L29.5001 16.8C28.8001 16.1 27.7001 15.9 26.8001 16.3C25.8001 16.7 25.3001 17.6 25.3001 18.6V21.5H21.7001C20.8001 21.5 19.9001 21.9 19.2001 22.5L17.8001 24C16.8001 25 16.8001 26.5 17.8001 27.5V35.4L11.5001 41.7C10.6001 42.6 10.5001 44 11.2001 45C11.6001 45.6 12.3001 46 13.0001 46C13.1001 46 13.1001 46 13.2001 46C13.9001 46 14.5001 45.7 15.0001 45.3L22.1001 38.2C22.6001 37.7 22.8001 37.1 22.8001 36.4V32.4L24.9001 34.5V43.4C24.9001 44.7 25.8001 45.8 27.0001 46C27.1001 46 27.3001 46 27.4001 46C28.0001 46 28.6001 45.8 29.0001 45.4C29.6001 44.9 29.9001 44.2 29.9001 43.5V33.5C29.9001 32.8 29.6001 32.2 29.2001 31.7L26.0001 28.5H28.6001H30.0001H31.3001V29.8V31.2V33C31.3001 33.7 31.6001 34.3 32.0001 34.8L37.7001 40.5C38.2001 41 38.8001 41.2 39.5001 41.2C39.6001 41.2 39.6001 41.2 39.7001 41.2C40.1001 41.2 40.5001 41 40.9001 40.8C41.0001 40.6 41.2001 40.4 41.4001 40.2ZM40.7001 39.4C40.7001 39.5 40.6001 39.6 40.6001 39.6C40.4001 39.8 40.2001 40 40.0001 40.1C39.8001 40.2 39.7001 40.2 39.5001 40.2C39.1001 40.2 38.6001 40.1 38.3001 39.8L32.6001 34.1C32.3001 33.8 32.2001 33.4 32.2001 33V32.2V30.8V28.5V28V27.5V26.5V26V25.9C32.1001 25.7 32.0001 25.5 31.7001 25.5C31.5001 25.5 31.4001 25.6 31.3001 25.7C31.2001 25.8 31.2001 25.9 31.2001 26V27.5H28.9001H27.5001H24.9001L20.3001 23C20.7001 22.7 21.2001 22.6 21.7001 22.6H25.3001H26.3001H32.7001C33.4001 22.6 34.0001 22.9 34.5001 23.3C35.0001 23.8 35.2001 24.4 35.2001 25.1V25.2V26.1V26.7V27.5V32.2C35.2001 32.3 35.3001 32.5 35.3001 32.6L40.3001 37.6C40.8001 38.1 41.0001 38.8 40.7001 39.4ZM28.9001 43.6C28.9001 44 28.7001 44.5 28.4001 44.7C28.0001 45 27.6001 45.1 27.1001 45C26.4001 44.9 25.8001 44.2 25.8001 43.4V34.3C25.8001 34.2 25.7001 34 25.7001 33.9L22.8001 31L22.3001 30.5L21.8001 30L19.3001 27.5L18.9001 27.1L18.6001 26.8C18.5001 26.7 18.4001 26.6 18.4001 26.4C18.2001 26 18.1001 25.5 18.3001 25.1C18.4001 25 18.5001 24.8 18.6001 24.7C18.6001 24.7 18.6001 24.7 18.6001 24.6L18.8001 24.4L19.6001 23.6L20.0001 24L20.5001 24.5L22.3001 26.3L22.8001 26.8L23.5001 27.5L24.0001 28L24.5001 28.5L28.4001 32.4C28.7001 32.7 28.8001 33.1 28.8001 33.5V43.6H28.9001ZM21.8001 36.5C21.8001 36.9 21.6001 37.3 21.4001 37.6L14.3001 44.7C14.0001 45 13.5001 45.2 13.1001 45.1C12.7001 45.1 12.3001 44.8 12.0001 44.5C11.6001 43.9 11.7001 43.1 12.2001 42.5L18.6001 36.1C18.7001 36 18.7001 35.9 18.7001 35.7V28.6L21.7001 31.6V36.5H21.8001ZM26.3001 18.7C26.3001 18 26.8001 17.5 27.2001 17.3C27.6001 17.1 28.3001 17.1 28.8001 17.6L32.7001 21.5H26.3001V18.7Z" fill="black"/>
</svg>
