<svg width="63" height="63" viewBox="0 0 63 63" fill="none" xmlns="http://www.w3.org/2000/svg">
<path d="M37.9 43.8C37.2 44.5 36.9 45.3 36.9 46.3C36.9 47.2 37.3 48.1 37.9 48.8C38.5 49.5 39.4 49.8 40.4 49.8C41.3 49.8 42.2 49.4 42.9 48.8C43.6 48.1 43.9 47.3 43.9 46.3C43.9 45.4 43.5 44.5 42.9 43.8C41.6 42.5 39.2 42.5 37.9 43.8ZM42.2 48.1C41.3 49 39.6 49 38.7 48.1C38.2 47.6 38 47 38 46.3C38 45.6 38.3 45 38.7 44.5C39.1 44 39.8 43.8 40.5 43.8C41.2 43.8 41.8 44.1 42.3 44.5C42.8 45 43 45.6 43 46.3C42.9 47 42.6 47.6 42.2 48.1Z" fill="black"/>
<path d="M30.5 20.1C31.4 20.1 32.3 19.7 33 19.1C33.7 18.5 34 17.6 34 16.6C34 15.7 33.6 14.8 33 14.1C31.7 12.8 29.4 12.8 28.1 14.1C27.4 14.8 27.1 15.6 27.1 16.6C27.1 17.5 27.5 18.4 28.1 19.1C28.7 19.8 29.6 20.1 30.5 20.1ZM28.7 14.9C29.2 14.4 29.8 14.2 30.5 14.2C31.2 14.2 31.8 14.5 32.3 14.9C32.8 15.3 33 16 33 16.6C33 17.3 32.7 17.9 32.3 18.4C31.4 19.3 29.7 19.3 28.8 18.4C28.3 17.9 28.1 17.3 28.1 16.6C28 16 28.3 15.3 28.7 14.9Z" fill="black"/>
<path d="M17.1 26.5L16.4 27.2L17.1 26.5Z" fill="black"/>
<path d="M55.3 35L53.6 33.4H52.2L54.5 35.7L53.8 36.4L50.8 33.4H49.8H49.4L49.6 33.6L53.1 37.1L53.5 37.5L53.8 37.8L56 35.7L55.6 35.4L55.3 35Z" fill="#EE2B2F"/>
<path d="M19.5 31.8L17.4 29.7L15.6 27.9L15.3 27.6L14.9 27.2L14.5 27.6L13.2 29C12.2 30 12.2 31.5 13.2 32.5V40.4L6.89999 46.7C5.99999 47.6 5.79999 49 6.59999 50C6.99999 50.6 7.69999 51 8.39999 51C8.49999 51 8.49999 51 8.59999 51C9.29999 51 9.89999 50.7 10.4 50.3L17.5 43.2C18 42.7 18.2 42.1 18.2 41.4V37.4L20.3 39.5V48.4C20.3 49.7 21.2 50.8 22.4 51C22.5 51 22.7 51 22.8 51C23.4 51 24 50.8 24.4 50.4C25 49.9 25.3 49.2 25.3 48.5V38.5C25.3 37.8 25 37.2 24.6 36.7L20 32.1L19.5 31.8ZM24.2 48.5C24.2 48.9 24 49.4 23.7 49.6C23.4 49.9 22.9 50 22.5 49.9C21.8 49.8 21.2 49.1 21.2 48.3V39.2C21.2 39.1 21.1 38.9 21.1 38.8L18.2 35.9L17.7 35.4L17.2 34.9L14.2 31.9L13.9 31.6C13.8 31.5 13.7 31.4 13.7 31.2C13.4 30.7 13.5 30 13.9 29.5C13.9 29.5 13.9 29.5 13.9 29.4L15 28.3L15.4 28.7L15.9 29.2L17.7 31L18.2 31.5L18.3 31.6L18.9 32.2L23.9 37.2C24.2 37.5 24.3 37.9 24.3 38.3V48.5H24.2ZM17.2 41.5C17.2 41.9 17 42.3 16.8 42.6L9.69999 49.7C9.39999 50 8.89999 50.2 8.49999 50.1C8.09999 50.1 7.69999 49.8 7.39999 49.5C6.99999 48.9 7.09999 48.1 7.59999 47.5L14 41C14.1 40.9 14.1 40.8 14.1 40.6V33.5L17.1 36.5V41.5H17.2Z" fill="black"/>
<path d="M21.7 29.7L21.3 29.3L17.8 25.8L17.4 25.4L17 25L14.9 27.1L15.3 27.5L15.6 27.8L17.4 29.6L19.5 31.7L19.9 32.1L22 30L21.7 29.7ZM17.1 26.5L20.6 30L19.9 30.7L16.4 27.2L17.1 26.5Z" fill="#EE2B2F"/>
<path d="M54.9 28.4L49.3 22.8V13.9C49.3 12.6 48.4 11.5 47.2 11.3C46.5 11.2 45.7 11.4 45.2 11.9C44.6 12.4 44.3 13.1 44.3 13.8V23.8C44.3 24.5 44.6 25.1 45 25.6L47.8 28.4H44.9L38.6 22.1C37.7 21.2 36.3 21.1 35.3 21.8C34.7 22.2 34.3 22.9 34.3 23.6C34.2 24.3 34.5 25 35 25.6L42.1 32.7C42.6 33.2 43.2 33.4 43.9 33.4H48.4L44.7 37.1L37.3 29.7L27.4 19.8C26 18.4 23.8 18.4 22.4 19.8L17.1 25.1L17.5 25.5L17.9 25.9L23.2 20.6C24.2 19.6 25.8 19.6 26.7 20.6L26.8 20.7L27.9 21.8L28.5 22.4L35.3 29.2L35.8 29.7L36.7 30.6C37 30.9 37.1 31.3 37.1 31.7C37.1 32.1 36.9 32.5 36.7 32.8C36.1 33.4 35.1 33.4 34.6 32.8L33.7 31.9L33 31.1L27 25.1L26.6 24.7L26.2 24.3L25.1 23.2C25.1 23.2 25 23.2 25 23.1C24.8 23 24.6 23 24.4 23.2C24.2 23.4 24.2 23.7 24.4 23.9L25.5 25L21.3 29.2L21.7 29.6L22.1 30L20 32.1L26.4 25.7L33.8 33.1L43.6 42.9C43.6 42.9 43.6 43 43.7 43C44.4 43.7 45.3 44 46.2 44C47.1 44 48 43.7 48.7 43L56.5 35.2C56.7 35 56.8 34.9 56.9 34.7C57 34.5 57.1 34.3 57.2 34.1V34C57.2 33.9 57.3 33.8 57.3 33.7C57.3 33.6 57.4 33.5 57.4 33.3C57.4 33.2 57.4 33.2 57.4 33.1C57.4 32.9 57.4 32.8 57.4 32.6V30.7C57.3 29.5 56.2 28.4 54.9 28.4ZM45.3 13.8C45.3 13.4 45.5 12.9 45.8 12.6C46.1 12.4 46.4 12.2 46.8 12.2C46.9 12.2 47 12.2 47.1 12.2C47.8 12.3 48.3 13 48.3 13.8V23C48.3 23.1 48.4 23.3 48.4 23.4L53.5 28.5H49.3L45.8 25C45.5 24.7 45.4 24.3 45.4 23.9V13.8H45.3ZM53.8 37.8L53.4 37.4L53 37L47.7 42.3C46.7 43.3 45.2 43.3 44.2 42.3L44.1 42.2L43 41.1L42.4 40.5L35.6 33.7C36.1 33.6 36.6 33.4 37 33C37.4 32.6 37.6 32.1 37.7 31.6L43.7 37.6L44.1 38L44.5 38.4L45.6 39.5C45.6 39.5 45.7 39.5 45.7 39.6C45.9 39.7 46.1 39.7 46.3 39.5C46.5 39.3 46.5 39 46.3 38.8L45.2 37.7L49.4 33.5L49.2 33.3H49.6H50.6H52H53.4H53.6C53.7 33.3 53.7 33.3 53.8 33.3C53.9 33.3 53.9 33.2 53.9 33.2C54 33.1 54 33 54 32.8C54 32.8 54 32.8 54 32.7C54 32.5 53.8 32.3 53.5 32.3H52.3H52.2H51.5H50.9H50.5H49.8H49.1H43.6C43.2 32.3 42.8 32.1 42.5 31.9L35.4 24.8C35.1 24.5 34.9 24.1 35 23.6C35 23.2 35.3 22.8 35.6 22.5C36.2 22.1 37 22.2 37.6 22.7L44 29.1C44.1 29.2 44.2 29.2 44.4 29.2H48.5H49.2H49.9H53.4H53.6H54.1H54.5C54.6 29.2 54.8 29.2 54.9 29.3C55.3 29.4 55.7 29.7 55.9 30.2C56 30.3 56 30.5 56 30.6C56 30.7 56 30.7 56 30.8V31.1V32.7C56 32.9 56 33 56 33.2C56 33.3 55.9 33.5 55.9 33.6C55.9 33.6 55.9 33.6 55.9 33.7C55.9 33.8 55.8 33.9 55.7 34.1V34.2C55.6 34.3 55.5 34.5 55.4 34.6L55.3 35L55.7 35.4L56.1 35.8L53.8 37.8Z" fill="black"/>
</svg>
