<svg width="63" height="63" viewBox="0 0 63 63" fill="none" xmlns="http://www.w3.org/2000/svg">
<path d="M52.6999 42.6C52.3999 42.5 52.1999 42.6 51.9999 42.9C51.2999 44.7 49.1999 45.5 47.3999 44.8L17.0999 32.1C16.7999 32 16.5999 32.1 16.3999 32.4C16.2999 32.7 16.3999 32.9 16.6999 33.1L47.0999 45.7C47.6999 45.9 48.1999 46 48.7999 46C50.5999 46 52.1999 45 52.9999 43.2C53.0999 43 52.8999 42.7 52.6999 42.6Z" fill="#EE2B2F"/>
<path d="M19.2 20.6C19.2 18.7 17.6 17.1 15.7 17.1C13.8 17.1 12.2 18.7 12.2 20.6C12.2 22.5 13.8 24.1 15.7 24.1C17.6 24.1 19.2 22.5 19.2 20.6ZM13.2 20.6C13.2 19.2 14.3 18.1 15.7 18.1C17.1 18.1 18.2 19.2 18.2 20.6C18.2 22 17.1 23.1 15.7 23.1C14.3 23.1 13.2 22 13.2 20.6Z" fill="black"/>
<path d="M27.3999 35.3L27.5999 35.4H27.6999L29.4999 36.1L31.2999 36.9C31.5999 37 31.8999 37.1 32.2999 37.1C32.9999 37.1 33.5999 36.8 34.0999 36.3L47.6999 43.6C48.0999 43.8 48.4999 43.9 48.8999 43.9C49.1999 43.9 49.4999 43.9 49.6999 43.8C50.3999 43.6 50.8999 43.1 51.1999 42.4C51.6999 41.2 51.0999 39.8 49.9999 39.2L34.1999 30.7C32.9999 30 31.6999 29.4 30.3999 28.9L20.1999 24.7C18.3999 24 16.3999 24.8 15.5999 26.6C15.1999 27.5 15.1999 28.4 15.5999 29.3C15.9999 30.2 16.5999 30.8 17.4999 31.2L27.3999 35.3ZM49.3999 40.1C50.0999 40.5 50.4999 41.3 50.1999 42C49.9999 42.4 49.6999 42.7 49.2999 42.8C48.8999 42.9 48.4999 42.9 48.0999 42.7L34.5999 35.4C35.0999 34.1 34.4999 32.7 33.1999 32.2L29.9999 31L30.3999 30.1C31.4999 30.6 32.5999 31.1 33.6999 31.7L49.3999 40.1ZM16.4999 27C16.9999 25.7 18.4999 25.1 19.7999 25.6L29.4999 29.6L29.0999 30.5L20.2999 27C19.9999 26.9 19.7999 27 19.5999 27.3C19.4999 27.5 19.5999 27.8 19.7999 27.9L19.8999 28L28.6999 31.6L29.5999 32L32.7999 33.3C33.4999 33.6 33.8999 34.4 33.6999 35.1V35.2C33.5999 35.5 33.3999 35.7 33.0999 35.9C32.6999 36.2 32.1999 36.2 31.6999 36L29.8999 35.2L28.4999 34.6L27.5999 34.2L26.2999 33.7L17.9999 30.2H17.8999C16.5999 29.8 15.8999 28.3 16.4999 27Z" fill="black"/>
</svg>
