<svg width="63" height="63" viewBox="0 0 63 63" fill="none" xmlns="http://www.w3.org/2000/svg">
<g clip-path="url(#clip0_323_21411)">
<path d="M7.09997 25.8C6.49997 26.2 6.09997 26.9 6.09997 27.6C5.99997 28.3 6.29997 29 6.79997 29.6L7.19997 29.3C7.29997 29 7.49997 29 7.69997 29.1L7.49997 28.9C7.19997 28.6 6.99997 28.1 7.09997 27.7C7.09997 27.3 7.39997 26.9 7.69997 26.6C7.89997 26.4 8.19997 26.3 8.49997 26.3C8.89997 26.3 9.29997 26.5 9.69997 26.8L13.4 30.5C13.6 30.4 13.7 30.3 13.8 30.2C13.9 30.1 14.1 30 14.2 29.9L10.3 26C9.49997 25.2 8.09997 25.1 7.09997 25.8Z" fill="black"/>
<path d="M42.9 26.8C43.8 26.8 44.7 26.4 45.4 25.8C46.8 24.4 46.8 22.2 45.4 20.9C44.1 19.6 41.8 19.6 40.5 20.9C39.8 21.6 39.5 22.4 39.5 23.4C39.5 24.4 39.9 25.2 40.5 25.9C41.1 26.6 42 26.8 42.9 26.8ZM42.9 20.8C43.6 20.8 44.2 21.1 44.7 21.5C45.7 22.5 45.7 24.1 44.7 25C43.8 25.9 42.1 25.9 41.2 25C40.7 24.5 40.5 23.9 40.5 23.2C40.5 22.5 40.8 21.9 41.2 21.4C41.6 20.9 42.2 20.8 42.9 20.8Z" fill="black"/>
<path d="M39.7 26.5L34.1 20.9C33.6 20.4 33 20.2 32.3 20.2H24.3C23.6 20.2 22.9 20.5 22.4 21.1C21.9 21.7 21.7 22.4 21.8 23.1C22 24.3 23.1 25.2 24.4 25.2H31.3L33.1 27L25.8 30L25.1 30.3C25.2 30.4 25.4 30.5 25.5 30.5C25.5 30.5 25.6 30.5 25.7 30.6C25.9 30.7 26 30.8 26.2 30.8C26.4 30.9 26.6 30.9 26.8 31L26.7 30.7L33.9 27.7L34.4 27.5L34.9 27.3L36.3 26.7C36.3 26.7 36.3 26.7 36.4 26.7C37 26.4 37.7 26.4 38.3 26.7C38.6 26.8 38.8 27 39.1 27.2L40 28.1L40.2 28.3L40.4 28.5L40.7 28.8L42.7 30.8C43 30.8 43.2 30.9 43.5 30.9C43.7 30.9 43.9 30.9 44.2 30.8L39.7 26.5ZM35.9 25.8L34.1 26.6L31.9 24.4C31.8 24.3 31.7 24.3 31.5 24.3H24.4C23.6 24.3 22.9 23.8 22.8 23C22.7 22.6 22.9 22.1 23.1 21.8C23.4 21.5 23.8 21.3 24.2 21.3H32.2C32.6 21.3 33 21.5 33.3 21.7L37.2 25.6C37 25.6 36.7 25.6 36.5 25.7C36.4 25.6 36.1 25.7 35.9 25.8Z" fill="black"/>
<path d="M37.6 30.1C37.5 30 37.3 29.9 37.1 30H37C37 30 37 30 36.9 30C36.8 30.1 36.7 30.3 36.8 30.4C36.8 30.5 36.9 30.6 36.9 30.7C37 30.7 37.1 30.6 37.2 30.6C37.3 30.6 37.3 30.5 37.4 30.5C37.6 30.4 37.7 30.3 37.8 30.2L37.6 30.1Z" fill="black"/>
<path d="M8.19998 32.6C6.99998 32.1 5.69998 32.6 4.99998 33.6C4.59998 34.2 4.49998 35 4.69998 35.7C4.89998 36.4 5.39998 37 6.09998 37.2L15.3 41C15.6 41.1 15.9 41.2 16.3 41.2C16.6 41.2 16.9 41.1 17.3 41L28.4 36.4L38.4 32.3L41.8 35.7C42.3 36.2 42.9 36.4 43.6 36.4H51V39.5C51 40.9 52.1 42 53.5 42H57.5C58.9 42 60 40.9 60 39.5V32C59.8 32 59.7 32 59.5 32C59.3 32 59.2 32 59 32V39.5C59 40.3 58.3 41 57.5 41H53.5C52.7 41 52 40.3 52 39.5V36.4C52.6 36.3 53.1 36 53.5 35.6C54 35 54.2 34.3 54.1 33.6C54 32.9 53.5 32.2 52.9 31.9C52.6 31.9 52.3 32 52 32C52 32 52 32 51.9 32C51.8 32 51.6 32 51.5 32C51.3 32 51.2 32 51 32C50.9 32 50.7 32 50.6 32C50.1 31.9 49.6 31.7 49.2 31.5H45.9C45.5 31.7 45 31.9 44.5 32C44.3 32 44.1 32 43.9 32.1L44.2 32.4C44.3 32.5 44.4 32.5 44.6 32.5H51H51.5C51.7 32.5 51.8 32.5 52 32.6C52.6 32.8 53 33.2 53.1 33.8C53.2 34.2 53 34.7 52.8 35C52.6 35.2 52.3 35.4 52 35.5C51.9 35.5 51.8 35.5 51.6 35.5H51.5H51H43.6C43.2 35.5 42.8 35.3 42.5 35.1L39.3 31.9L39 31.4L38.6 31C38.5 31.1 38.3 31.2 38.2 31.3C38.1 31.4 37.9 31.4 37.8 31.5H37.7C37.5 31.6 37.4 31.7 37.2 31.7L28.6 35.3L28 34.1C28 34.1 28 34.1 28 34L27.6 33L27.2 32C27 32 26.8 32 26.6 31.9C26.4 31.9 26.2 31.8 26 31.7L26.3 32.4L26.6 33L26.7 33.3L27.6 35.4L27.7 35.6L27.5 35.7L24.8 36.8L23.6 37.3L17 40.1C16.6 40.3 16.2 40.3 15.9 40.1L6.69998 36.3C6.29998 36.1 5.99998 35.8 5.79998 35.4C5.69998 35 5.69998 34.5 5.99998 34.1C6.29998 33.7 6.79998 33.4 7.29998 33.4C7.49998 33.4 7.69998 33.4 7.99998 33.5L13 35.6L14.2 36.1L16.1 36.9L16.4 37C16.5 37.1 16.7 37.1 16.8 37L17.1 36.9L18.3 36.4L23.4 34.3C23.5 34.2 23.6 34.2 23.7 34C23.8 33.8 23.8 33.7 23.7 33.6C23.7 33.5 23.6 33.4 23.6 33.4C23.6 33.2 23.6 33.1 23.6 32.9C23.6 32.7 23.7 32.6 23.7 32.4C23.9 32.1 24.1 31.8 24.5 31.7L25.2 31.4C25 31.3 24.9 31.2 24.7 31.1C24.5 31 24.4 30.9 24.2 30.7H24.1C23.5 31 23 31.4 22.7 32.1C22.7 32.2 22.7 32.3 22.6 32.4H16.8L15 30.7C14.9 30.8 14.7 30.9 14.6 31C14.5 31.1 14.3 31.2 14.2 31.3L16.1 33.2C16.2 33.3 16.3 33.3 16.5 33.3H22.4V33.4L16.4 35.9L13.4 34.7L10.6 31.9C10.3 31.8 9.89998 31.7 9.59998 31.6C8.99998 31.4 8.49998 31 7.99998 30.6L7.49998 30.2L11 33.7L8.19998 32.6Z" fill="#7F7C7C"/>
<path d="M57.5 21H53.5C52.1 21 51 22.1 51 23.5V31C51.2 31 51.3 31 51.5 31C51.7 31 51.8 31 52 31V23.5C52 22.7 52.7 22 53.5 22H57.5C58.3 22 59 22.7 59 23.5V31C59.3 31 59.7 31 60 31V23.6C60 22.2 58.9 21 57.5 21Z" fill="#FCB019"/>
<path d="M0 30.7C1.9 32.5 5.1 32.5 7 30.7L7.4 30.3L8 30.7C8.5 31.1 9 31.5 9.6 31.7C9.9 31.8 10.3 31.9 10.6 32C11.8 32.2 13.1 32 14.2 31.4C14.3 31.3 14.5 31.2 14.6 31.1C14.7 31 14.9 30.9 15 30.8C15 30.8 15 30.8 15.1 30.8L15.6 30.4L16.1 30.8C18 32.6 21.2 32.6 23.1 30.8L23.6 30.4L24.1 30.8C24.2 30.9 24.4 31 24.6 31.2C24.8 31.3 24.9 31.4 25.1 31.5C25.4 31.7 25.7 31.8 26.1 31.9C26.3 32 26.5 32 26.7 32.1C26.9 32.1 27.1 32.1 27.3 32.2C28.7 32.3 30.1 31.9 31.2 30.9L31.7 30.5L32.2 30.9C33.6 32.2 35.6 32.6 37.4 32C37.6 31.9 37.8 31.9 37.9 31.8H38C38.1 31.7 38.3 31.7 38.4 31.6C38.5 31.5 38.7 31.4 38.8 31.3C39 31.2 39.1 31.1 39.3 31L39.6 30.7L39.7 30.6L40 30.9L40.1 31C40.2 31.1 40.3 31.1 40.3 31.2C41.2 32 42.4 32.4 43.6 32.4C43.7 32.4 43.8 32.4 43.9 32.4C44.1 32.4 44.3 32.4 44.5 32.3C45 32.2 45.5 32 45.9 31.8C46.3 31.6 46.7 31.3 47.1 31L47.6 30.6L48.1 31C48.4 31.3 48.8 31.6 49.3 31.8C49.8 32 50.2 32.2 50.7 32.3C50.8 32.3 51 32.3 51.1 32.3C51.3 32.3 51.4 32.3 51.6 32.3C51.7 32.3 51.9 32.3 52 32.3C52 32.3 52 32.3 52.1 32.3C52.4 32.3 52.7 32.2 53 32.1C53.3 32 53.5 31.9 53.8 31.8C54.3 31.6 54.7 31.3 55.1 30.9L55.6 30.5L56.1 30.9C56.5 31.3 56.9 31.5 57.4 31.8C57.9 32 58.5 32.2 59.1 32.3C59.3 32.3 59.4 32.3 59.6 32.3C59.8 32.3 59.9 32.3 60.1 32.3C61.2 32.2 62.3 31.8 63.1 31V30V29.3L62.4 29.9C61.8 30.5 60.9 30.8 60.1 30.9C59.8 30.9 59.4 30.9 59.1 30.9C58.2 30.8 57.4 30.5 56.8 29.9L56 29.1C55.8 28.9 55.5 28.9 55.3 29.1L54.5 29.9C53.8 30.5 53 30.9 52.2 31C52 31 51.9 31 51.7 31C51.5 31 51.4 31 51.2 31C50.3 30.9 49.5 30.6 48.9 29.9L48.1 29.1C47.9 28.9 47.6 28.9 47.4 29.1L46.6 29.9C46 30.5 45.2 30.8 44.4 30.9C44.2 30.9 44 31 43.7 31C43.4 31 43.2 31 42.9 30.9C42.1 30.8 41.4 30.4 40.8 29.9L40.4 29.5H40.3L40 29.2C40 29.2 40 29.2 39.9 29.2C39.7 29.1 39.5 29.1 39.3 29.2L39 29.5L38.5 30C38.4 30.1 38.2 30.2 38.1 30.3C38 30.4 37.8 30.5 37.7 30.6C37.6 30.6 37.6 30.7 37.5 30.7C37.4 30.7 37.3 30.8 37.2 30.8C35.8 31.3 34.1 31 32.9 30L32.1 29.2C31.9 29 31.6 29 31.4 29.2L30.6 30C29.6 30.9 28.2 31.3 27 31C26.8 31 26.6 30.9 26.4 30.8C26.2 30.7 26.1 30.7 25.9 30.6C25.8 30.6 25.8 30.6 25.7 30.5C25.6 30.4 25.4 30.3 25.3 30.3C25.2 30.2 25 30.1 24.9 30L24.1 29.2C23.9 29 23.6 29 23.4 29.2L22.6 30C21 31.5 18.5 31.5 16.9 30L16.1 29.2C15.9 29 15.6 29 15.4 29.2L14.6 30C14.6 30 14.5 30 14.5 30.1C14.4 30.2 14.2 30.3 14.1 30.4C14 30.5 13.8 30.6 13.7 30.7C12.2 31.5 10.2 31.3 8.9 30.1L8.1 29.3C8.1 29.3 8 29.2 7.9 29.2C7.7 29.1 7.5 29.2 7.4 29.3L7 29.6L6.6 30C5 31.5 2.5 31.5 0.9 30L0 29.3V30V30.7Z" fill="#2A76BC"/>
</g>
<defs>
<clipPath id="clip0_323_21411">
<rect width="63" height="63" fill="white"/>
</clipPath>
</defs>
</svg>
