<svg width="63" height="63" viewBox="0 0 63 63" fill="none" xmlns="http://www.w3.org/2000/svg">
<g clip-path="url(#clip0_323_21382)">
<path d="M15.9 11.5C16.2 11.6 16.4 11.6 16.7 11.6L15.1 10C14.9 9.8 14.8 9.5 14.8 9.2C14.8 8.9 15 8.6 15.2 8.5C15.4 8.4 15.5 8.3 15.7 8.3C16 8.3 16.3 8.4 16.5 8.6L18.6 10.7L19 10.4L19.2 10.2C19.3 10.1 19.4 10.1 19.5 10.1L17.3 7.9C16.6 7.2 15.4 7.1 14.7 7.6C14.2 7.9 13.9 8.5 13.9 9.1C13.9 9.7 14.1 10.3 14.5 10.7L14.6 10.8C14.9 11.1 15.4 11.4 15.9 11.5Z" fill="black"/>
<path d="M41.6 8.6C42.3 8.6 43 8.3 43.5 7.8C44.6 6.7 44.6 5 43.5 3.9C42.5 2.9 40.6 2.9 39.6 3.9C39.1 4.4 38.8 5.1 38.8 5.8C38.8 6.5 39.1 7.2 39.6 7.7C40.1 8.4 40.8 8.6 41.6 8.6ZM40.3 4.7C40.6 4.4 41.1 4.2 41.5 4.2C41.9 4.2 42.4001 4.4 42.7001 4.7C43.4001 5.4 43.4001 6.5 42.7001 7.2C42.0001 7.9 40.9001 7.9 40.2001 7.2C39.9001 6.9 39.7001 6.4 39.7001 6C39.7001 5.6 40 5 40.3 4.7Z" fill="black"/>
<path d="M28.4 11.5C28.6 11.5 28.8 11.5 28.9 11.5C29.1 11.5 29.2 11.4 29.4 11.4C29.8 11.3 30.2 11.1 30.5 10.8L31 10.4L31.2 10.3C31.3 10.2 31.5 10.1 31.7 10.2C31.8 10.2 31.9 10.3 31.9 10.3L32.2 10.5L34.8 9.4L35.3 9.2L35.8 9L36.8 8.6C37.3 8.4 37.9 8.4 38.4 8.7C38.6 8.8 38.7 8.9 38.8 9L39.7 9.9L40.1 10.3L40.2 10.4L41.2 11.4C41.4 11.4 41.6 11.3 41.8 11.2C42 11.1 42.1 11.1 42.3 11L39.5 8.1C39.4 8 39.2 7.8 39.1 7.7L35.5 4.1C35.1 3.7 34.6 3.5 34.1 3.5H28.1C27.5 3.5 27 3.8 26.6 4.2C26.2 4.6 26.1 5.2 26.1 5.8C26.2 6.8 27.1 7.5 28.2 7.5H33.3L34.3 8.5L29 10.7L27.7 11.2C28 11.3 28.2 11.4 28.5 11.4C28.2 11.5 28.3 11.5 28.4 11.5ZM33.5 6.8C33.4 6.7 33.3 6.7 33.1 6.7H27.8C27.3 6.7 26.8 6.3 26.7 5.9C26.7 5.6 26.7 5.3 26.9 5.1C27.1 4.9 27.4 4.7 27.7 4.7H33.7C34 4.7 34.2 4.8 34.4 5L37 7.4C36.8 7.4 36.5 7.5 36.3 7.6L34.9 8.2L33.5 6.8Z" fill="black"/>
<path d="M7.79995 11.5C9.29995 12.9 11.8 12.9 13.3 11.5L13.6 11.2L13.9 11.5C15.4 12.9 17.9 12.9 19.4 11.5L19.7 11.2L20 11.5C21.5 12.9 24 12.9 25.5 11.5L25.7999 11.2L26.1 11.5C27.6 12.9 30.1 12.9 31.6 11.5L31.9 11.2L32.2 11.5C33.7 12.9 36.2 12.9 37.7 11.5L38 11.2L38.2999 11.5C39.7999 12.9 42.2999 12.9 43.7999 11.5L44.0999 11.2L44.4 11.5C45.9 12.9 48.4 12.9 49.9 11.5L50.2 11.2L50.5 11.5C51.2 12.2 52.2 12.6 53.2 12.6C54.2 12.6 55.2 12.2 55.9 11.5L56.5 10.9C56.7 10.7 56.7 10.4 56.5 10.2C56.4 10.1 56.2999 10 56.0999 10C56 10 55.8999 10 55.7999 10.1L55.2 10.7C54.1 11.7 52.1999 11.7 51.0999 10.7L50.5 10.1C50.2999 9.9 50 9.9 49.7999 10.1L49.2 10.7C48.1 11.8 46.1999 11.8 45.0999 10.7L44.5 10.1C44.2999 9.9 44 9.9 43.7999 10.1L43.2 10.7C43.1 10.8 42.8999 10.9 42.7999 11C42.5999 11.1 42.5 11.2 42.2999 11.2C42.0999 11.3 41.9 11.3 41.7 11.4C41.2999 11.5 40.8 11.5 40.4 11.3C40.3 11.3 40.2 11.2 40 11.2C40 11.2 39.9 11.2 39.9 11.1C39.8 11 39.5999 11 39.5 10.9C39.4 10.8 39.1999 10.7 39.0999 10.6L38.5 10C38.5 10 38.5 10 38.4 10C38.2 9.9 37.9 9.9 37.7999 10L37 10.3L36.5999 10.6L36.5 10.7C36.4 10.8 36.3 10.8 36.2 10.9C35.1 11.7 33.4 11.7 32.4 10.7L32 10.4L31.7 10.2C31.6 10.1 31.6 10.1 31.5 10.1C31.2999 10.1 31.2 10.1 31 10.2V10.3L30.5 10.7C30.2 11 29.7999 11.2 29.4 11.3C29.1999 11.4 29.1 11.4 28.9 11.4C28.6999 11.4 28.5 11.4 28.4 11.4C28.2999 11.4 28.2 11.4 28.1 11.4C27.8 11.4 27.5999 11.3 27.2999 11.2C27 11.1 26.6999 10.9 26.4 10.6L25.7999 10C25.5999 9.8 25.3 9.8 25.1 10L24.5 10.6C23.4 11.7 21.5 11.7 20.4 10.6L19.8 10C19.7 9.9 19.5 9.9 19.4 9.9C19.3 9.9 19.2 10 19.1 10L19 10.3L18.6 10.6L18.5 10.7C18 11.2 17.3 11.4 16.6 11.5C16.3 11.5 16.1 11.5 15.8 11.4C15.3 11.3 14.8 11.1 14.4 10.7L13.8 10.1C13.6 9.9 13.3 9.9 13.1 10.1L12.5 10.7C11.4 11.8 9.49995 11.8 8.39995 10.7L7.79995 10.1C7.69995 10.1 7.59995 10 7.49995 10C7.39995 10 7.19995 10.1 7.09995 10.2C6.89995 10.4 6.89995 10.7 7.09995 10.9L7.79995 11.5Z" fill="#2A76BC"/>
<path d="M45.3 28.6H46.7001L51.4001 23.9C53.0001 22.3 55.1001 21.4 57.4001 21.4H58.4001V31.5C58.4001 32 58 32.4 57.5 32.4C57.2 32.4 56.9001 32.2 56.7001 31.9L54.9001 28.8C54.8001 28.6 54.4001 28.5 54.2001 28.6C54.0001 28.7 53.9 29 54 29.3L55.8 32.4C56.1 33 56.8 33.3 57.5 33.3C58.6 33.3 59.4001 32.4 59.4001 31.4V21.4H60.4001C60.7001 21.4 60.9001 21.2 60.9001 20.9C60.9001 20.6 60.7001 20.4 60.4001 20.4H59H57.5C55 20.4 52.6 21.4 50.8 23.2L45.3 28.6Z" fill="#FCB019"/>
<path d="M26.7 33.9C24.2 33.9 21.8 34.9 20 36.7L19.6 37C19.4 37.2 19.4 37.5 19.6 37.7C19.7 37.8 19.8 37.8 20 37.8C20.2 37.8 20.3 37.8 20.4 37.7L20.8 37.3C22.4 35.7 24.5 34.8 26.8 34.8H35.2L34.2 33.8H26.7V33.9Z" fill="#FCB019"/>
<path d="M41.5 32.3C40.8 32.8 40.1 33.1 39.3 33.4L40.1 34.2C41 33.8 41.9001 33.3 42.7001 32.6H42.5C42.1 32.6 41.8 32.5 41.5 32.3Z" fill="#FCB019"/>
<path d="M46.2 23.6C47.7 23.6 49 22.4 49 20.8C49 19.2 47.8 18 46.2 18C44.6 18 43.4 19.2 43.4 20.8C43.4 22.4 44.7 23.6 46.2 23.6ZM46.2 19.1C47.2 19.1 48 19.9 48 20.9C48 21.9 47.2 22.7 46.2 22.7C45.2 22.7 44.4 21.9 44.4 20.9C44.4 19.9 45.3 19.1 46.2 19.1Z" fill="black"/>
<path d="M44.5 28.6V24.6C44.5 24.1 44.3 23.6 43.9 23.2C42.9 22.2 41.1 22.2 40 23.2L34.2 29L33.1 30.1C32.3 30.9 32.3 32.1 33.1 32.9L34.1 33.9L35.1 34.9L37.5 37.3L33.6 41.2C32.8 42 32.8 43.2 33.6 44C34 44.4 34.5 44.6 35 44.6C35.5 44.6 36 44.4 36.4 44L41.7 38.7C42.1 38.3 42.3 37.8 42.3 37.3C42.3 36.8 42.1 36.3 41.7 35.9L40 34.2L39.2 33.4L38.4 32.6L40.5 30.5V30.6C40.5 31.3 40.9 31.9 41.4 32.3C41.7 32.5 42.1 32.6 42.5 32.6H42.7H48.5C49.6 32.6 50.5 31.7 50.5 30.6C50.5 29.5 49.6 28.6 48.5 28.6H46.7H45.3H44.5ZM39 34.5L41.1 36.6C41.3 36.8 41.4 37 41.4 37.3C41.4 37.6 41.3 37.8 41.1 38L35.8 43.3C35.4 43.7 34.8 43.7 34.4 43.3C34 42.9 34 42.3 34.4 41.9L38.6 37.7C38.8 37.5 38.8 37.2 38.6 37L36.5 34.9L35.5 33.9L33.8 32.2C33.4 31.8 33.4 31.2 33.8 30.8L34.5 30.1L35.7 31.3L38.2 33.8L39 34.5ZM48.5 29.6C49.1 29.6 49.5 30 49.5 30.6C49.5 31.2 49.1 31.6 48.5 31.6H43.7H42.5C42.4 31.6 42.4 31.6 42.3 31.6C41.8 31.5 41.5 31.1 41.5 30.6V29.5V28.1V26.9C41.5 26.7 41.4 26.6 41.3 26.5C41.2 26.4 41.1 26.4 41 26.4C40.7 26.4 40.5 26.6 40.5 26.9V29.1L37.7 31.9L36.5 30.7L35.2 29.4L40.7 23.9C41.4 23.2 42.5 23.2 43.2 23.9C43.2 23.9 43.2 23.9 43.2 24C43.4 24.2 43.5 24.4 43.5 24.7V26.3V27.6V29.2C43.5 29.5 43.7 29.7 44 29.7H44.3H45.7H48.5V29.6Z" fill="black"/>
<path d="M52.3 41.8C51.8 42.3 51.5 43 51.5 43.7C51.5 44.4 51.8 45.1 52.3 45.6C52.8 46.1 53.5 46.4 54.2 46.4C54.9 46.4 55.6 46.1 56.1 45.6C57.2 44.5 57.2 42.8 56.1 41.7C55.1 40.7 53.3 40.7 52.3 41.8ZM55.5 44.9C54.8 45.6 53.7 45.6 53 44.9C52.7 44.6 52.5 44.1 52.5 43.7C52.5 43.3 52.7 42.8 53 42.5C53.3 42.2 53.8 42 54.2 42C54.6 42 55.1 42.2 55.4 42.5C56.1 43.1 56.1 44.3 55.5 44.9Z" fill="black"/>
<path d="M29.5 49H33.2999H33.5V49.5H29.5C30.2 49.5 30.9 49.9 31.2 50.5H34C34.3 50.5 34.5 50.3 34.5 50V48.5C34.5 48.2 34.3 48 34 48H33.7999V47.8C33.7999 47.5 33.5999 47.3 33.2999 47.3C32.9999 47.3 32.7999 47.5 32.7999 47.8V48H29.6C28.7 48 27.9 48.6 27.7 49.5H28.7999C28.7999 49.2 29.1 49 29.5 49Z" fill="#00A64F"/>
<path d="M17.5 43.5C16 43.5 14.7 44.7 14.7 46.3C14.7 47.9 16 49 17.5 49C19 49 20.3 47.8 20.3 46.2C20.3 44.6 19 43.5 17.5 43.5ZM17.5 48C16.5 48 15.7 47.2 15.7 46.2C15.7 45.2 16.5 44.4 17.5 44.4C18.5 44.4 19.3 45.2 19.3 46.2C19.3 47.2 18.5 48 17.5 48Z" fill="black"/>
<path d="M10.5 14.9C8.99995 14.9 7.69995 16.1 7.69995 17.6C7.69995 19.1 8.89995 20.4 10.5 20.4C12.1 20.4 13.3 19.2 13.3 17.6C13.3 16 12 14.9 10.5 14.9ZM10.5 19.4C9.49995 19.4 8.69995 18.6 8.69995 17.6C8.69995 16.6 9.49995 15.9 10.5 15.9C11.5 15.9 12.3 16.7 12.3 17.6C12.3 18.5 11.5 19.4 10.5 19.4Z" fill="black"/>
<path d="M20.5 25.7C20.6 25.7 20.6 25.6 20.7 25.6C20.7 25.6 20.6 25.6 20.5 25.7Z" fill="black"/>
<path d="M20.5 24C20.6 24.1 20.6 24.1 20.7 24.2C20.7 24.1 20.6 24 20.5 24Z" fill="black"/>
<path d="M19.5 23.3V23.8V25.8V26.3C19.5 26.6 19.7 26.8 20 26.8C20.9 26.8 21.7 26.2 21.9 25.3H33.7C34 25.3 34.2 25.1 34.2 24.8C34.2 24.5 34 24.3 33.7 24.3H22C21.8 23.4 21 22.8 20.1 22.8C19.8 22.8 19.5 23.1 19.5 23.3ZM20.5 25.7V24C20.6 24 20.6 24.1 20.7 24.2C20.8 24.3 20.8 24.4 20.9 24.5V24.6C20.9 24.7 21 24.8 21 24.9C21 25 21 25.1 20.9 25.2V25.3C20.9 25.4 20.8 25.5 20.7 25.6C20.7 25.6 20.6 25.7 20.5 25.7Z" fill="#EE2B2F"/>
<path d="M60.4 46C59.6 45.2 58.4 45.2 57.6 46L54.8 48.8L51.9 46L47.7 41.8C46.9 41 45.7 41 44.9 41.8L40.6 46C39.8 46.8 39.8 48 40.6 48.8C41 49.2 41.5 49.4 42 49.4C42.5 49.4 43 49.2 43.4 48.8L46.2 46L47.1 46.9L42.1 51.9L41 53C40.6 53.4 40.4 54 40.4 54.6L32.1 63H33.5L41 55.5C41.1 55.6 41.1 55.6 41.2 55.7L42.4 56.9L36.3 63H37.7L43.1 57.6L45.6 60.1L42.7 63H44.1L46.6 60.5C46.7 60.4 46.7 60.3 46.7 60.1C46.7 59.9 46.6 59.8 46.6 59.7L43.8 57L43.4 56.6L43 56.2L41.9 55C41.8 54.9 41.8 54.9 41.8 54.8C41.7 54.6 41.6 54.4 41.7 54.2C41.7 54 41.8 53.7 42 53.6L42.7 52.9L42.8 52.8L43.2 53.2L44 54L44.8 54.8L45.1 55.1L45.3 55.3L49.4 59.4C49.6 59.6 49.7 59.8 49.7 60.1C49.7 60.4 49.6 60.6 49.4 60.8L46.9 63H48.3L49.8 61.5C50.6 60.7 50.6 59.5 49.8 58.7L46.4 55.3L51 50.7L53.3 53C53.7 53.4 54.2 53.6 54.7 53.6C55.2 53.6 55.7 53.4 56.1 53L60.3 48.8C61.2 48.1 61.2 46.8 60.4 46ZM46.6 44.9C46.4 44.7 46.1 44.7 45.9 44.9L42.7 48.1C42.3 48.5 41.7 48.5 41.3 48.1C40.9 47.7 40.9 47.1 41.3 46.7L45.5 42.5C45.9 42.1 46.5 42.1 46.9 42.5L49.7 45.3C49.1 45.3 48.4 45.6 48 46.1L47.8 46.3L46.6 44.9ZM59.7 48.1L55.5 52.3C55.3 52.5 55.1 52.6 54.8 52.6C54.5 52.6 54.3 52.5 54.1 52.3L51.8 50L51.4 49.6L51 49.2L50.3 48.5C50.3 48.5 50.2 48.5 50.2 48.4C50.1 48.3 50 48.3 49.9 48.3C49.8 48.3 49.7 48.4 49.6 48.4C49.5 48.5 49.5 48.6 49.5 48.7C49.5 48.8 49.5 49 49.6 49.1L50.3 49.8L45.7 54.4L45.3 54L44.5 53.2L43.3 52L47.9 47.4L48.3 47L48.7 46.6L48.9 46.4C49.6 45.7 50.7 45.7 51.4 46.4L51.5 46.5L52.4 47.4L52.9 47.9L54.6 49.6C54.8 49.8 55.1 49.8 55.3 49.6L58.5 46.4C58.9 46 59.5 46 59.9 46.4C60.1 47.1 60.1 47.7 59.7 48.1Z" fill="black"/>
<path d="M29.5 49.5H28.6H27.5H17.5C16 49.5 14.7 50.7 14.7 52.3V60.5V63H15.7V61H19.2V63H20.2V60.5V53.5H29.5C30.6 53.5 31.5 52.6 31.5 51.5C31.5 51.1 31.4 50.8 31.2 50.5C30.9 49.9 30.2 49.5 29.5 49.5ZM29.5 52.5H19.7H18.2C17.9 52.5 17.7 52.7 17.7 53C17.7 53.3 17.9 53.5 18.2 53.5H19.2V60H15.7V52.2C15.7 51.2 16.5 50.4 17.5 50.4H28H29.5C30.1 50.4 30.5 50.8 30.5 51.4C30.5 52 30.1 52.5 29.5 52.5Z" fill="black"/>
<path d="M13.3 26.7C13.5 26.8 13.8 26.9 14.1 26.9H20.1C19.8 26.9 19.6 26.7 19.6 26.4V25.9H14.1C14 25.9 13.8 25.9 13.7 25.8L9.5 24C9.2 23.9 9 24 8.8 24.3C8.7 24.6 8.8 24.8 9.1 25L9.3 25.1L6.8 31.1L3.6 29.8L5.9 24.3L6.6 22.7C6.7 22.3 6.8 22.2 7 22C7.2 21.8 7.4 21.7 7.6 21.6C8 21.4 8.5 21.4 8.9 21.6L14.2 23.8C14.3 23.8 14.3 23.8 14.4 23.8H19.6V23.3C19.6 23 19.8 22.8 20.1 22.8H14.5L9.3 20.7C9 20.6 8.6 20.5 8.3 20.5H0.1V21.5H6.2C6 21.7 5.9 21.9 5.8 22.2L5.3 23.5H0.2V24.5H4.9L2.7 29.8L2.1 31.2C2 31.5 1.9 31.8 2 32.1L0 33.8V35.2L2.1 33.1C2.3 33.4 2.6 33.7 3 33.8L3.9 34.2L0 37.9V39.3L4.9 34.6L9.4 36.5V42.7C9.4 43.8 10.3 44.7 11.4 44.7C12.5 44.7 13.4 43.8 13.4 42.7V35.2C13.4 34.4 12.9 33.7 12.2 33.4L7.8 31.6L10.3 25.6L13.3 26.7ZM11.8 34.2C12.2 34.4 12.4 34.7 12.4 35.1V42.6C12.4 43.2 12 43.6 11.4 43.6C10.8 43.6 10.4 43.2 10.4 42.6V36.1C10.4 35.9 10.3 35.7 10.1 35.6L3.4 32.8C2.9 32.6 2.6 32 2.9 31.5L3.3 30.6L7 32.1L11.8 34.2Z" fill="black"/>
</g>
<defs>
<clipPath id="clip0_323_21382">
<rect width="63" height="63" fill="white"/>
</clipPath>
</defs>
</svg>
