<svg width="63" height="63" viewBox="0 0 63 63" fill="none" xmlns="http://www.w3.org/2000/svg">
<path d="M14.7 22.2C16 21.8 17.1 20.8 17.7 19.6L20.6 13.7C21.2 12.5 22.4 11.6 23.7 11.4C25.1 11.2 26.4 11.6 27.4 12.6C29.4 14.6 32.8 14.6 34.8 12.6L39 8.5L44.5 19.4V19.5C44.6 19.4 44.8 19.3 45 19.2C45.1 19.1 45.3 19.1 45.4 19.1L39.6 7.4C39.5 7.3 39.4 7.2 39.2 7.1C39 7.1 38.9 7.1 38.8 7.2L34.2 11.8C32.5 13.5 29.9 13.5 28.2 11.8C27 10.6 25.3 10.1 23.7 10.3C22 10.6 20.6 11.6 19.9 13.1L17 19C16.5 20 15.6 20.8 14.5 21.1C13.4 21.5 12.3 21.4 11.3 20.9L0 15.5V16.6L10.7 21.9C11.9 22.6 13.3 22.7 14.7 22.2Z" fill="#EE2B2F"/>
<path d="M47.1 23.7C47.2 23.6 47.2 23.7 47.1 23.7C47.2 23.6 47.2 23.6 47.1 23.7C47.2 23.6 47.1 23.7 47.1 23.7Z" fill="#EE2B2F"/>
<path d="M28.1 24.6C28.5 24.6 29 24.5 29.4 24.3C31.2 23.6 32 21.5 31.3 19.7C30.9 18.8 30.3 18.2 29.4 17.8C28.5 17.4 27.6 17.4 26.7 17.8C25.8 18.2 25.2 18.8 24.8 19.7C24.4 20.6 24.4 21.5 24.8 22.4C25.4 23.8 26.7 24.6 28.1 24.6ZM25.7 20.1C26 19.5 26.4 19 27.1 18.7C27.4 18.6 27.7 18.5 28.1 18.5C28.4 18.5 28.7 18.6 29.1 18.7C29.7 19 30.2 19.4 30.5 20.1C31 21.4 30.4 22.8 29.1 23.4C27.8 23.9 26.4 23.3 25.8 22C25.5 21.4 25.5 20.7 25.7 20.1Z" fill="black"/>
<path d="M44.5001 19.4L30.2001 25.3L15.4001 31.4C14.1001 31.9 13.5001 33.4 14.0001 34.7C14.4001 35.7 15.3001 36.2 16.3001 36.2C16.6001 36.2 16.9001 36.1 17.3001 36L28.0001 31.6V39.5V41.5L15.6001 53.9C14.6001 54.9 14.6001 56.5 15.6001 57.4C16.1001 57.9 16.7001 58.1 17.4001 58.1C18.0001 58.1 18.7001 57.9 19.2001 57.4L32.5001 44H51.5001C52.9001 44 54.0001 42.9 54.0001 41.5C54.0001 40.1 52.9001 39 51.5001 39H35.0001V28.7L46.9001 23.8C47.0001 23.8 47.1001 23.7 47.2001 23.7C47.2001 23.7 47.2001 23.7 47.3001 23.7C47.3001 23.7 47.4001 23.7 47.4001 23.6C47.5001 23.5 47.6001 23.4 47.8001 23.3L47.9001 23.2C48.0001 23.1 48.1001 23 48.1001 22.9V22.8C48.2001 22.7 48.2001 22.6 48.3001 22.5C48.3001 22.5 48.3001 22.5 48.3001 22.4C48.4001 22.3 48.4001 22.1 48.4001 22V21.9C48.4001 21.8 48.4001 21.7 48.4001 21.5C48.4001 21.4 48.4001 21.3 48.4001 21.2C48.4001 21.1 48.4001 21.1 48.4001 21C48.4001 20.8 48.3001 20.7 48.3001 20.5C48.2001 20.3 48.2001 20.2 48.1001 20.1C47.8001 19.7 47.4001 19.4 47.0001 19.2C46.5001 19 46.0001 19 45.5001 19.1C45.3001 19.1 45.2001 19.2 45.1001 19.2C44.8001 19.3 44.6001 19.3 44.5001 19.4ZM16.9001 35.1C16.1001 35.4 15.3001 35.1 14.9001 34.3C14.6001 33.5 14.9001 32.7 15.7001 32.3L28.2001 27.1L28.6001 26.9L28.9001 26.8L30.2001 26.3C30.3001 26.3 30.3001 26.2 30.4001 26.2C30.7001 26.1 31.0001 26 31.4001 26C32.6001 26 33.6001 26.9 33.9001 28C33.9001 28.2 33.9001 28.3 33.9001 28.5V29.1V39H28.9001V31.2L30.1001 30.7C30.4001 30.6 30.5001 30.3 30.4001 30C30.3001 29.8 30.2001 29.7 30.0001 29.7C29.9001 29.7 29.9001 29.7 29.8001 29.7L29.0001 30.1L28.5001 30.3L28.0001 30.5L16.9001 35.1ZM18.4001 56.7C17.8001 57.3 16.9001 57.3 16.3001 56.7C15.7001 56.1 15.7001 55.2 16.3001 54.6L28.3001 42.6C28.7001 43.4 29.6001 44 30.5001 44H31.1001L18.4001 56.7ZM51.5001 40C52.3001 40 53.0001 40.7 53.0001 41.5C53.0001 42.3 52.3001 43 51.5001 43H33.5001H32.8001H32.1001H30.5001C29.8001 43 29.2001 42.5 29.0001 41.8C29.0001 41.7 29.0001 41.6 29.0001 41.5V41.2V40.5V40H29.5001H30.2001H31.5001H31.6001H32.9001H33.6001H34.6001H51.5001ZM34.9001 27.7C34.6001 26.6 33.8001 25.7 32.8001 25.3L43.5001 20.9C43.4001 21.4 43.4001 22 43.6001 22.5C43.8001 23 44.2001 23.4 44.6001 23.7L34.9001 27.7ZM45.9001 20C46.1001 20 46.3001 20 46.5001 20.1C46.9001 20.3 47.2001 20.5 47.3001 20.9C47.5001 21.3 47.5001 21.7 47.3001 22C47.2001 22.1 47.2001 22.2 47.1001 22.3C47.1001 22.4 47.0001 22.4 47.0001 22.5C46.9001 22.6 46.7001 22.7 46.5001 22.8C46.4001 22.8 46.3001 22.9 46.3001 22.9C46.0001 23 45.7001 22.9 45.4001 22.8C45.0001 22.6 44.7001 22.4 44.6001 22C44.3001 21.4 44.5001 20.7 45.0001 20.3C45.1001 20.2 45.2001 20.1 45.4001 20C45.5001 20 45.7001 20 45.9001 20Z" fill="black"/>
</svg>
