<svg width="63" height="63" viewBox="0 0 63 63" fill="none" xmlns="http://www.w3.org/2000/svg">
<path d="M40.7 22.9C41.6 22.9 42.5 22.6 43.2 21.9C44.6 20.5 44.6 18.3 43.2 17C41.8 15.6 39.6 15.6 38.3 17C36.9 18.4 36.9 20.6 38.3 21.9C38.9 22.6 39.8 22.9 40.7 22.9ZM39 17.6C39.5 17.1 40.1 16.9 40.8 16.9C41.5 16.9 42.1 17.1 42.6 17.6C43.6 18.6 43.6 20.2 42.6 21.1C41.6 22.1 40 22.1 39.1 21.1C38.2 20.1 38 18.6 39 17.6Z" fill="black"/>
<path d="M20.6 47H12.6C12.3 47 12.1 47.2 12.1 47.5C12.1 47.8 12.3 48 12.6 48H20.6C20.9 48 21.1 47.8 21.1 47.5C21.1 47.2 20.9 47 20.6 47Z" fill="#EE2B2F"/>
<path d="M45.4 22.7L41.5 26.6L37.6 22.7L37.5 22.6L26.3 11.4C25.4 10.5 23.7 10.5 22.8 11.4C22.3 11.9 22.1 12.5 22.1 13.2C22.1 13.9 22.4 14.5 22.8 15L29.5 21.7H24.1C23.2 21.7 22.3 22.1 21.7 22.7C21.7 22.7 21.7 22.7 21.6 22.7L20.2 24C19.2 25 19.2 26.5 20.2 27.5V35.4L13.9 41.7C13 42.6 12.9 44 13.6 45C14 45.6 14.7 46 15.4 46C15.5 46 15.5 46 15.6 46C16.3 46 16.9 45.7 17.4 45.3L24.5 38.2C25 37.7 25.2 37.1 25.2 36.4V32.4L27.3 34.5V43.4C27.3 44.7 28.2 45.8 29.4 46C29.5 46 29.7 46 29.8 46C30.4 46 31 45.8 31.4 45.4C32 44.9 32.3 44.2 32.3 43.5V33.5C32.3 32.8 32 32.2 31.6 31.7L28.4 28.5H35.2C35.6 28.5 36 28.4 36.4 28.3L39.9 31.8C40.4 32.3 41 32.5 41.7 32.5C42.4 32.5 43 32.2 43.5 31.8L49.2 26.1C50.2 25.1 50.2 23.5 49.2 22.6C48 21.7 46.4 21.7 45.4 22.7ZM40.5 31.2L37.2 27.9L36.8 27.5L36.4 27.1L36.2 26.9L35.7 26.4L35.5 26.2C35.5 26.2 35.4 26.2 35.4 26.1C35.2 26 35 26 34.9 26.1C34.9 26.1 34.9 26.1 34.8 26.1C34.7 26.2 34.6 26.4 34.7 26.5C34.7 26.6 34.8 26.7 34.8 26.8L35.4 27.4C35.3 27.4 35.2 27.4 35.1 27.4H27.3L22.7 23C23.1 22.7 23.6 22.6 24.1 22.6H30.5H31.2H31.9H35.1C35.8 22.6 36.4 22.9 36.8 23.3C36.8 23.3 36.9 23.4 36.9 23.5L37.7 24.3L37.9 24.5L38.2 24.8L38.4 25L41 27.6C41.2 27.8 41.5 27.8 41.7 27.6L45.9 23.4C46.5 22.8 47.5 22.8 48 23.4C48.6 24 48.6 24.9 48 25.5L42.3 31.2C42 31.7 41 31.7 40.5 31.2ZM31.2 43.5C31.2 43.9 31 44.4 30.7 44.6C30.4 44.9 29.9 45 29.5 44.9C28.8 44.8 28.2 44.1 28.2 43.3V34.2C28.2 34.1 28.1 33.9 28.1 33.8L25.2 30.9L24.7 30.4L24.2 29.9L21.2 26.9L20.9 26.6C20.8 26.5 20.7 26.4 20.7 26.2C20.5 25.8 20.4 25.3 20.6 24.9C20.7 24.8 20.8 24.6 20.9 24.5C20.9 24.5 20.9 24.5 20.9 24.4L21.1 24.2L21.9 23.4L22.2 23.7L22.7 24.2L24.5 26L25 26.5L25.7 27.2L26.2 27.7L26.7 28.2L30.6 32.1C30.9 32.4 31 32.8 31 33.2V43.5H31.2ZM24.2 36.5C24.2 36.9 24 37.3 23.8 37.6L16.7 44.7C16.4 45 15.9 45.2 15.5 45.1C15.1 45.1 14.7 44.8 14.4 44.5C14 43.9 14.1 43.1 14.6 42.5L21 36C21.1 35.9 21.1 35.8 21.1 35.6V28.5L24.1 31.5V36.5H24.2ZM25.6 12.1L35.1 21.6H30.9L23.5 14.2C23.2 13.9 23.1 13.5 23.1 13.1C23.1 12.7 23.3 12.3 23.5 12C23.8 11.7 24.2 11.6 24.6 11.6C25 11.6 25.3 11.8 25.6 12.1Z" fill="black"/>
<path d="M20.1 50.3C20 50.3 19.8 50.2 19.7 50.2C19.6 50.1 19.6 50 19.6 49.8C19.6 49.7 19.7 49.5 19.7 49.4C19.8 49.3 19.9 49.3 20.1 49.3C20.3 49.3 20.4 49.4 20.5 49.4C20.6 49.5 20.6 49.6 20.6 49.8C20.6 49.9 20.5 50.1 20.5 50.2C20.3 50.2 20.2 50.3 20.1 50.3ZM17.7 50.3C17.6 50.3 17.4 50.2 17.3 50.2C17.2 50.1 17.2 50 17.2 49.8C17.2 49.7 17.3 49.5 17.3 49.4C17.4 49.3 17.5 49.3 17.7 49.3C17.9 49.3 18 49.4 18.1 49.4C18.2 49.5 18.2 49.6 18.2 49.8C18.2 49.9 18.1 50.1 18.1 50.2C18 50.2 17.9 50.3 17.7 50.3ZM15.4 50.3C15.3 50.3 15.1 50.2 15 50.2C14.8 50 14.8 49.7 15 49.5C15.1 49.4 15.2 49.4 15.4 49.4C15.5 49.4 15.7 49.5 15.8 49.5C15.9 49.6 15.9 49.7 15.9 49.9C15.9 50 15.8 50.2 15.8 50.3C15.7 50.2 15.5 50.3 15.4 50.3ZM13.1 50.3C13 50.3 12.8 50.2 12.7 50.2C12.6 50.1 12.6 50 12.6 49.8C12.6 49.7 12.7 49.5 12.7 49.4C12.8 49.3 12.9 49.3 13.1 49.3C13.3 49.3 13.4 49.4 13.5 49.4C13.6 49.5 13.6 49.6 13.6 49.8C13.6 49.9 13.5 50.1 13.5 50.2C13.3 50.2 13.2 50.3 13.1 50.3Z" fill="black"/>
<path d="M20.1 48.8C19.8 48.8 19.6 48.9 19.4 49.1C19 49.5 19 50.1 19.4 50.5C19.6 50.7 19.9 50.8 20.1 50.8C20.3 50.8 20.6 50.7 20.8 50.5C21.2 50.1 21.2 49.5 20.8 49.1C20.6 48.9 20.3 48.8 20.1 48.8ZM17.7 48.8C17.4 48.8 17.2 48.9 17 49.1C16.6 49.5 16.6 50.1 17 50.5C17.2 50.7 17.5 50.8 17.7 50.8C17.9 50.8 18.2 50.7 18.4 50.5C18.8 50.1 18.8 49.5 18.4 49.1C18.3 48.9 18 48.8 17.7 48.8ZM15.4 48.8C15.1 48.8 14.9 48.9 14.7 49.1C14.3 49.5 14.3 50.1 14.7 50.5C14.9 50.7 15.2 50.8 15.4 50.8C15.6 50.8 15.9 50.7 16.1 50.5C16.5 50.1 16.5 49.5 16.1 49.1C15.9 48.9 15.7 48.8 15.4 48.8ZM13.1 48.8C12.8 48.8 12.6 48.9 12.4 49.1C12 49.5 12 50.1 12.4 50.5C12.6 50.7 12.9 50.8 13.1 50.8C13.3 50.8 13.6 50.7 13.8 50.5C14.2 50.1 14.2 49.5 13.8 49.1C13.6 48.9 13.3 48.8 13.1 48.8Z" fill="#EE2B2F"/>
<path d="M34.2 50.3C34.1 50.3 33.8999 50.2 33.7999 50.2C33.6999 50.1 33.7 50 33.7 49.8C33.7 49.7 33.7999 49.5 33.7999 49.4C33.8999 49.3 34 49.3 34.2 49.3C34.4 49.3 34.4999 49.4 34.5999 49.4C34.6999 49.5 34.7 49.6 34.7 49.8C34.7 49.9 34.5999 50.1 34.5999 50.2C34.4999 50.2 34.4 50.3 34.2 50.3ZM31.9 50.3C31.8 50.3 31.6 50.2 31.5 50.2C31.4 50.1 31.4 50 31.4 49.8C31.4 49.7 31.5 49.5 31.5 49.4C31.6 49.3 31.7 49.3 31.9 49.3C31.9999 49.3 32.1999 49.4 32.2999 49.4C32.3999 49.5 32.4 49.6 32.4 49.8C32.4 49.9 32.2999 50.1 32.2999 50.2C32.0999 50.2 31.9999 50.3 31.9 50.3ZM29.6 50.3C29.5 50.3 29.3 50.2 29.2 50.2C29.1 50.1 29.1 50 29.1 49.8C29.1 49.7 29.2 49.5 29.2 49.4C29.3 49.3 29.4 49.3 29.6 49.3C29.8 49.3 29.9 49.4 30 49.4C30.1 49.5 30.1 49.6 30.1 49.8C30.1 49.9 30 50.1 30 50.2C29.8 50.2 29.7 50.3 29.6 50.3ZM27.2 50.3C27.1 50.3 26.8999 50.2 26.7999 50.2C26.6999 50.1 26.7 50 26.7 49.8C26.7 49.7 26.7999 49.5 26.7999 49.4C26.8999 49.3 27 49.3 27.2 49.3C27.4 49.3 27.5 49.4 27.6 49.4C27.7 49.5 27.7 49.6 27.7 49.8C27.7 49.9 27.6 50.1 27.6 50.2C27.5 50.2 27.4 50.3 27.2 50.3Z" fill="black"/>
<path d="M34.2 48.8C33.9 48.8 33.7 48.9 33.5 49.1C33.1 49.5 33.1 50.1 33.5 50.5C33.7 50.7 34 50.8 34.2 50.8C34.4 50.8 34.7 50.7 34.9 50.5C35.3 50.1 35.3 49.5 34.9 49.1C34.7 48.9 34.5 48.8 34.2 48.8ZM31.9 48.8C31.6 48.8 31.4 48.9 31.2 49.1C30.8 49.5 30.8 50.1 31.2 50.5C31.4 50.7 31.7 50.8 31.9 50.8C32.2 50.8 32.4 50.7 32.5999 50.5C32.9999 50.1 32.9999 49.5 32.5999 49.1C32.4 48.9 32.1 48.8 31.9 48.8ZM29.6 48.8C29.3 48.8 29.1 48.9 28.9 49.1C28.5 49.5 28.5 50.1 28.9 50.5C29.1 50.7 29.4 50.8 29.6 50.8C29.8 50.8 30.1 50.7 30.3 50.5C30.7 50.1 30.7 49.5 30.3 49.1C30.1 48.9 29.8 48.8 29.6 48.8ZM27.2 48.8C26.9 48.8 26.7 48.9 26.5 49.1C26.1 49.5 26.1 50.1 26.5 50.5C26.7 50.7 27 50.8 27.2 50.8C27.4 50.8 27.7 50.7 27.9 50.5C28.3 50.1 28.3 49.5 27.9 49.1C27.7 48.9 27.5 48.8 27.2 48.8Z" fill="#EE2B2F"/>
<path d="M34.7 47H26.7C26.4 47 26.2 47.2 26.2 47.5C26.2 47.8 26.4 48 26.7 48H34.7C35 48 35.2 47.8 35.2 47.5C35.2 47.2 35 47 34.7 47Z" fill="#EE2B2F"/>
</svg>
