<svg width="63" height="63" viewBox="0 0 63 63" fill="none" xmlns="http://www.w3.org/2000/svg">
<path d="M37.3 29.4C37.7 28.4 38.7 27.8 39.7 27.9H42H55.6C56.4 27.9 57.1 28.6 57.1 29.4C57.1 30.2 56.4 30.9 55.6 30.9H54.8H53.4H43.1H42.1H40.7H40.6C40.4 31 40.2 31.1 40.2 31.4C40.2 31.7 40.4 31.9 40.7 31.9H41.8L38.8 39.1H39.9L42.9 31.9H52.5H53.9H55.7C57.1 31.9 58.2 30.8 58.2 29.4C58.2 28 57.1 26.9 55.7 26.9H39.7C38.3 26.9 37 27.7 36.5 29.1L32.4 39.1H33.5L37.3 29.4Z" fill="black"/>
<path d="M47.9 35.4L48.4 35.9L49.0999 35.2L48.5999 34.7C47.6999 33.8 45.9999 33.8 45.0999 34.7L40.7 39H42.0999L45.7 35.4C46.4 34.8 47.4 34.8 47.9 35.4Z" fill="black"/>
<path d="M51.6 39H53L49.8 35.9L49.1 36.6L51.6 39Z" fill="black"/>
<path d="M24.6 34.7C23.7 33.8 22 33.8 21.1 34.7L16.7 39H18.1L21.7 35.4C22.3 34.8 23.2999 34.8 23.7999 35.4L24.2999 35.9L25 35.2L24.6 34.7Z" fill="black"/>
<path d="M27.6 39H29L25.8 35.9L25.1 36.6L27.6 39Z" fill="black"/>
<path d="M18.1 39H16.7H15.9H14.8H9.4H8.3H0V40H8.6H15.1H16.9H20.3L21.3 39H18.1Z" fill="#FCB019"/>
<path d="M46.7 39L45.7 40H52.7999H63V39H53H51.5999H46.7Z" fill="#FCB019"/>
<path d="M22.7 39L21.7 40H28.7999H32.5999H39.0999H40.9H44.2999L45.2999 39H42.0999H40.7H39.9H38.7999H33.4H32.2999H29H27.6H22.7Z" fill="#FCB019"/>
<path d="M63 45.3L62.3 45.9C60.8 47.3 58.1 47.3 56.6 45.9L55.8 45.1C55.6 44.9 55.3 44.9 55.1 45.1L54.3 45.9C52.7 47.4 50.2 47.4 48.6 45.9L47.8 45.1C47.6 44.9 47.3 44.9 47.1 45.1L46.3 45.9C44.8 47.3 42.1 47.3 40.6 45.9L40.2 45.5L39.8 45.1C39.6 44.9 39.3 44.9 39.1 45.1L38.3 45.9C36.7 47.4 34.2 47.4 32.6 45.9L31.8 45.1C31.6 44.9 31.3 44.9 31.1 45.1L30.3 45.9C28.7 47.4 26.2 47.4 24.6 45.9L23.8 45.1C23.6 44.9 23.3 44.9 23.1 45.1L22.3 45.9C20.7 47.4 18.2 47.4 16.6 45.9L16.2 45.5L15.8 45.1C15.6 44.9 15.3 44.9 15.1 45.1L14.3 45.9C12.7 47.4 10.2 47.4 8.6 45.9L7.8 45.1C7.6 44.9 7.3 44.9 7.1 45.1L6.3 45.9C4.7 47.4 2.2 47.4 0.6 45.9L0 45.3V46.7C1.9 48.5 5.1 48.5 7 46.7L7.5 46.3L8 46.7C9.9 48.5 13.1 48.5 15 46.7L15.5 46.3L16 46.7C17.9 48.5 21.1 48.5 23 46.7L23.5 46.3L24 46.7C25.9 48.5 29.1 48.5 31 46.7L31.5 46.3L32 46.7C33.9 48.5 37.1 48.5 39 46.7L39.5 46.3L40 46.7C40.9 47.6 42.2 48.1 43.5 48.1C44.8 48.1 46.1 47.6 47 46.7L47.5 46.3L48 46.7C49.9 48.5 53.1 48.5 55 46.7L55.5 46.3L56 46.7C56.9 47.6 58.2 48.1 59.5 48.1C60.8 48.1 62.1 47.6 63 46.7" fill="black"/>
<path d="M49.0999 35.2L48.4 35.9L45.2999 39L44.2999 40L39.2 45.1C39.4 44.9 39.7 44.9 39.9 45.1L40.2999 45.5L45.7999 40L46.7999 39L49.2 36.6L49.9 35.9L53.9 31.9H52.5L49.0999 35.2Z" fill="#00A64F"/>
<path d="M15.8 45.2L16.2 45.6L21.7 40.1L22.7 39.1L25.1 36.7L25.8 36L29.8 32H28.4L25.1 35.3L24.4 36L21.3 39L20.3 40L15.2 45.1C15.4 45 15.7 45 15.8 45.2Z" fill="#00A64F"/>
<path d="M13.3 29.4C13.6 28.8 14 28.3 14.7 28.1C15.1 28 15.4 27.9 15.8 27.9H18.1H31.7001C32.5 27.9 33.2001 28.6 33.2001 29.4C33.2001 30.2 32.5 30.9 31.7001 30.9H30.9H29.5H19.1H18.1H16.7H16.6C16.4 31 16.2 31.1 16.2 31.4C16.2 31.7 16.4 31.9 16.7 31.9H17.8L14.8 39.1H15.9L18.9 31.9H28.5H29.9H31.7001C33.1 31.9 34.2001 30.8 34.2001 29.4C34.2001 28 33.1 26.9 31.7001 26.9H15.7C15.2 26.9 14.8 27 14.4 27.2C13.5 27.6 12.9 28.2 12.5 29.1L8.30005 39H9.40005L13.3 29.4Z" fill="black"/>
<path d="M42.7 25.9C44.6 25.9 46.2 24.3 46.2 22.4C46.2 20.5 44.6 18.9 42.7 18.9C40.8 18.9 39.2 20.5 39.2 22.4C39.2 24.3 40.7 25.9 42.7 25.9ZM42.7 19.9C44.1 19.9 45.2 21 45.2 22.4C45.2 23.8 44.1 24.9 42.7 24.9C41.3 24.9 40.2 23.8 40.2 22.4C40.2 21 41.3 19.9 42.7 19.9Z" fill="black"/>
<path d="M18.7 25.9C20.6 25.9 22.2 24.3 22.2 22.4C22.2 20.5 20.6 18.9 18.7 18.9C16.8 18.9 15.2 20.5 15.2 22.4C15.2 24.3 16.7 25.9 18.7 25.9ZM18.7 19.9C20.1 19.9 21.2 21 21.2 22.4C21.2 23.8 20.1 24.9 18.7 24.9C17.3 24.9 16.2 23.8 16.2 22.4C16.2 21 17.3 19.9 18.7 19.9Z" fill="black"/>
</svg>
