<svg width="63" height="63" viewBox="0 0 63 63" fill="none" xmlns="http://www.w3.org/2000/svg">
<path d="M55.8 0H54.7001L40.3 25.8C40.6 25.9 40.9001 26.1 41.2001 26.3L55.8 0Z" fill="#FCB019"/>
<path d="M41.9 28.7H63V27.7H41.9C41.9 27.9 42 28 42 28.2C42 28.4 42 28.5 41.9 28.7Z" fill="#FCB019"/>
<path d="M62.3 45.9C60.8 47.3 58.1 47.3 56.6 45.9L55.8 45.1C55.6 44.9 55.3 44.9 55.1 45.1L54.3 45.9C52.7 47.4 50.2 47.4 48.6 45.9L47.8 45.1C47.6 44.9 47.3 44.9 47.1 45.1L46.3 45.9C44.8 47.3 42.1 47.3 40.6 45.9L39.8 45.1C39.6 44.9 39.3 44.9 39.1 45.1L38.3 45.9C36.7 47.4 34.2 47.4 32.6 45.9L31.8 45.1C31.6 44.9 31.3 44.9 31.1 45.1L30.3 45.9C28.7 47.4 26.2 47.4 24.6 45.9L23.8 45.1C23.6 44.9 23.3 44.9 23.1 45.1L22.3 45.9C20.7 47.4 18.2 47.4 16.6 45.9L15.8 45.1C15.6 44.9 15.3 44.9 15.1 45.1L14.7 45.5L14.3 45.9C12.7 47.4 10.2 47.4 8.6 45.9L7.8 45.1C7.6 44.9 7.3 44.9 7.1 45.1L6.3 45.9C4.7 47.4 2.2 47.4 0.6 45.9L0 45.3V46.7C1.9 48.5 5.1 48.5 7 46.7L7.5 46.3L8 46.7C9.9 48.5 13.1 48.5 15 46.7L15.5 46.3L16 46.7C17.9 48.5 21.1 48.5 23 46.7L23.5 46.3L24 46.7C25.9 48.5 29.1 48.5 31 46.7L31.5 46.3L32 46.7C33.9 48.5 37.1 48.5 39 46.7L39.5 46.3L40 46.7C40.9 47.6 42.2 48.1 43.5 48.1C44.8 48.1 46.1 47.6 47 46.7L47.5 46.3L48 46.7C49.9 48.5 53.1 48.5 55 46.7L55.5 46.3L56 46.7C56.9 47.6 58.2 48.1 59.5 48.1C60.8 48.1 62.1 47.6 63 46.7V45.3L62.3 45.9Z" fill="#2A76BC"/>
<path d="M23.9 24.6C25.8 24.6 27.4 23 27.4 21.1C27.4 19.2 25.8 17.6 23.9 17.6C22 17.6 20.4 19.2 20.4 21.1C20.4 23 22 24.6 23.9 24.6ZM23.9 18.6C25.3 18.6 26.4 19.7 26.4 21.1C26.4 22.5 25.3 23.6 23.9 23.6C22.5 23.6 21.4 22.5 21.4 21.1C21.4 19.7 22.5 18.6 23.9 18.6Z" fill="black"/>
<path d="M63 45.3V46.7V45.3ZM63 39H41.5L40.4 36.3C40.1 35.7 39.7 35.2 39 34.9C38.4 34.6 37.7 34.6 37.1 34.9L31.1 37.4L28.3 30.6H39.5C40.7 30.6 41.7 29.7 42 28.6C42 28.4 42.1 28.3 42.1 28.1C42.1 27.9 42.1 27.8 42 27.6C41.9 27 41.6 26.6 41.2 26.2C40.9 26 40.7 25.8 40.3 25.7C40.1 25.6 39.8 25.6 39.5 25.6H23.5C23.2 25.6 22.8 25.7 22.5 25.8C21.6 26.2 21 26.8 20.6 27.7C20.2 28.6 20.2 29.5 20.6 30.4L24.2 39H9.50004C9.30004 39 9.10004 39.1 9.00004 39.3C8.90004 39.5 9.00004 39.7 9.10004 39.8L14.7 45.4L15.1 45C15.3 44.8 15.6 44.8 15.8 45L10.7 40H24.6L24.8 40.6L25.6 42.5C25.9 43.1 26.3 43.6 27 43.9C27.3 44 27.6 44.1 28 44.1C28.3 44.1 28.6 44 29 43.9L38 40H41.1H63V39ZM63 27.7V28.7V27.7ZM25.6 39.8L25.3 39L21.6 30C21.3 29.4 21.3 28.7 21.6 28.1C21.9 27.5 22.3 27 23 26.7H23.1C23.2 26.7 23.4 26.6 23.6 26.6H23.7H39.6C39.7 26.6 39.8 26.6 39.9 26.6C40.2 26.7 40.5 26.8 40.8 27.1C40.9 27.2 41 27.4 41.1 27.6C41 27.9 41 28 41 28.2C41 28.4 41 28.5 40.9 28.7C40.7 29.3 40.1 29.7 39.5 29.7H27.9H27.4H26.9H25.6C25.5 29.7 25.4 29.7 25.3 29.8C25.1 29.9 25 30 25 30.2C25 30.5 25.2 30.7 25.5 30.7H27.2L30.2 37.9L27.4 39L25.6 39.8ZM37.9 39C37.8 39 37.8 39 37.7 39L35.4 40L28.5 42.9C28.1 43.1 27.7 43.1 27.4 42.9C27 42.7 26.7 42.5 26.6 42.1L26 40.7L27.6 40L30 39L31.1 38.6L37.6 35.9C38 35.7 38.4 35.7 38.7 35.9C39 36.1 39.4 36.3 39.5 36.7L40.5 39H37.9Z" fill="black"/>
</svg>
