<svg width="63" height="63" viewBox="0 0 63 63" fill="none" xmlns="http://www.w3.org/2000/svg">
<path d="M28.7001 16C30.6001 16 32.2001 14.4 32.2001 12.5C32.2001 10.6 30.7001 9 28.7001 9C26.7001 9 25.2001 10.6 25.2001 12.5C25.2001 14.4 26.8001 16 28.7001 16ZM28.7001 10C30.1001 10 31.2001 11.1 31.2001 12.5C31.2001 13.9 30.1001 15 28.7001 15C27.3001 15 26.2001 13.9 26.2001 12.5C26.2001 11.1 27.3001 10 28.7001 10Z" fill="black"/>
<path d="M41.7001 18H41L37.4001 21.6L33.8 18L33.3 18.2L32.8 18.4L37 22.6C37.2001 22.8 37.5 22.8 37.7001 22.6L41.9001 18.4C42.5001 17.8 43.3001 17.7 43.9001 18.2C44.3001 18.5 44.5 18.9 44.5 19.3C44.5 19.7 44.4 20.2 44.1 20.5L38.4001 26.2C37.8001 26.8 36.9 26.8 36.3 26.2L32.1 22C32 21.9 31.7 21.8 31.6 21.9C31.4 22 31.3 22.2 31.3 22.4V31H24.3V22C24.7 21.9 25.1 21.7 25.4 21.4C25.8 21 26.1 20.6 26.2 20C26.2 19.8 26.2 19.7 26.2 19.5C26.2 18.9 26 18.4 25.7 18C25.6 17.8 25.4 17.6 25.2 17.5C24.8 17.2 24.3 17 23.8 17H15.8C14.4 17 13.3 18.1 13.3 19.5C13.3 20.9 14.4 22 15.8 22H23.3V31.5V33L15.8 51C15.3 52.3 15.9 53.7 17.2 54.3C17.8 54.6 18.5 54.6 19.1 54.3C19.7 54 20.2 53.6 20.5 52.9L27.5 36H28.2L35.2001 52.9C35.5 53.5 35.9 54 36.6 54.3C36.9 54.4 37.2 54.5 37.6 54.5C38 54.5 38.2 54.4 38.6 54.3C39.2 54 39.7001 53.6 40 52.9C40.3 52.3 40.3 51.6 40 51L32.5 33V31.5V23.5L35.9001 26.9C36.9001 27.9 38.5001 27.9 39.4001 26.9L45.1 21.2C45.6 20.7 45.9 20 45.8 19.2C45.8 18.7 45.6 18.3 45.3 17.9H44.6H41.7001V18ZM21.7 21H15.7C14.9 21 14.2 20.3 14.2 19.5C14.2 18.7 14.9 18 15.7 18H21.7H22.4H23.2H23.7C23.7 18 23.7 18 23.8 18C24 18 24.1 18 24.2 18.1C24.8 18.3 25.2 18.9 25.2 19.5C25.2 19.9 25 20.3 24.8 20.5C24.5 20.8 24.1 21 23.7 21H23.2H22.4H21.7ZM38.8 51.4C39 51.8 39 52.2 38.8 52.5C38.6 52.8 38.4 53.2 38 53.3C37.6 53.4 37.2001 53.5 36.9001 53.3C36.5001 53.1 36.2 52.9 36.1 52.5L29 35.3C28.9 35.1 28.7 35 28.5 35H27.2C27 35 26.8 35.1 26.7 35.3L19.6 52.5C19.4 52.9 19.2 53.2 18.8 53.3C18.4 53.5 18 53.5 17.7 53.3C16.9 53 16.6 52.1 16.9 51.3L24.4 33.2C24.4 33.1 24.4 33.1 24.4 33V32H31.4V33.1C31.4 33.2 31.4 33.2 31.4 33.3L38.8 51.4Z" fill="black"/>
<path d="M53.7001 17H53.2001V16.5C53.2001 16.2 53.0001 16 52.7001 16C52.4001 16 52.2001 16.2 52.2001 16.5V17H33.7001H31.7001H23.8001H23.7001C24.2001 17 24.7001 17.2 25.1001 17.5C25.3001 17.6 25.5001 17.8 25.6001 18H31.0001L26.0001 20C25.9001 20.6 25.6001 21.1 25.2001 21.4L32.6001 18.4L33.1001 18.2L33.6001 18H41.0001H41.7001H44.3001H45.0001H52.7001H53.7001C54.0001 18 54.2001 17.8 54.2001 17.5C54.2001 17.2 54.0001 17 53.7001 17Z" fill="#00A64F"/>
</svg>
