<svg width="63" height="63" viewBox="0 0 63 63" fill="none" xmlns="http://www.w3.org/2000/svg">
<path d="M31.7 14C33.6 14 35.2 12.4 35.2 10.5C35.2 8.6 33.7 7 31.7 7C29.7 7 28.2 8.6 28.2 10.5C28.2 12.4 29.8 14 31.7 14ZM31.7 8C33.1 8 34.2 9.1 34.2 10.5C34.2 11.9 33.1 13 31.7 13C30.3 13 29.2 11.9 29.2 10.5C29.2 9.1 30.3 8 31.7 8Z" fill="black"/>
<path d="M47.6 10.1L42.7 15H27.7C27 15 26.4 15.3 25.9 15.8L14.6 27.1C14.1 27.6 13.9 28.2 13.9 28.9C13.9 29.6 14.2 30.2 14.6 30.7C15.1 31.2 15.7 31.4 16.4 31.4C17.1 31.4 17.7 31.2 18.2 30.7L27.2 21.6V29.6V41L23.6 49.8C23.1 51.1 23.7 52.5 25 53.1C25.3 53.2 25.6 53.3 26 53.3C26.4 53.3 26.6 53.2 27 53.1C27.6 52.8 28.1 52.4 28.4 51.7L32.2 42.5C32.3 42.2 32.4 41.9 32.4 41.5V34H40L37.6 39.8C37.1 41.1 37.7 42.5 39 43.1C40.3 43.6 41.7 43 42.3 41.7C42.3 41.7 46 32.7 46.1 32.5C46.2 32.2 46.3 31.9 46.3 31.5C46.3 30.1 45.2 29 43.8 29H36.3V20H43.8C44.5 20 45.1 19.7 45.6 19.3L51.3 13.6C52.3 12.6 52.3 11 51.3 10.1C50.2 9.19999 48.6 9.19999 47.6 10.1ZM43.7 30C44.5 30 45.2 30.7 45.2 31.5C45.2 31.7 45.2 31.9 45.1 32.1C45.1 32.2 41.3 41.3 41.3 41.3C41.1 41.7 40.9 42 40.5 42.1C40.1 42.3 39.7 42.3 39.4 42.1C38.6 41.8 38.3 40.9 38.6 40.1L41.3 33.6C41.4 33.4 41.3 33.3 41.3 33.1C41.3 32.9 40.9 33 40.7 33H31.7C31.4 33 31.2 33.2 31.2 33.5V41.5C31.2 41.7 31.2 41.9 31.1 42.1L27.3 51.3C27 52.1 26.1 52.4 25.3 52.1C24.5 51.8 24.2 50.9 24.5 50.1L28.2 41.2C28.2 41.1 28.2 41.1 28.2 41V30H35.7H43.7ZM50.4 12.9L44.7 18.6C44.4 18.9 44 19 43.6 19H35.6C35.3 19 35.1 19.2 35.1 19.5V29H28.1V20.3C28.1 20.1 28 19.9 27.8 19.8C27.6 19.7 27.4 19.8 27.3 19.9L17.4 29.8C16.8 30.4 15.9 30.4 15.3 29.8C15 29.5 14.9 29.1 14.9 28.7C14.9 28.3 15.1 27.9 15.3 27.6L26.6 16.3C26.9 16 27.3 15.8 27.7 15.8H42.9C43 15.8 43.2 15.7 43.3 15.7L48.4 10.6C49 9.99999 50 9.99999 50.5 10.6C51 11.4 51 12.4 50.4 12.9Z" fill="black"/>
<path d="M44.1 40.8C43.9 41 43.8 41.3 44 41.5C44.2 41.7 44.1 42 43.9 42.2L26 55C25.8 55.2 25.5 55.1 25.3 54.9C25.1 54.7 24.8 54.6 24.6 54.8C24.4 55 24.3 55.3 24.5 55.5C24.8 55.9 25.3 56.1 25.7 56.1C26 56.1 26.3 56 26.6 55.8L44.5 43C45.2 42.5 45.3 41.6 44.8 40.9C44.6 40.7 44.3 40.7 44.1 40.8Z" fill="#00A64F"/>
<path d="M29.5 55.3C29.2 55.3 29 55.3 28.8 55.5C28.6 55.7 28.4 55.9 28.4 56.1C28.4 56.4 28.4 56.6 28.6 56.8C28.8 57.1 29.1 57.2 29.4 57.2C29.6 57.2 29.8 57.1 30 57C30.4 56.7 30.6 56.1 30.2 55.6C30 55.5 29.8 55.4 29.5 55.3ZM29.3 56.3L29.7 56L29.3 56.3Z" fill="#00A64F"/>
<path d="M44.8 45.3C44.5 44.9 43.9 44.7 43.4 45.1C42.9 45.5 42.8 46 43.2 46.5C43.4 46.8 43.7 46.9 44 46.9C44.2 46.9 44.4 46.8 44.6 46.7C45 46.3 45.1 45.7 44.8 45.3Z" fill="#00A64F"/>
</svg>
