<svg width="63" height="63" viewBox="0 0 63 63" fill="none" xmlns="http://www.w3.org/2000/svg">
<path d="M24 19.7C24.1 19.8 24.2 19.8 24.4 19.8C24.6 19.8 24.7 19.8 24.8 19.7L30.9 13.6C31 13.5 31 13.4 31 13.2C31 13 30.9 12.9 30.9 12.8L28.4 10.3C28.2 10.1 27.9 10.1 27.7 10.3L21.6 16.4C21.4 16.6 21.4 16.9 21.6 17.1L24 19.7ZM27.9 11.4L29.7 13.2L24.3 18.6L22.5 16.8L27.9 11.4Z" fill="#2A76BC"/>
<path d="M45 25.7V46.5C45 46.8 45.2 47 45.5 47C45.8 47 46 46.8 46 46.5V25.6C45.8 25.6 45.6 25.7 45.4 25.7H45Z" fill="#FCB019"/>
<path d="M45.4999 20.7H38.4999L33.5999 15.8C32.1999 14.4 29.9999 14.4 28.6999 15.8L20.8999 23.6C20.1999 24.3 19.8999 25.1 19.8999 26.1V28.1V48.1C19.8999 49.5 20.9999 50.6 22.3999 50.6C23.7999 50.6 24.8999 49.5 24.8999 48.1V30.5H30.8999V37C30.8999 37.7 31.1999 38.3 31.5999 38.8C32.0999 39.3 32.6999 39.5 33.3999 39.5C34.7999 39.5 35.8999 38.4 35.8999 37V27.9C35.8999 26.5 34.7999 25.4 33.3999 25.4H28.7999L32.4999 21.7L35.6999 24.9C36.1999 25.4 36.7999 25.6 37.4999 25.6H44.9999H45.3999C45.5999 25.6 45.7999 25.6 45.9999 25.5C47.0999 25.3 47.8999 24.4 47.9999 23.3C48.0999 22.6 47.7999 21.8 47.2999 21.3C46.7999 21 46.1999 20.7 45.4999 20.7ZM45.9999 24.6C45.7999 24.7 45.5999 24.7 45.3999 24.7H44.9999H37.4999C37.0999 24.7 36.6999 24.5 36.3999 24.3L33.1999 21.1L32.7999 20.7L32.3999 20.3L31.2999 19.2C31.2999 19.2 31.1999 19.2 31.1999 19.1C30.9999 19 30.7999 19 30.5999 19.2C30.3999 19.4 30.3999 19.7 30.5999 19.9L31.6999 21L27.2999 25.4H22.3999H22.1999H20.7999C20.8999 24.9 21.0999 24.5 21.4999 24.1L29.2999 16.3C29.7999 15.8 30.3999 15.6 31.0999 15.6C31.6999 15.6 32.3999 15.8 32.8999 16.3L32.9999 16.4L34.0999 17.5L34.6999 18.1L37.9999 21.4C38.0999 21.5 38.1999 21.5 38.3999 21.5H45.5999C45.9999 21.5 46.3999 21.7 46.6999 21.9C46.9999 22.2 47.1999 22.6 47.0999 23.1C46.9999 23.9 46.5999 24.4 45.9999 24.6ZM34.8999 37.1C34.8999 37.9 34.1999 38.6 33.3999 38.6C32.9999 38.6 32.5999 38.4 32.2999 38.2C31.9999 37.9 31.8999 37.5 31.8999 37.1V30.1C31.8999 30 31.7999 29.8 31.7999 29.7C31.6999 29.6 31.5999 29.6 31.3999 29.6H24.8999H23.8999H23.3999H23.2999H22.2999C21.8999 29.6 21.4999 29.4 21.1999 29.2C21.0999 29.1 20.8999 28.9 20.8999 28.7C20.7999 28.5 20.7999 28.3 20.7999 28.2V27.9V26.7H20.8999H22.2999H22.4999H24.3999H26.3999H27.0999H27.7999H33.3999C34.1999 26.7 34.8999 27.4 34.8999 28.2V37.1ZM23.8999 48C23.8999 48.8 23.1999 49.5 22.3999 49.5C21.5999 49.5 20.8999 48.8 20.8999 48V30C21.2999 30.3 21.8999 30.5 22.3999 30.5H23.8999V48Z" fill="black"/>
<path d="M36.9 16.1C37.8 16.1 38.7 15.7 39.4 15.1C40.1 14.5 40.4 13.6 40.4 12.6C40.4 11.7 40 10.8 39.4 10.1C38 8.69999 35.8 8.69999 34.5 10.1C33.1 11.5 33.1 13.7 34.5 15C35 15.7 35.9 16.1 36.9 16.1ZM35.0999 10.8C35.5999 10.3 36.2 10.1 36.9 10.1C37.5 10.1 38.2 10.3 38.7 10.8C39.2 11.3 39.4 11.9 39.4 12.6C39.4 13.3 39.1 13.9 38.7 14.4C37.8 15.3 36.1 15.3 35.2 14.4C34.1 13.4 34.0999 11.8 35.0999 10.8Z" fill="black"/>
<path d="M39.7999 32.7C39.5999 32.9 39.5999 33.2 39.7999 33.4C40.0999 33.7 40.2 34.1 40.2 34.5C40.2 34.9 40 35.3 39.7999 35.6L18.6 56.7C18.4 56.9 18.4 57.2 18.6 57.4C18.7 57.5 18.8 57.5 19 57.5C19.2 57.5 19.3 57.5 19.4 57.4L40.5999 36.2C41.0999 35.7 41.2999 35.1 41.2999 34.4C41.2999 33.7 40.9999 33.1 40.5999 32.6C40.2999 32.5 40 32.5 39.7999 32.7Z" fill="#2A76BC"/>
</svg>
