<svg width="63" height="63" viewBox="0 0 63 63" fill="none" xmlns="http://www.w3.org/2000/svg">
<path d="M53.6 17H29.7C29 17 28.4 17.3 27.9 17.7L24 21.6L20.2 17.8C19.3 16.9 17.9 16.8 16.9 17.5C16.3 17.9 15.9 18.6 15.9 19.3C15.8 20 16.1 20.8 16.6 21.3L22.3 27C23.2 27.9 24.9 27.9 25.8 27L29.2 23.6V31H21.7C20.3 31 19.2 32.1 19.2 33.5V42.6L19.7 42.4L20.2 42.2V33.6C20.2 32.8 20.9 32.1 21.7 32.1H29.7H33.2V35.1H23.7C23.4 35.1 23.2 35.3 23.2 35.6V41L23.7 40.8L24.2 40.6V36H33.2V36.8L33.7 36.6L34.2 36.4V36V35.5V35V32V31.5V31V29.5C34.2 28.7 34.9 28 35.7 28C36.5 28 37.2 28.7 37.2 29.5V31V31.5V32V33.5V34.8V35.1L37.7 34.9H37.8L38.2 34.7V33.5V31.5V29.5V22H53.7C54.4 22 55.1 21.7 55.6 21.1C56.1 20.5 56.3 19.8 56.2 19.1C56 17.9 54.9 17 53.6 17ZM54.9 20.5C54.6 20.8 54.2 21 53.8 21H37.8C37.5 21 37.3 21.2 37.3 21.5V27.5C36.9 27.2 36.4 27 35.8 27C34.4 27 33.3 28.1 33.3 29.5V31H30.3V22.3C30.3 22.1 30.2 21.9 30 21.8C29.8 21.7 29.6 21.8 29.5 21.9L25.3 26.1C24.7 26.7 23.7 26.7 23.2 26.1L17.5 20.4C17.2 20.1 17 19.7 17.1 19.2C17.1 18.8 17.4 18.4 17.7 18.1C18.3 17.7 19.1 17.8 19.7 18.3L23.9 22.5C24.1 22.7 24.4 22.7 24.6 22.5L28.8 18.3C29.1 18 29.5 17.9 29.9 17.9H53.8C54.6 17.9 55.3 18.4 55.4 19.1C55.3 19.7 55.2 20.2 54.9 20.5Z" fill="black"/>
<path d="M33.7 16C35.6 16 37.2 14.4 37.2 12.5C37.2 10.6 35.7 9 33.7 9C31.7 9 30.2 10.6 30.2 12.5C30.2 14.4 31.8 16 33.7 16ZM33.7 10C35.1 10 36.2 11.1 36.2 12.5C36.2 13.9 35.1 15 33.7 15C32.3 15 31.2 13.9 31.2 12.5C31.2 11.1 32.3 10 33.7 10Z" fill="black"/>
<path d="M37.7 34.9L37.2 35.1L35.1 36L34.3 36.4L33.8 36.6L33.3 36.8L24.3 40.5L23.8 40.7L23.3 40.9L20.3 42.1L19.8 42.3L19.3 42.5L8.49998 47C7.39998 47.5 6.49998 48.3 6.09998 49.4C5.59998 50.5 5.59998 51.7 6.09998 52.8C6.59998 53.9 7.39998 54.8 8.49998 55.2C9.09998 55.4 9.59998 55.5 10.2 55.5C10.8 55.5 11.4 55.4 11.9 55.2L48.9 39.9C51.2 39 52.3 36.3 51.3 34C50.4 31.7 47.7 30.6 45.4 31.6L38.1 34.6L37.7 34.9ZM47.2 32.4C48.6 32.4 49.9 33.2 50.4 34.6C50.8 35.5 50.8 36.4 50.4 37.3C50 38.2 49.4 38.8 48.5 39.2L11.5 54.5C10.6 54.9 9.69998 54.9 8.79998 54.5C7.89998 54.1 7.29998 53.5 6.89998 52.6C6.49998 51.7 6.49998 50.8 6.89998 49.9C7.39998 49 7.99998 48.3 8.89998 48L19.2 43.7L19.7 43.5L20.2 43.3L23.2 42.1L23.7 41.9L24.2 41.7L33.2 38L33.7 37.8L34.2 37.6L37.2 36.4L37.7 36.2L38.2 36L45.8 32.8C46.3 32.5 46.7 32.4 47.2 32.4Z" fill="#2A76BC"/>
</svg>
