<svg width="63" height="63" viewBox="0 0 63 63" fill="none" xmlns="http://www.w3.org/2000/svg">
<path d="M23.5999 21.3C24.4999 21.3 25.3999 21 26.0999 20.3C26.7999 19.6 27.0999 18.8 27.0999 17.8C27.0999 16.9 26.6999 16 26.0999 15.3C24.7999 14 22.4999 14 21.1999 15.3C19.7999 16.7 19.7999 18.9 21.1999 20.2C21.7999 20.9 22.6999 21.3 23.5999 21.3ZM21.7999 16C22.2999 15.5 22.8999 15.3 23.5999 15.3C24.2999 15.3 24.8999 15.6 25.3999 16C25.8999 16.5 26.0999 17.1 26.0999 17.8C26.0999 18.5 25.7999 19.1 25.3999 19.6C24.3999 20.6 22.7999 20.6 21.8999 19.6C20.8999 18.6 20.8999 17 21.7999 16Z" fill="black"/>
<path d="M32.4 10.8C32.7 11.1 32.7999 11.5 32.7999 11.9V21.9C32.7999 22 32.9 22.2 32.9 22.3L39 28.4L34.0999 33.3L28 27.2C28 27.1 27.9 27 27.7 27H9.69995C8.89995 27 8.19995 26.3 8.19995 25.5C8.19995 24.7 8.89995 24 9.69995 24H24.9C25 24 25.1999 23.9 25.2999 23.9L29.7999 19.4C29.9 19.3 29.9 19.2 29.9 19V12.7C29.9 12.6 29.7999 12.4 29.7999 12.3L24.7 7.2L24 8L28.9 12.9V18.8L24.7 23H9.69995C9.09995 23 8.59995 23.2 8.19995 23.5V27.5C8.59995 27.8 9.19995 28 9.69995 28H27.5L33.5 34L28.2 39.3C27.7 39.8 27.5 40.4 27.5 41.1V51.1C27.5 52.5 28.6 53.6 30 53.6C31.4 53.6 32.5 52.5 32.5 51.1V42.1L39.9 34.7L45.2 40C45.7 40.5 46.2999 40.7 47 40.7H57C58.4 40.7 59.5 39.6 59.5 38.2C59.5 36.8 58.4 35.7 57 35.7H48L40.2 28L33.9 21.7V11.9C33.9 11.2 33.6 10.6 33.2 10.1L27.6 4.5L26.9 5.2L32.4 10.8ZM47.7999 36.8H57C57.7999 36.8 58.5 37.5 58.5 38.3C58.5 39.1 57.7999 39.8 57 39.8H47C46.5999 39.8 46.2 39.6 45.9 39.4L40.2 33.7C40 33.5 39.7 33.5 39.5 33.7L31.6 41.6C31.5 41.7 31.5 41.8 31.5 42V51.2C31.5 52 30.7999 52.7 30 52.7C29.2 52.7 28.5 52 28.5 51.2V41.2C28.5 40.8 28.7 40.4 28.9 40.1L34.5999 34.4L39.9 29.1L47.4 36.6C47.5 36.7 47.5999 36.8 47.7999 36.8Z" fill="black"/>
<path d="M9.19995 54.7L13.2 50.7C14.1 49.8 14.5 48.7 14.5 47.5C14.5 46.3 14 45.2 13.2 44.3L9.19995 40.3C8.49995 39.6 8.19995 38.7 8.19995 37.8V27.4V23.4V19.4C8.19995 17.5 9.79995 15.9 11.7 15.9H14C15.2 15.9 16.3 15.4 17.2 14.6L24 8L24.7 7.3L26.7999 5.2L27.5 4.5L31.9 0H31.2H30.5L26.6 3.9L25.7999 4.7L24.2 6.3L23.4 7.1L16.5 14C15.8 14.7 15 15 14 15H11.7C9.19995 15 7.19995 17 7.19995 19.5V37.8C7.19995 39 7.69995 40.1 8.49995 41L12.5 45C13.9 46.4 13.9 48.6 12.5 50L8.49995 54C7.69995 54.8 7.19995 56 7.19995 57.2V63H7.69995H8.19995V57.2C8.19995 56.3 8.59995 55.4 9.19995 54.7Z" fill="#EE2B2F"/>
</svg>
