<svg width="63" height="63" viewBox="0 0 63 63" fill="none" xmlns="http://www.w3.org/2000/svg">
<path d="M27.5 23C29.4 23 31 21.4 31 19.5C31 17.6 29.4 16 27.5 16C25.6 16 24 17.6 24 19.5C24 21.4 25.6 23 27.5 23ZM27.5 17C28.9 17 30 18.1 30 19.5C30 20.9 28.9 22 27.5 22C26.1 22 25 20.9 25 19.5C25 18.1 26.1 17 27.5 17Z" fill="black"/>
<path d="M39.5 38H32V30.5L35.4001 33.9C36.3001 34.8 38.0001 34.8 38.9001 33.9L44.6 28.2C45.1 27.7 45.4 27 45.3 26.2C45.2001 25.5 44.9 24.8 44.3 24.4C43.3 23.7 41.9001 23.8 41 24.7L37.2001 28.5L33.3 24.6C32.8 24.1 32.2001 23.9 31.5 23.9H23.5C22.8 23.9 22.2 24.2 21.7 24.6L16.8 29.5H9.80005C8.40005 29.5 7.30005 30.6 7.30005 32C7.30005 33.4 8.40005 34.5 9.80005 34.5H17.8C18.5 34.5 19.1 34.2 19.6 33.8L23 30.4V36.4V38.4V40.4V42C23.2 42.1 23.3 42.1 23.5 42.2C23.6 42.2 23.7 42.3 23.8 42.3C23.9 42.3 23.9 42.3 24 42.4V41.8V40.5V39V38.5V38V36.5C24 35.7 24.7001 35 25.5 35C26.3 35 27 35.7 27 36.5V38V38.5V39V42V42.5V43V43.5C27.2001 43.6 27.3 43.6 27.5 43.7C27.7001 43.8 27.8 43.8 28 43.9V43H37V48.3C37.2001 48.4 37.3 48.5 37.5 48.6C37.7001 48.7 37.8 48.8 38 48.9V42.5C38 42.2 37.8 42 37.5 42H28V39H31.5H39.5C40.3 39 41 39.7 41 40.5V50.5C41 50.6 41 50.6 41 50.7C41.1 50.8 41.3001 50.9 41.4001 51C41.5 51.1 41.7001 51.2 41.8 51.3C41.9 51.1 41.9001 50.8 41.9001 50.5V50V40.5C42 39.2 40.9001 38 39.5 38ZM18.9 33.3C18.6 33.6 18.2 33.7 17.8 33.7H9.80005C9.00005 33.7 8.30005 33 8.30005 32.2C8.30005 31.4 9.00005 30.7 9.80005 30.7H17C17.1 30.7 17.3 30.6 17.4 30.6L22.5 25.5C22.8 25.2 23.2 25.1 23.6 25.1H31.6C32 25.1 32.4001 25.3 32.7001 25.5L36.9001 29.7C37.1001 29.9 37.4 29.9 37.6 29.7L41.8 25.5C42.4 24.9 43.2001 24.8 43.8 25.3C44.2001 25.6 44.4001 26 44.4001 26.4C44.4001 26.8 44.3 27.3 44 27.6L38.3 33.3C37.7 33.9 36.8001 33.9 36.2001 33.3L31.9 29C31.8 28.9 31.5 28.8 31.4 28.9C31.1 29 31 29.2 31 29.4V38H28V36.5C28 35.1 26.9 34 25.5 34C24.9 34 24.4 34.2 24 34.5V29.3C24 29.1 23.9001 28.9 23.7001 28.8C23.5 28.7 23.3 28.8 23.2 28.9L18.9 33.3Z" fill="black"/>
<path d="M41 50.8C40 50.2 39 49.6 38 49C37.8 48.9 37.7 48.8 37.5 48.7C37.3 48.6 37.2 48.5 37 48.4C34.4 46.9 31.7 45.5 28.9 44.3C28.6 44.2 28.3 44.1 28 44C27.8 43.9 27.7 43.9 27.5 43.8C27.3 43.7 27.2 43.7 27 43.6C26.6 43.4 26.1 43.3 25.7 43.1C25.1 42.9 24.5 42.7 24 42.5C23.9 42.5 23.9 42.5 23.8 42.4C23.7 42.4 23.6 42.3 23.5 42.3C23.3 42.2 23.2 42.2 23 42.1C11.3 38.3 5.59998 40 5.39998 40.1C5.29998 40.1 5.09998 40.2 5.09998 40.4C5.09998 40.6 5.09998 40.7 5.09998 40.8C5.29998 41.1 8.99998 48 24.7 54.5C25.2 54.7 25.7 54.9 26.3 55.1H27.6H27.8H29.3C29.2 55.1 29.2 55.1 29.1 55C27.7 54.5 26.4 54.1 25.1 53.5C12.3 48.2 7.59998 42.6 6.29998 40.9C8.09998 40.6 13.6 40.1 23 43.2C23.2 43.3 23.3 43.3 23.5 43.4C23.7 43.5 23.8 43.5 24 43.6C25 43.9 26 44.3 27 44.7C27.2 44.8 27.3 44.8 27.5 44.9C27.7 45 27.8 45 28 45.1C28.2 45.2 28.3 45.2 28.5 45.3C31.4 46.5 34.3 48 37 49.6C37.2 49.7 37.3 49.8 37.5 49.9C37.7 50 37.8 50.1 38 50.2C38.7 50.6 39.4 51.1 40.1 51.5C40.2 51.6 40.4 51.7 40.5 51.8C40.6 51.9 40.8 52 40.9 52.1C40.9 52.1 40.9 52.1 41 52.1C41.1 52.2 41.2 52.3 41.3 52.3C42.5 53.1 43.6 53.9 44.6 54.6C44.8 54.6 45 54.5 45.3 54.4C45.5 54.3 45.7 54.3 45.9 54.2C44.7 53.4 43.3 52.4 41.8 51.4C41.7 51.3 41.5 51.2 41.4 51.1C41.3 50.9 41.1 50.9 41 50.8Z" fill="#FCB019"/>
<path d="M46.4001 8H47.5C52.8 8 58 8.9 63 10.6V9.6C58 7.9 52.8 7 47.5 7H39.5H27.5C21 7 14.8 9.6 10.2 14.2C10 14.4 10 14.7 10.2 14.9C10.3 15 10.4 15 10.6 15C10.8 15 10.9 15 11 14.9C15.3 10.5 21.2 8 27.5 8C40.5 8 51 18.6 51 31.5C51 39 47.5 45.7 42 50V50.5C42 50.8 41.9001 51 41.9001 51.3C48 46.9 52 39.7 52 31.5C52 20.4 44.6001 11 34.4001 8H39.5C52.5 8 63 18.6 63 31.5V24.6C60.7001 16.7 54.4001 10.4 46.4001 8Z" fill="#2A76BC"/>
<path d="M46 54.1C45.8 54.2 45.6 54.2 45.4 54.3C45.2 54.4 45 54.4 44.7 54.5C43 54.8 41.3 55 39.5 55H34.4H29.2H27.7H27.5H26.2H0V55.5V56H27.5H29H30.6H32.4H39.4C40 56 40.6 56 41.3 55.9C41.4 55.9 41.5 55.9 41.7 55.9C42.3 55.8 42.9 55.8 43.4 55.7C43.5 55.7 43.6 55.7 43.7 55.6C44.3 55.5 44.8 55.4 45.4 55.3H45.5C45.6 55.3 45.6 55.3 45.7 55.2C45.9 55.1 46.1 55.1 46.3 55C46.5 54.9 46.7 54.9 46.9 54.8C47 54.8 47.1 54.7 47.2 54.7C47.3 54.7 47.4 54.6 47.5 54.6C48 54.4 48.6 54.2 49.1 54C49.2 54 49.3 53.9 49.4 53.9C49.9 53.7 50.4 53.5 50.8 53.2C50.9 53.2 50.9 53.1 51 53.1C51.5 52.8 52 52.5 52.5 52.2C52.6 52.1 52.7 52.1 52.8 52C53.3 51.7 53.7 51.4 54.2 51C54.3 51 54.3 50.9 54.4 50.9C54.8 50.6 55.2 50.2 55.6 49.9C55.7 49.8 55.7 49.8 55.8 49.7C56.2 49.3 56.6 48.9 57 48.5C57.1 48.4 57.2 48.3 57.3 48.2C57.7 47.8 58.1 47.4 58.4 46.9L58.5 46.8C58.8 46.4 59.2 46 59.5 45.5C59.6 45.4 59.6 45.3 59.7 45.2C60 44.7 60.3 44.3 60.6 43.8C60.7 43.7 60.7 43.6 60.8 43.5C61.1 43 61.4 42.5 61.6 42C61.8 41.5 62.1 41 62.3 40.4C62.3 40.3 62.4 40.2 62.4 40.1C62.6 39.6 62.8 39 63 38.5V38.4V36.4V31.5C63 42.3 55.8 51.3 46 54.1Z" fill="#2A76BC"/>
</svg>
