<svg width="63" height="63" viewBox="0 0 63 63" fill="none" xmlns="http://www.w3.org/2000/svg">
<path d="M18.8 17.8C20.2 16.4 20.2 14.2 18.8 12.9C17.5 11.6 15.2 11.6 13.9 12.9C13.2 13.6 12.9 14.4 12.9 15.4C12.9 16.3 13.3 17.2 13.9 17.9C14.6 18.6 15.5 18.9 16.4 18.9C17.2 18.8 18.1 18.4 18.8 17.8ZM13.8 15.3C13.8 14.6 14.1 14 14.5 13.5C14.9 13 15.6 12.8 16.3 12.8C17 12.8 17.6 13.1 18.1 13.5C19.1 14.5 19.1 16.1 18.1 17C17.1 18 15.5 18 14.6 17C14 16.6 13.8 15.9 13.8 15.3Z" fill="black"/>
<path d="M23 16.3C23.3 16 23.7 15.9 24.1 15.9H27.1L29 17.8C29.1 17.9 29.2 17.9 29.4 17.9C29.6 17.9 29.7 17.9 29.8 17.8C29.9 17.7 30 17.5 29.9 17.3C29.9 17.2 29.8 17.2 29.8 17.1L28.7 16L27.7 15L25.6 12.9C25 12.3 25 11.4 25.6 10.8C26.2 10.2 27.1 10.2 27.7 10.8L31.9 15L33.2 16.3H33.1C33.4 16.5 33.7 16.9 33.8 17.3C33.9 17.8 33.8 18.2 33.5 18.5C33.2 18.8 32.8 19 32.4 19H26.4C26.5 19 26.7 19.1 26.8 19.1L27.7 20H32.5C33.2 20 33.9 19.7 34.4 19.1C34.9 18.5 35.1 17.8 35 17.1C34.9 16.6 34.7 16.2 34.4 15.9C34.4 15.9 34.4 15.8 34.3 15.8L28.2 10C27.2 9 25.6 9 24.7 10C23.8 11 23.7 12.6 24.7 13.5L26.1 14.9H24.5L23 16.3Z" fill="black"/>
<path d="M44.9 12.8L32.6 25.2L33 25.6C33 25.6 33.1 25.7 33.1 25.8C33.1 25.9 33.1 25.9 33.1 26C33.1 26.1 33.1 26.1 33.1 26.2C33.1 26.3 33 26.3 33 26.4L45.7 13.7C46.3 13.1 47.2 13.1 47.8 13.7C48.1 14 48.2 14.4 48.2 14.8C48.2 15.2 48 15.6 47.8 15.9L31.4 32C31.3 32.1 31.3 32.2 31.3 32.4V51.6C31.3 52.4 30.6 53.1 29.8 53.1C29 53.1 28.3 52.4 28.3 51.6V32.4C28.3 32.3 28.2 32.1 28.2 32L27.8 31.6C27.7 31.7 27.5 31.8 27.4 31.9C27.1 32 27 32 26.9 32C26.8 32 26.6 32 26.5 31.9L27.2 32.6V51.6C27.2 53 28.3 54.1 29.7 54.1C31.1 54.1 32.2 53 32.2 51.6V32.6L48.4 16.4C48.9 15.9 49.1 15.3 49.1 14.6C49.1 13.9 48.8 13.3 48.4 12.8C47.5 11.9 45.9 11.9 44.9 12.8Z" fill="black"/>
<path d="M26.9 32C27 32 27.2 32 27.3 31.9C27.4 31.8 27.6 31.7 27.7 31.6C28.2 31.3 28.8 31.2 29.5 31.2C30.2 31.3 31 31 31.5 30.5C32 30 32.3001 29.2 32.2001 28.5C32.1 27.6 32.4001 26.8 32.9001 26.3C32.9001 26.3 33 26.2 33 26.1C33 26 33 26 33 25.9C33 25.8 33 25.8 33 25.7C33 25.6 32.9001 25.6 32.9001 25.5L32.5 25.1L27.2 19.8L26.4 19C26.3 18.9 26.2 18.9 26 18.9H24.1C23.3 18.9 22.5 18.3 22.5 17.5C22.5 17.1 22.6 16.6 22.9 16.3L24.3 14.9C24.5 14.7 24.5 14.4 24.3 14.2C24.1 14 23.8 14 23.6 14.2L22.2 15.6L19.4 18.4L16.6 21.2L15.2 22.6C15 22.8 15 23.1 15.2 23.3C15.3 23.4 15.4 23.4 15.6 23.4C15.7 23.4 15.8 23.4 15.9 23.3L17.3 21.9C17.3 21.9 17.3 21.9 17.4 21.9C17.5 21.8 17.5 21.8 17.6 21.8C17.6 21.8 17.7 21.8 17.7 21.7C17.8 21.7 17.8 21.6 17.9 21.6H18C18.1 21.6 18.1 21.6 18.2 21.6H18.3C18.4 21.6 18.4 21.6 18.5 21.6C18.5 21.6 18.5 21.6 18.6 21.6H18.7C18.8 21.6 18.8 21.6 18.9 21.6C18.9 21.6 18.9 21.6 19 21.6C19.6 21.8 20.1 22.4 20.1 23.2V25.1C20.1 25.2 20.2 25.4 20.2 25.5L20.4 25.7L20.8 25.3L21.1 25L21.2 24.9L21.1 24.8V23.1C21.1 22.1 20.6 21.3 19.8 20.8C19.7 20.7 19.6 20.7 19.5 20.6C19.4 20.6 19.4 20.6 19.3 20.5C19.2 20.5 19.1 20.5 19.1 20.4C19.1 20.4 19.1 20.4 19 20.4L21.8 17.6C22 18.8 23.1 19.7 24.4 19.7H26.1L32.1 25.7C31.7 26.3 31.5 27 31.4 27.7C31.4 27.9 31.4 28.1 31.4 28.3C31.4 28.7 31.3 29.2 31 29.5C30.7 29.8 30.2 30 29.8 29.9C29.6 29.9 29.4 29.9 29.2 29.9C28.4 29.9 27.7 30.2 27.2 30.6L24.8 28.2L24.4 28.6L24 29L26.7 31.7C26.6 32 26.8 32 26.9 32Z" fill="#EE2B2F"/>
<path d="M24.5001 28.5L25.8001 27.2C26.3001 26.7 26.5001 26.1 26.5001 25.4C26.5001 24.7 26.2001 24.1 25.8001 23.6C24.9001 22.7 23.2001 22.7 22.3001 23.6L21.0001 24.9L20.9001 25L20.6001 25.3L20.2001 25.7L20.0001 25.5C19.9001 25.4 19.9001 25.3 19.9001 25.1V26.1L18.0001 28C17.8001 28.2 17.8001 28.5 18.0001 28.7C18.1001 28.8 18.3001 28.9 18.5001 28.8C18.6001 28.8 18.6001 28.7 18.7001 28.7L19.8001 27.6L20.8001 26.6L20.9001 26.5L21.3001 26.1L21.7001 25.7L23.0001 24.4C23.6001 23.8 24.6001 23.8 25.1001 24.4C25.4001 24.7 25.5001 25.1 25.5001 25.5C25.5001 25.9 25.3001 26.3 25.1001 26.6L23.8001 27.9L23.4001 28.3L23.0001 28.7L20.8001 30.9L19.5001 32.2L19.4001 32.3L19.3001 32.4L19.2001 32.5L19.1001 32.6L19.0001 32.7C19.0001 32.7 18.9001 32.7 18.9001 32.8C18.8001 32.8 18.8001 32.8 18.7001 32.8C18.7001 32.8 18.6001 32.8 18.5001 32.8C18.4001 32.8 18.4001 32.8 18.3001 32.8C18.2001 32.8 18.2001 32.8 18.1001 32.8H18.0001C17.8001 32.8 17.7001 32.7 17.5001 32.6C17.1001 32.3 16.8001 31.8 16.8001 31.2V23.3C16.8001 23.2 16.8001 23.1 16.8001 23C16.8001 22.9 16.8001 22.9 16.8001 22.8V22.7C16.8001 22.7 16.8001 22.6 16.9001 22.6C16.9001 22.6 16.9001 22.5 17.0001 22.5C17.0001 22.4 17.1001 22.4 17.1001 22.3L17.2001 22.2C17.2001 22.2 17.2001 22.2 17.1001 22.2L15.7001 23.6V31.1V31.2C15.7001 32.1 16.2001 32.9 16.9001 33.3C16.9001 33.3 17.0001 33.3 17.0001 33.4C17.1001 33.4 17.2001 33.5 17.2001 33.5C17.3001 33.5 17.4001 33.6 17.5001 33.6C17.6001 33.6 17.6001 33.6 17.7001 33.6C17.7001 33.6 17.7001 33.6 17.8001 33.6C17.9001 33.6 18.1001 33.6 18.2001 33.6C18.2001 33.6 18.2001 33.6 18.3001 33.6C18.4001 33.6 18.6001 33.6 18.7001 33.6C18.8001 33.6 18.8001 33.6 18.9001 33.6C19.0001 33.6 19.1001 33.6 19.2001 33.5C19.3001 33.5 19.3001 33.4 19.4001 33.4C19.5001 33.4 19.6001 33.3 19.6001 33.3C19.7001 33.3 19.7001 33.2 19.8001 33.2L19.9001 33.1C19.9001 33.1 19.9001 33.1 20.0001 33C20.0001 33 20.1001 33 20.1001 32.9L23.7001 29.3L24.1001 28.9L24.5001 28.5Z" fill="black"/>
</svg>
