<svg width="63" height="63" viewBox="0 0 63 63" fill="none" xmlns="http://www.w3.org/2000/svg">
<path d="M8 52.7L0 51.1V52.1L7.8 53.7C15.7 55.3 23.6 56 31.5 56C39.4 56 47.3 55.2 55.2 53.7L63 52.1V51.1L55 52.7C39.4 55.8 23.6 55.8 8 52.7Z" fill="#00A64F"/>
<path d="M40.5 7H19.5C18.1 7 17 8.2 17 9.5C17 10.9 18.1 12 19.5 12H25C25 12.6 25.3 13.2 25.7 13.7L37 25C37.1 25.1 37.2 25.2 37.3 25.3L37.4 25.4C37.6 25.5 37.8 25.7 38.1 25.8C38.3 25.9 38.5 25.9 38.7 26H38.8C39 26 39.3 26.1 39.5 26.1C41.4 26.1 43 24.5 43 22.6V11.6V9.6C43 8.2 41.9 7 40.5 7ZM42 22.5C42 23.9 40.9 25 39.5 25H39.4C39.3 25 39.1 25 39 25C39 25 39 25 38.9 25C38.8 25 38.6 24.9 38.5 24.9C38.4 24.8 38.3 24.8 38.1 24.7L38 24.6C37.9 24.5 37.9 24.5 37.8 24.4C37.8 24.4 37.7 24.4 37.7 24.3L36.5 23.1L36 22.6L26.4 13C26.1 12.7 26 12.4 26 12C26 11.8 26 11.7 26.1 11.5C26.1 11.3 26.2 11.2 26.4 11C26.4 10.9 26.5 10.9 26.5 10.8C27.1 10.2 28 10.2 28.6 10.8L28.8 11L29.3 11.5L29.8 12L36.1 18.3L36.6 18.8L37.1 19.3L37.8 20C37.9 20.1 38.1 20.2 38.3 20.1C38.4 20.1 38.5 20 38.5 20C38.7 19.8 38.7 19.5 38.5 19.3L37 17.9V12H39.3H42V22.5ZM31.1 12H36V16.9L31.1 12ZM42 11H30.1L29.2 10.1C28.2 9.1 26.6 9.1 25.7 10.1C25.4 10.4 25.3 10.7 25.1 11H19.4C18.6 11 17.9 10.3 17.9 9.5C18 8.7 18.7 8 19.5 8H40.5C41.3 8 42 8.7 42 9.5V11Z" fill="black"/>
<path d="M31.4 25.7C30.7 26.4 30.4 27.2 30.4 28.2C30.4 29.1 30.8 30 31.4 30.7C32 31.4 32.9 31.7 33.9 31.7C34.8 31.7 35.7 31.3 36.4 30.7C37.1 30.1 37.4 29.2 37.4 28.2C37.4 27.3 37 26.4 36.4 25.7C35 24.4 32.7 24.4 31.4 25.7ZM35.6 30C34.7 30.9 33 30.9 32.1 30C31.6 29.5 31.4 28.9 31.4 28.2C31.4 27.5 31.7 26.9 32.1 26.4C32.6 25.9 33.2 25.7 33.9 25.7C34.6 25.7 35.2 25.9 35.7 26.4C36.2 26.9 36.4 27.5 36.4 28.2C36.3 28.9 36.1 29.5 35.6 30Z" fill="black"/>
</svg>
