<svg width="63" height="63" viewBox="0 0 63 63" fill="none" xmlns="http://www.w3.org/2000/svg">
<path d="M11.3 42.5C11.3 43.2 11.6 43.8 12 44.3C12.5 44.8 13.1 45 13.8 45C14.5 45 15.1 44.7 15.6 44.3L24.5 35.4C24.4 35.2 24.4 35.1 24.3 34.9C24.2 34.7 24.2 34.6 24.1 34.4L14.9 43.6C14.3 44.2 13.3 44.2 12.8 43.6C12.5 43.3 12.4 42.9 12.4 42.5C12.4 42.1 12.6 41.7 12.8 41.4L22.3 31.9C22.2 31.8 22.1 31.7 21.9 31.6C21.7 31.5 21.7 31.4 21.5 31.3L12 40.8C11.6 41.2 11.3 41.9 11.3 42.5Z" fill="black"/>
<path d="M23 31.2L25.2 29C25.3 29.1 25.4 29.3 25.5 29.4L27.3 31.2L24.8 33.7C24.9 33.9 25 34 25 34.2C25.1 34.4 25.1 34.5 25.2 34.7L27.9 32L31.4 35.5L26.1 40.8C25.6 41.3 25.4 41.9 25.4 42.6C25.4 43.3 25.7 43.9 26.1 44.4C26.6 44.9 27.2 45.1 27.9 45.1C28.6 45.1 29.2 44.8 29.7 44.4L35 39L36 38L36.8 37.2C37.7 36.3 37.8 35 37.1 34C37 33.9 36.9 33.7 36.8 33.6L36.4 33.2L32.2 29L38.6 22.6L41.8 25.8C42.3 26.3 42.9 26.5 43.6 26.5C44.3 26.5 44.9 26.2 45.4 25.8L51.1 20.1C52.1 19.1 52.1 17.5 51.1 16.6C50.1 15.6 48.5 15.6 47.6 16.6L43.7 20.5L39.8 16.6L34 11.1C33.1 10.2 31.4 10.2 30.5 11.1L24.8 16.8C23.8 17.8 23.8 19.4 24.8 20.3C25.3 20.8 25.9 21 26.6 21C27.3 21 27.9 20.7 28.4 20.3L32.3 16.4L33.7 17.8L27 24.5L25.6 25.9C25 26.5 24.8 27.3 24.9 28L22.4 30.5C22.5 30.6 22.6 30.7 22.8 30.8C23 30.9 22.9 31.1 23 31.2ZM31.9 15.3L27.6 19.5C27.3 19.8 27 20 26.6 20C26.2 20 25.8 19.8 25.5 19.6C24.9 19 24.9 18.1 25.5 17.5L31.2 11.8C31.8 11.2 32.8 11.2 33.3 11.8L37.3 15.8C36.4 15.8 35.4 16.1 34.7 16.8L34.4 17.1L32.6 15.3C32.4 15.1 32.1 15.1 31.9 15.3ZM34.7 18.1L35.1 17.7L35.4 17.4C36.3 16.5 38 16.5 38.9 17.4L39 17.5L40.1 18.6L40.7 19.2L43.2 21.7C43.4 21.9 43.7 21.9 43.9 21.7L48.1 17.5C48.7 16.9 49.6 16.9 50.2 17.5C50.8 18.1 50.8 19 50.2 19.6L44.5 25.3C44.2 25.6 43.8 25.7 43.4 25.7C43 25.7 42.6 25.5 42.3 25.3L39.3 22L38.9 21.6L38.5 21.2L37.4 20.1C37.4 20.1 37.3 20.1 37.3 20C37.1 19.9 36.9 19.9 36.7 20.1C36.5 20.3 36.5 20.6 36.7 20.8L37.8 21.9L31.4 28.3L29.6 26.5L28 24.9L34.4 18.5L34.7 18.1ZM26.2 26.6L27.3 25.5L27.7 25.9L28.2 26.4L29.1 27.3L30 28.2L30.5 28.7L31.2 29.4L36 34.2L36.2 34.4C36.5 34.7 36.6 35.1 36.6 35.4C36.6 35.7 36.5 35.9 36.4 36.2C36.3 36.3 36.3 36.4 36.2 36.5L35.2 37.5L29.2 43.5C28.6 44.1 27.6 44.1 27.1 43.5C26.8 43.2 26.7 42.8 26.7 42.4C26.7 42 26.9 41.6 27.1 41.3L32.8 35.6C33 35.4 33 35.1 32.8 34.9L28.9 31L28.5 30.6L28 30.5L26.2 28.7C26.1 28.6 26 28.4 25.9 28.3C25.8 28.1 25.8 27.9 25.8 27.7C25.8 27.3 25.9 26.9 26.2 26.6Z" fill="black"/>
<path d="M37.1 34.1C38.7 31.1 41.9 29.1 45.5 29.1C50.7 29.1 55 33.4 55 38.6C55 43.8 50.7 48 45.5 48C40.3 48 36 43.8 36 38.5C36 38.3 36 38.1 36 38L35 39C35.2 44.6 39.8 49 45.5 49C51.3 49 56 44.3 56 38.5C56 32.7 51.3 28 45.5 28C41.6 28 38.2 30.1 36.4 33.3L36.8 33.7C36.9 33.8 37 33.9 37.1 34.1Z" fill="#FCB019"/>
<path d="M62.3 53.9C60.8 55.3 58.1 55.3 56.6 53.9L55.8 53.1C55.6 52.9 55.3 52.9 55.1 53.1L54.3 53.9C52.7 55.4 50.2 55.4 48.6 53.9L47.8 53.1C47.6 52.9 47.3 52.9 47.1 53.1L46.3 53.9C44.7 55.4 42.2 55.4 40.6 53.9L39.8 53.1C39.6 52.9 39.3 52.9 39.1 53.1L38.3 53.9C36.7 55.4 34.2 55.4 32.6 53.9L31.8 53.1C31.6 52.9 31.3 52.9 31.1 53.1L30.3 53.9C28.7 55.4 26.2 55.4 24.6 53.9L23.8 53.1C23.6 52.9 23.3 52.9 23.1 53.1L22.3 53.9C20.7 55.4 18.2 55.4 16.6 53.9L15.8 53.1C15.6 52.9 15.3 52.9 15.1 53.1L14.3 53.9C12.7 55.4 10.2 55.4 8.6 53.9L7.8 53.1C7.6 52.9 7.3 52.9 7.1 53.1L6.3 53.9C4.7 55.4 2.2 55.4 0.6 53.9L0 53.3V54.7C1.9 56.5 5.1 56.5 7 54.7L7.5 54.3L8 54.7C9.9 56.5 13.1 56.5 15 54.7L15.5 54.3L16 54.7C17.9 56.5 21.1 56.5 23 54.7L23.5 54.3L24 54.7C25.9 56.5 29.1 56.5 31 54.7L31.5 54.3L32 54.7C33.9 56.5 37.1 56.5 39 54.7L39.5 54.3L40 54.7C41.9 56.5 45.1 56.5 47 54.7L47.5 54.3L48 54.7C49.9 56.5 53.1 56.5 55 54.7L55.5 54.3L56 54.7C56.9 55.6 58.2 56.1 59.5 56.1C60.8 56.1 62.1 55.6 63 54.7V53.3L62.3 53.9Z" fill="#2A76BC"/>
<path d="M15.5 49C21.3 49 26 44.3 26 38.5C26 37.1 25.7 35.8 25.2 34.6C25.1 34.4 25.1 34.3 25 34.1C24.9 33.9 24.9 33.8 24.8 33.6C24.3 32.7 23.7 31.9 23 31.1C22.9 31 22.8 30.9 22.6 30.8C22.4 30.7 22.4 30.6 22.2 30.5C20.5 29 18.1 28 15.5 28C9.7 28 5 32.7 5 38.5C5 44.3 9.7 49 15.5 49ZM15.5 29C17.8 29 19.9 29.8 21.6 31.2C21.7 31.3 21.8 31.4 22 31.5C22.2 31.6 22.2 31.7 22.4 31.8C23.1 32.5 23.7 33.4 24.1 34.3C24.2 34.5 24.3 34.6 24.3 34.8C24.4 35 24.4 35.1 24.5 35.3C24.8 36.3 25 37.3 25 38.4C25 43.6 20.7 47.9 15.5 47.9C10.3 47.9 6 43.8 6 38.5C6 33.2 10.3 29 15.5 29Z" fill="#FCB019"/>
<path d="M42.8 17C43.7 17 44.6 16.7 45.3 16C46.7 14.6 46.7 12.4 45.3 11.1C43.9 9.8 41.7 9.7 40.3 11.1C39.6 11.8 39.3 12.6 39.3 13.6C39.3 14.5 39.7 15.4 40.3 16.1C41 16.7 41.9 17 42.8 17ZM42.8 11C43.4 11 44.1 11.2 44.6 11.7C45.6 12.7 45.6 14.3 44.6 15.2C43.6 16.2 42 16.2 41.1 15.2C40.6 14.7 40.4 14.1 40.4 13.4C40.4 12.7 40.7 12.1 41.1 11.6C41.5 11.3 42.2 11 42.8 11Z" fill="black"/>
</svg>
