<svg width="63" height="63" viewBox="0 0 63 63" fill="none" xmlns="http://www.w3.org/2000/svg">
<g clip-path="url(#clip0_323_21391)">
<path d="M31.5 16C33.4 16 35 14.4 35 12.5C35 10.6 33.4 9 31.5 9C29.6 9 28 10.6 28 12.5C28 14.4 29.6 16 31.5 16ZM31.5 10C32.9 10 34 11.1 34 12.5C34 13.9 32.9 15 31.5 15C30.1 15 29 13.9 29 12.5C29 11.1 30.1 10 31.5 10Z" fill="black"/>
<path d="M51.5 22C52.9 22 54 20.9 54 19.5C54 18.1 52.9 17 51.5 17H22V11.5C22 11.3 22 11.2 21.9 11C21.6 11.3 21.3 11.5 21 11.7V17.6C21 17.9 21.2 18.1 21.5 18.1H51.5C52.3 18.1 53 18.8 53 19.6C53 20.4 52.3 21 51.5 21H35.5C35.2 21 35 21.2 35 21.5V31C35.2 31 35.3 31 35.5 31C35.7 31 35.8 31 36 31V22H51.5Z" fill="black"/>
<path d="M27.5 21H19.5C18.7 21 18 20.3 18 19.5V11.6C17.6 11.4 17.3 11.2 17.1 10.9C17.1 11.1 17 11.2 17 11.4V19.4C17 20.8 18.1 21.9 19.5 21.9H27V30.9C27.2 30.9 27.3 30.9 27.5 30.9C27.7 30.9 27.8 30.9 28 30.9V21.4C28 21.3 27.8 21 27.5 21Z" fill="black"/>
<path d="M20.7 48.8C19.8 49.7 19.7 51.1 20.4 52.1C20.8 52.7 21.5 53.1 22.2 53.1C22.3 53.1 22.3 53.1 22.4 53.1C23.1 53.1 23.7 52.8 24.2 52.4L31.3 45.3C31.8 44.8 32 44.2 32 43.5V36H32.5L38.1 41.6V50.5C38.1 51.8 39 52.9 40.2001 53.1C40.9001 53.2 41.7001 53 42.2001 52.5C42.7001 52 43.1 51.3 43.1 50.6V40.6C43.1 39.9 42.8001 39.3 42.4001 38.8L36 32.5V32C35.8 32 35.7 32 35.5 32C34.4 32 33.3 31.7 32.4001 31H30.5C29.6 31.7 28.5 32 27.4 32C27.2 32 27.1 32 26.9 32V42.5L20.7 48.8ZM27.9 43.1C28 43 28 42.9 28 42.7V32H35V32.7C35 32.8 35.1 33 35.1 33.1L41.6 39.6C41.9 39.9 42 40.3 42 40.7V50.7C42 51.1 41.8 51.6 41.5 51.8C41.2001 52.1 40.7 52.2 40.3 52.1C39.6 52 39.1 51.3 39.1 50.5V41.4C39.1 41.3 39 41.1 39 41L33 35.2C32.9 35.1 32.8 35.1 32.6 35.1H31.4C31.1 35.1 30.9 35.3 30.9 35.6V43.6C30.9 44 30.7 44.4 30.5 44.7L23.4 51.8C23.1 52.1 22.7 52.3 22.2 52.2C21.8 52.2 21.4 51.9 21.1 51.6C20.7 51 20.8 50.2 21.3 49.6L27.9 43.1Z" fill="#7F7C7C"/>
<path d="M19.5 12C20 12 20.5 11.9 21 11.6C21.4 11.4 21.7 11.2 21.9 10.9C22.5 10.3 23 9.4 23 8.4C23 6.6 21.4 5 19.5 5C17.6 5 16 6.6 16 8.5C16 9.5 16.4 10.4 17.1 11C17.4 11.3 17.7 11.5 18 11.7C18.5 11.9 19 12 19.5 12ZM22 8.5C22 9.1 21.8 9.6 21.5 10C21.3 10.3 21 10.5 20.8 10.7C20.4 10.9 20 11 19.5 11C19 11 18.6 10.9 18.3 10.7C18 10.5 17.8 10.3 17.6 10C17.2 9.6 17 9.1 17 8.5C17 7.2 18.1 6 19.5 6C20.9 6 22 7.2 22 8.5Z" fill="#FCB019"/>
<path d="M62.3 29.9C60.8 31.3 58.1 31.3 56.6 29.9L55.8 29.1C55.6 28.9 55.3 28.9 55.1 29.1L54.3 29.9C52.7 31.4 50.2 31.4 48.6 29.9L47.8 29.1C47.6 28.9 47.3 28.9 47.1 29.1L46.3 29.9C44.7 31.4 42.2 31.4 40.6 29.9L39.8 29.1C39.6 28.9 39.3 28.9 39.1 29.1L38.3 29.9C37.6 30.5 36.8 30.9 36 31C35.8 31 35.7 31 35.5 31C35.3 31 35.2 31 35 31C34.1 30.9 33.3 30.6 32.7 29.9L31.9 29.1C31.7 28.9 31.4 28.9 31.2 29.1L30.4 29.9C29.7 30.5 28.9 30.9 28.1 31C27.9 31 27.8 31 27.6 31C27.4 31 27.3 31 27.1 31C26.2 30.9 25.4 30.6 24.8 29.9L24 29.1C23.8 28.9 23.5 28.9 23.3 29.1L22.5 29.9C20.9 31.4 18.4 31.4 16.8 29.9L16 29.1C15.8 28.9 15.5 28.9 15.3 29.1L14.5 29.9C12.9 31.4 10.4 31.4 8.8 29.9L8 29.1C7.8 28.9 7.5 28.9 7.3 29.1L6.5 29.9C4.9 31.4 2.4 31.4 0.8 29.9L0 29.3V30.7C1.9 32.5 5.1 32.5 7 30.7L7.5 30.3L8 30.7C9.9 32.5 13.1 32.5 15 30.7L15.5 30.3L16 30.7C17.9 32.5 21.1 32.5 23 30.7L23.5 30.3L24 30.7C24.8 31.5 25.9 31.9 27 32C27.2 32 27.3 32 27.5 32C28.6 32 29.7 31.7 30.6 31C30.8 30.9 30.9 30.8 31.1 30.6L31.6 30.2L32.1 30.6C32.3 30.7 32.4 30.8 32.6 31C33.5 31.7 34.6 32 35.7 32C35.9 32 36 32 36.2 32C37.3 31.9 38.4 31.5 39.2 30.7L39.7 30.3L40.2 30.7C42.1 32.5 45.3 32.5 47.2 30.7L47.7 30.3L48.2 30.7C50.1 32.5 53.3 32.5 55.2 30.7L55.7 30.3L56.2 30.7C57.1 31.6 58.4 32.1 59.7 32.1C61 32.1 62.3 31.6 63.2 30.7V29.3L62.3 29.9Z" fill="#2A76BC"/>
</g>
<defs>
<clipPath id="clip0_323_21391">
<rect width="63" height="63" fill="white"/>
</clipPath>
</defs>
</svg>
