<svg width="63" height="63" viewBox="0 0 63 63" fill="none" xmlns="http://www.w3.org/2000/svg">
<path d="M31.7 19.5C33.6 19.5 35.2 17.9 35.2 16C35.2 14.1 33.6 12.5 31.7 12.5C29.8 12.5 28.2 14 28.2 16C28.2 18 29.8 19.5 31.7 19.5ZM34.2 16C34.2 17.4 33.1 18.5 31.7 18.5C30.3 18.5 29.2 17.4 29.2 16C29.2 14.6 30.3 13.5 31.7 13.5C33.1 13.5 34.2 14.6 34.2 16Z" fill="black"/>
<path d="M28.5 21.5H34.9C35 21.5 35.2 21.4 35.3 21.4L44.5 12.2H43.8H43L34.7 20.5H28.8L20.5 12.2H19.8H19L28.2 21.4C28.3 21.4 28.4 21.5 28.5 21.5Z" fill="black"/>
<path d="M3.69995 11.1C3.39995 11.1 3.19995 11.3 3.19995 11.6C3.19995 11.9 3.39995 12.1 3.69995 12.1H5.19995V11.1H3.69995Z" fill="#2A76BC"/>
<path d="M13.9999 11.1H10.2999V12.1H13.9999C13.9999 11.9 13.8999 11.8 13.8999 11.6C13.8999 11.5 13.8999 11.3 13.9999 11.1Z" fill="#2A76BC"/>
<path d="M49.5 11.1C49.5 11.3 49.6 11.4 49.6 11.6C49.6 11.8 49.6 11.9 49.5 12.1H53.2V11.1H49.5Z" fill="#2A76BC"/>
<path d="M59.7 11.1H58.2V12.1H59.7C60 12.1 60.2 11.9 60.2 11.6C60.2 11.3 60 11.1 59.7 11.1Z" fill="#2A76BC"/>
<path d="M18.8999 11.3C18.8999 11.4 18.8999 11.5 18.8999 11.7C18.8999 11.8 18.8999 11.9 18.8999 12C18.8999 12.1 18.8999 12.1 18.8999 12.2H18.9999H19.6999H20.3999H42.9999H43.6999H44.3999H44.5999C44.5999 12.1 44.5999 12.1 44.5999 12C44.5999 11.9 44.5999 11.8 44.5999 11.7C44.5999 11.6 44.5999 11.5 44.5999 11.3V11.2H43.9999H19.3999H18.7999C18.8999 11.2 18.8999 11.2 18.8999 11.3Z" fill="#2A76BC"/>
<path d="M58.2 7.60001C58.2 7.30001 58 7.10001 57.7 7.10001H56.2V5.60001C56.2 5.30001 56 5.10001 55.7 5.10001H53.7C53.4 5.10001 53.2 5.30001 53.2 5.60001V11.1V12.1V17.6C53.2 17.9 53.4 18.1 53.7 18.1H55.7C56 18.1 56.2 17.9 56.2 17.6V16.1H57.7C58 16.1 58.2 15.9 58.2 15.6V12.1V11.1V7.60001ZM57.2 11.1V12.1V15.1H56.2V12.1V11.1V8.10001H57.2V11.1ZM55.2 15.6V17.1H54.2V12.1V11.1V6.10001H55.2V7.60001V11.1V12.1V15.6Z" fill="#FCB019"/>
<path d="M10.2 5.60001C10.2 5.30001 9.99995 5.10001 9.69995 5.10001H7.69995C7.39995 5.10001 7.19995 5.30001 7.19995 5.60001V7.10001H5.69995C5.39995 7.10001 5.19995 7.30001 5.19995 7.60001V11.1V12.1V15.6C5.19995 15.9 5.39995 16.1 5.69995 16.1H7.19995V17.6C7.19995 17.9 7.39995 18.1 7.69995 18.1H9.69995C9.99995 18.1 10.2 17.9 10.2 17.6V12.1V11.1V5.60001ZM9.19995 11.1V12.1V17.1H8.19995V15.6V12.1V11.1V7.60001V6.10001H9.19995V11.1ZM6.19995 12.1V11.1V8.10001H7.19995V11.1V12.1V15.1H6.19995V12.1Z" fill="#FCB019"/>
<path d="M49.4999 11.1C49.3999 10.6 49.1999 10.2 48.7999 9.80002C47.7999 8.80002 46.1999 8.80002 45.2999 9.80002L43.9999 11.1H44.5999V11.2C44.5999 11.3 44.5999 11.4 44.5999 11.6C44.5999 11.7 44.5999 11.8 44.5999 11.9C44.5999 12 44.5999 12 44.5999 12.1C44.6999 12.6 44.8999 13 45.2999 13.4C45.6999 13.8 46.1999 14 46.6999 14.1L35.3999 25.4C35.2999 25.5 35.2999 25.6 35.2999 25.8V34.5H28.2999V25.8C28.2999 25.7 28.1999 25.5 28.1999 25.4L16.6999 14.1C17.1999 14 17.6999 13.8 18.0999 13.4C18.4999 13 18.6999 12.6 18.7999 12.1C18.7999 12 18.7999 12 18.7999 11.9C18.7999 11.8 18.7999 11.7 18.7999 11.6C18.7999 11.5 18.7999 11.4 18.7999 11.2V11.1H19.3999L18.0999 9.80002C17.0999 8.80002 15.4999 8.80002 14.5999 9.80002C14.1999 10.2 13.9999 10.6 13.8999 11.1C13.8999 11.3 13.7999 11.4 13.7999 11.6C13.7999 11.8 13.7999 11.9 13.8999 12.1C13.8999 12.3 13.9999 12.5 14.0999 12.7C14.1999 12.9 14.3999 13.2 14.5999 13.4L27.1999 26V35V36.5L19.6999 54.5C19.1999 55.8 19.7999 57.2 21.0999 57.8C21.3999 57.9 21.6999 58 21.9999 58C22.2999 58 22.6999 57.9 22.9999 57.8C23.5999 57.5 24.0999 57.1 24.2999 56.4L31.2999 39.5H31.9999L38.9999 56.4C39.2999 57 39.6999 57.5 40.2999 57.8C40.8999 58.1 41.5999 58.1 42.1999 57.8C43.4999 57.3 44.0999 55.8 43.4999 54.5L35.9999 36.5V35V26L48.5999 13.4C48.7999 13.2 48.9999 13 49.0999 12.7C49.1999 12.5 49.2999 12.3 49.2999 12.1C49.2999 11.9 49.3999 11.8 49.3999 11.6C49.4999 11.5 49.4999 11.3 49.4999 11.1ZM45.9999 12.7C45.7999 12.5 45.6999 12.3 45.6999 12.1C45.5999 11.9 45.5999 11.8 45.5999 11.6C45.5999 11.4 45.5999 11.3 45.6999 11.1C45.7999 10.9 45.8999 10.7 45.9999 10.5C46.0999 10.4 46.2999 10.3 46.3999 10.2C46.4999 10.2 46.4999 10.2 46.5999 10.1C46.6999 10.1 46.7999 10.1 46.8999 10C47.0999 10 47.2999 10 47.4999 10.1C47.6999 10.2 47.8999 10.3 48.0999 10.4C48.1999 10.5 48.1999 10.6 48.2999 10.7C48.3999 10.8 48.3999 10.9 48.3999 11C48.4999 11.2 48.4999 11.3 48.4999 11.5C48.4999 11.7 48.4999 11.8 48.3999 12V12.1C48.2999 12.3 48.1999 12.4 48.0999 12.6C47.4999 13.3 46.5999 13.3 45.9999 12.7ZM40.7999 56.8C40.3999 56.6 40.0999 56.4 39.9999 56L32.7999 38.8C32.6999 38.6 32.4999 38.5 32.2999 38.5H30.9999C30.7999 38.5 30.5999 38.6 30.4999 38.8L23.3999 56C23.1999 56.4 22.9999 56.7 22.5999 56.8C22.1999 57 21.7999 57 21.4999 56.8C20.6999 56.5 20.3999 55.6 20.6999 54.8L28.1999 36.7C28.1999 36.6 28.1999 36.6 28.1999 36.5V35.4H35.1999V36.5C35.1999 36.6 35.1999 36.6 35.1999 36.7L42.6999 54.8C42.9999 55.6 42.6999 56.4 41.8999 56.8C41.5999 57 41.1999 57 40.7999 56.8ZM17.4999 12.7C16.8999 13.3 15.8999 13.3 15.3999 12.7C15.2999 12.6 15.0999 12.4 15.0999 12.2C15.0999 12.2 15.0999 12.2 15.0999 12.1C14.9999 11.9 14.9999 11.8 14.9999 11.6C14.9999 11.4 14.9999 11.3 15.0999 11.1C15.0999 11 15.1999 10.9 15.2999 10.8C15.3999 10.7 15.3999 10.6 15.4999 10.6C15.5999 10.5 15.7999 10.3 15.9999 10.3C16.1999 10.2 16.3999 10.2 16.5999 10.2C16.7999 10.2 16.9999 10.2 17.1999 10.3C17.3999 10.4 17.4999 10.5 17.6999 10.6C17.8999 10.8 17.9999 11 17.9999 11.2C18.0999 11.4 18.0999 11.5 18.0999 11.7C18.0999 11.9 18.0999 12 17.9999 12.2C17.6999 12.3 17.5999 12.5 17.4999 12.7Z" fill="black"/>
</svg>
