<svg width="63" height="63" viewBox="0 0 63 63" fill="none" xmlns="http://www.w3.org/2000/svg">
<path d="M28.2 22.4C29.1 22.4 30 22.1 30.7 21.4C31.4 20.7 31.7 19.9 31.7 18.9C31.7 18 31.3 17.1 30.7 16.4C29.4 15.1 27.1 15.1 25.8 16.4C25.1 17.1 24.8 17.9 24.8 18.9C24.8 19.8 25.2 20.7 25.8 21.4C26.4 22.1 27.3 22.4 28.2 22.4ZM26.4 17.1C26.9 16.6 27.5 16.4 28.2 16.4C28.9 16.4 29.5 16.7 30 17.1C30.5 17.5 30.7 18.2 30.7 18.9C30.7 19.6 30.4 20.2 30 20.7C29 21.7 27.4 21.7 26.5 20.7C26 20.2 25.8 19.6 25.8 18.9C25.7 18.2 25.9 17.6 26.4 17.1Z" fill="black"/>
<path d="M35.3 16.7C36.2 16.7 37.1 16.4 37.8 15.7C39.2 14.3 39.2 12.1 37.8 10.8C36.4 9.4 34.2 9.4 32.9 10.8C31.5 12.2 31.5 14.4 32.9 15.7C33.5 16.4 34.4 16.7 35.3 16.7ZM33.5 11.5C34.5 10.5 36.1 10.5 37 11.5C37.9 12.5 38 14.1 37 15C36 15.9 34.4 16 33.5 15C32.5 14 32.5 12.5 33.5 11.5Z" fill="black"/>
<path d="M52.6 37.1V29.2C53.5 28.2 53.5 26.7 52.6 25.7L51.2 24.3L43.4 16.5C42 15.1 39.8 15.1 38.5 16.5L32.8 22.2L28.9 26L25 22.1C23.6 20.7 21.4 20.7 20.1 22.1L12.3 29.9L10.9 31.3C9.90001 32.3 9.90001 33.8 10.9 34.8V42.7L4.60001 49C3.70001 49.9 3.60001 51.3 4.30001 52.3C4.70001 52.9 5.40001 53.3 6.10001 53.3C6.20001 53.3 6.20001 53.3 6.30001 53.3C7.00001 53.3 7.60001 53 8.10001 52.6L15.2 45.5C15.7 45 15.9 44.4 15.9 43.7V39.7L18 41.8V50.7C18 52 18.9 53.1 20.1 53.3C20.2 53.3 20.4 53.3 20.5 53.3C21.1 53.3 21.7 53.1 22.1 52.7C22.7 52.2 23 51.5 23 50.8V40.8C23 40.1 22.7 39.5 22.3 39L17.7 34.4L24.1 28L27.3 31.2C27.8 31.7 28.4 31.9 29.1 31.9C29.7 31.9 30.4 31.7 30.9 31.2L36.5 25.6L39.7 22.4L46.1 28.8L41.5 33.4C41 33.9 40.8 34.5 40.8 35.2V45.2C40.8 45.9 41.1 46.6 41.7 47.1C42.2 47.5 42.7 47.7 43.3 47.7C43.4 47.7 43.6 47.7 43.7 47.7C44.9 47.5 45.8 46.4 45.8 45.1V36.2L47.9 34.1V38.1C47.9 38.8 48.2 39.4 48.6 39.9L55.7 47C56.2 47.5 56.8 47.7 57.5 47.7C57.6 47.7 57.6 47.7 57.7 47.7C58.4 47.6 59.1 47.3 59.5 46.7C60.2 45.7 60.1 44.3 59.2 43.4L52.6 37.1ZM57.3 46.7C56.9 46.7 56.4 46.6 56.1 46.3L49 39.2C48.7 38.9 48.6 38.5 48.6 38.1V33.1L51.6 30.1V37.2C51.6 37.3 51.7 37.5 51.7 37.6L58.1 44C58.7 44.6 58.8 45.4 58.3 46C58.1 46.4 57.7 46.6 57.3 46.7ZM44.5 36V45.1C44.5 45.9 44 46.6 43.2 46.7C42.7 46.8 42.3 46.6 42 46.4C41.7 46.1 41.5 45.7 41.5 45.3V35.3C41.5 34.9 41.7 34.5 41.9 34.2L46.9 29.3L47.6 28.6L48.1 28.1L49.9 26.3L50.4 25.8L50.8 25.4L51.9 26.5C51.9 26.5 51.9 26.5 51.9 26.6C52.3 27.1 52.4 27.8 52.1 28.3C52 28.4 52 28.5 51.9 28.7L51.6 29L48.6 32L48.1 32.5L47.6 33L44.7 35.9C44.6 35.7 44.5 35.9 44.5 36ZM41.3 20.7C41.5 20.5 41.5 20.2 41.3 20C41.1 19.8 40.9 19.8 40.7 19.9C40.7 19.9 40.6 19.9 40.6 20L39.5 21L39.1 21.4L38.7 21.8L37 23.5C36.9 23 36.8 22.6 36.4 22.2C36 21.7 35.4 21.5 34.8 21.4L37.4 18.8L38 18.2L39.1 17.1L39.2 17C39.7 16.5 40.3 16.3 41 16.3C41.7 16.3 42.3 16.5 42.8 17L50.2 24.4L46.7 27.9L40.3 21.5L41.3 20.7ZM21.9 50.8C21.9 51.2 21.7 51.7 21.4 51.9C21.1 52.2 20.6 52.3 20.2 52.2C19.5 52.1 18.9 51.4 18.9 50.6V41.5C18.9 41.4 18.8 41.2 18.8 41.1L15.9 38.2L15.4 37.7L14.9 37.2L11.9 34.2L11.6 33.9C11.5 33.8 11.4 33.7 11.4 33.5C11.1 33 11.2 32.3 11.6 31.8C11.6 31.8 11.6 31.8 11.6 31.7L12.7 30.6L13.1 31L13.6 31.5L15.4 33.3L15.9 33.8L16.6 34.5L21.5 39.4C21.8 39.7 21.9 40.1 21.9 40.5V50.8ZM14.8 43.8C14.8 44.2 14.6 44.6 14.4 44.9L7.30001 52C7.00001 52.3 6.50001 52.5 6.10001 52.4C5.70001 52.4 5.30001 52.1 5.00001 51.8C4.60001 51.2 4.70001 50.4 5.20001 49.8L11.6 43.4C11.7 43.3 11.7 43.2 11.7 43V35.9L14.7 38.9V43.8H14.8ZM16.9 33.8L13.4 30.3L20.8 22.9C21.8 21.9 23.4 21.9 24.3 22.9L24.4 23L26 24.6L28.5 27.1C28.7 27.3 29 27.3 29.2 27.1L32 24.3L32.5 23.8L33.4 22.9C34 22.3 35.1 22.3 35.6 23C36.1 23.6 36 24.5 35.5 25.1C35.5 25.1 35.5 25.1 35.5 25.2L34.7 26L34.2 26.5L30 30.6C29.4 31.2 28.5 31.2 27.9 30.6L24.7 27.4L24 26.7L22.9 25.6C22.9 25.6 22.8 25.6 22.8 25.5C22.6 25.4 22.4 25.4 22.2 25.6C22 25.8 22 26.1 22.2 26.3L23.3 27.4L16.9 33.8Z" fill="black"/>
</svg>
